M48
INCH
T01C.015
T02C.02756
T03C.028
T04C.04
T05C.05512
T06C.14567
T07C.09252
;LEADER: 12 
;HEADER: 
;CODE  : ASCII 
;FILE  : DAQ_BACKPLANE-1-2.drl for  ... layers TOP and BOTTOM
;DESIGN: DAQ_BACKPLANE.brd
;T01 Holesize 1. = 15.000000 Tolerance = +0.000000/-0.000000 PLATED MILS Quantity = 176
;T02 Holesize 2. = 27.560000 Tolerance = +0.000000/-0.000000 PLATED MILS Quantity = 350
;T03 Holesize 3. = 28.000000 Tolerance = +0.000000/-0.000000 PLATED MILS Quantity = 10
;T04 Holesize 4. = 40.000000 Tolerance = +0.000000/-0.000000 PLATED MILS Quantity = 12
;T05 Holesize 5. = 55.120000 Tolerance = +0.000000/-0.000000 PLATED MILS Quantity = 24
;T06 Holesize 6. = 145.670000 Tolerance = +0.000000/-0.000000 PLATED MILS Quantity = 8
;T07 Holesize 7. = 92.520000 Tolerance = +0.000000/-0.000000 NON_PLATED MILS Quantity = 16
%
G90
T01
X-017750Y-011000
X-018500Y-015000
X-020000Y-009000
X-020000Y-008410
X-014250Y-013750
X-018000Y-012250
X-018000Y-006250
X-020000Y-013750
X-020250Y-007000
X017250Y-004260
X017250Y-001490
X-032500Y-004010
X-032500Y-002490
X-023935Y-004565
X-023935Y-013815
X-005625Y005625
X-003250Y006000
X001750Y010500
X-006000Y006000
X-003250Y006500
X-007250Y005750
X-008250Y006000
X-016250Y-001240
X-016250Y-000490
X-017250Y-001240
X-017250Y-000490
X-014990Y003250
X-018500Y003250
X-020578Y-013960
X-020500Y-007750
X030750Y-004260
X030750Y-003500
X-021250Y-014240
X-021000Y-007250
X022261Y-004260
X022261Y-002250
X-021750Y-014000
X-021500Y-006750
X013500Y-004260
X013500Y-001490
X-022000Y-013750
X-021500Y-004500
X-007739Y-004010
X-007739Y000010
X-022500Y-013000
X-021990Y-004010
X-016750Y-004010
X-016750Y-000490
X-023000Y-012500
X-022510Y-004010
X-026250Y-004010
X-026250Y-001740
X-025500Y-002490
X-025500Y-001740
X-027000Y-002490
X-027000Y-001740
X-024740Y000750
X-028000Y000750
X029750Y-002500
X030750Y-002500
X020750Y-001750
X019750Y-001750
X-023000Y-012000
X-023000Y-007250
X-039500Y-001750
X-038250Y-000500
X-036250Y-003750
X-036250Y-002990
X-036750Y-003250
X-036750Y-002500
X-035750Y-001750
X-038500Y-001750
X-005250Y010500
X034500Y-004250
R03X-000500
X034250Y-003750
R03X-000500
X035250Y014500
R03X000500
X037000Y014000
R03X-000500
X026500Y-007500
R02X-000750
X026500Y-007000
R02X-000750
X025000Y-006500
R02X000750
X-006750Y-015750
X-005750Y-018250
X-005293Y-017543
X-005957Y-017543
X012500Y-013250
X005510Y-009750
X005705Y-009000
X-002750Y-016250
X-019250Y-013250
X-023500Y-009000
X-017500Y-013250
X-023500Y-009500
X-024500Y-011750
X-026750Y-013025
X-027750Y-009250
X-026250Y-008750
X-027047Y-013500
X029250Y003000
R07Y-000500
X023250Y-000500
R07Y000500
X006000Y007750
X022270Y004500
X019990Y004500
X030240Y004500
X032270Y004500
X006000Y009760
X006250Y006000
X-003750Y005750
X-008000Y004750
X-014250Y004750
X-019750Y004750
X-024000Y004750
X-029750Y004750
X-033000Y-002490
X-033000Y-004010
X-018260Y-004846
X-018260Y-011740
X006500Y009760
X006500Y008000
X013000Y008703
X013047Y007297
X022010Y004000
X019990Y004000
X030240Y004000
X032010Y004000
X006500Y005250
X-005250Y004250
X-005250Y005250
X-004500Y006000
X-008000Y004250
X-014750Y004250
X-019750Y004250
X-024500Y004250
X-029500Y004250
X-034250Y004250
X-035250Y004250
X-033500Y-002490
X-033500Y-004010
X-018750Y-005250
X-018500Y-012000
X-015250Y-015250
X-020750Y-009250
X-020750Y-016000
X-021250Y-009000
X-021250Y-016250
T02
X-036508Y014587
R05Y-000787
X-035720Y014193
R04Y-000787
X-037492Y014587
R05Y-000787
X-038280Y014193
R04Y-000787
X-038280Y009468
R03Y-000787
X-035720Y009468
R03Y-000787
X-037492Y009075
R02Y-000787
X-036508Y009075
R02Y-000787
X-026508Y014587
R05Y-000787
X-025720Y014193
R04Y-000787
X-027492Y014587
R05Y-000787
X-028280Y014193
R04Y-000787
X-028280Y009468
R03Y-000787
X-025720Y009468
R03Y-000787
X-027492Y009075
R02Y-000787
X-026508Y009075
R02Y-000787
X-016508Y014587
R05Y-000787
X-015720Y014193
R04Y-000787
X-017492Y014587
R05Y-000787
X-018280Y014193
R04Y-000787
X-018280Y009468
R03Y-000787
X-015720Y009468
R03Y-000787
X-017492Y009075
R02Y-000787
X-016508Y009075
R02Y-000787
X-006508Y014587
R05Y-000787
X-005720Y014193
R04Y-000787
X-007492Y014587
R05Y-000787
X-008280Y014193
R04Y-000787
X-008280Y009468
R03Y-000787
X-005720Y009468
R03Y-000787
X-007492Y009075
R02Y-000787
X-006508Y009075
R02Y-000787
X003492Y014587
R05Y-000787
X004279Y014193
R04Y-000787
X002508Y014587
R05Y-000787
X001720Y014193
R04Y-000787
X001720Y009468
R03Y-000787
X004279Y009468
R03Y-000787
X002508Y009075
R02Y-000787
X003492Y009075
R02Y-000787
X001720Y006319
R06Y-000787
X002508Y006713
R06Y-000787
X004279Y006319
R06Y-000787
X003492Y006713
R06Y-000787
X001720Y000807
R07Y-000787
X002508Y001201
R08Y-000787
X003492Y001201
R08Y-000787
X004279Y000807
R07Y-000787
X013492Y014587
R05Y-000787
X014280Y014193
R04Y-000787
X012508Y014587
R05Y-000787
X011721Y014193
R04Y-000787
X011721Y009468
R03Y-000787
X014280Y009468
R03Y-000787
X012508Y009075
R02Y-000787
X013492Y009075
R02Y-000787
X023492Y014587
R05Y-000787
X024280Y014193
R04Y-000787
X022508Y014587
R05Y-000787
X021720Y014193
R04Y-000787
X021720Y009468
R03Y-000787
X024280Y009468
R03Y-000787
X022508Y009075
R02Y-000787
X023492Y009075
R02Y-000787
X033492Y014587
R05Y-000787
X034280Y014193
R04Y-000787
X032508Y014587
R05Y-000787
X031720Y014193
R04Y-000787
X031720Y009468
R03Y-000787
X034280Y009468
R03Y-000787
X032508Y009075
R02Y-000787
X033492Y009075
R02Y-000787
T03
X-014250Y-012500
X-014750Y-012500
X-014250Y-012000
X-014750Y-012000
X-014250Y-011500
X-014750Y-011500
X-014250Y-011000
X-014750Y-011000
X-014250Y-010500
X-014750Y-010500
T04
X-032500Y010250
X-031500Y010250
X-032750Y-010250
R03Y-001000
X010000Y-007500
R03Y-001000
X017250Y010250
X018250Y010250
T05
X016406Y-011083
X018059Y-011083
X019713Y-011083
X021366Y-011083
X023020Y-011083
X024673Y-011083
X026327Y-011083
X027980Y-011083
X029634Y-011083
R02X001654
X034594Y-011083
X016406Y-008917
X018059Y-008917
X019713Y-008917
X021366Y-008917
X023020Y-008917
X024673Y-008917
X026327Y-008917
X027980Y-008917
X029634Y-008917
R02X001654
X034594Y-008917
T06
X-033000Y017000
X-033000Y-017000
X-012000Y017000
X-012000Y-017000
X008500Y017000
X008500Y-017000
X029000Y017000
X029000Y-017000
T07
X-037000Y010000
X-037000Y006398
X-027000Y010000
X-027000Y006398
X-017000Y010000
X-017000Y006398
X-007000Y010000
X-007000Y006398
X003000Y010000
X003000Y-005807
X013000Y010000
X013000Y006398
X023000Y010000
X023000Y006398
X033000Y010000
X033000Y006398
M30
