G04 ================== begin FILE IDENTIFICATION RECORD ==================*
G04 Layout Name:  DAQ_BACKPLANE.brd*
G04 Film Name:    SILK_BOT*
G04 File Format:  Gerber RS274X*
G04 File Origin:  Cadence Allegro 17.2-S050*
G04 Origin Date:  Fri Jan 25 01:51:18 2019*
G04 *
G04 Layer:  MANUFACTURING/AUTOSILK_BOTTOM*
G04 *
G04 Offset:    (0.00 0.00)*
G04 Mirror:    No*
G04 Mode:      Positive*
G04 Rotation:  0*
G04 FullContactRelief:  No*
G04 UndefLineWidth:     5.00*
G04 ================== end FILE IDENTIFICATION RECORD ====================*
%FSLAX55Y55*MOIN*%
%IR0*IPPOS*OFA0.00000B0.00000*MIA0B0*SFA1.00000B1.00000*%
%ADD10C,.005*%
%ADD11C,.008*%
G75*
%LPD*%
G75*
G54D10*
G01X153425Y-81890D02*
Y-119685D01*
G01D02*
X356575D01*
G01Y-81890D02*
X153425D01*
G01X258937D02*
Y-85039D01*
G01D02*
X251028D01*
G01D02*
Y-81890D01*
G01X356575Y-119685D02*
Y-81890D01*
G54D11*
G01X352792Y-79215D02*
X352475Y-79765D01*
X352095Y-80132D01*
X351652Y-80315D01*
X351145Y-80132D01*
X350765Y-79765D01*
X350385Y-79215D01*
X350258Y-78482D01*
Y-74815D01*
G01X347225Y-80315D02*
X346782Y-80223D01*
X346275Y-79948D01*
X345958Y-79490D01*
X345832Y-78848D01*
X345958Y-78207D01*
X346338Y-77657D01*
X346908Y-77382D01*
X347542D01*
X347922Y-77198D01*
X348238Y-76740D01*
X348365Y-76098D01*
X348175Y-75457D01*
X347732Y-74998D01*
X347225Y-74815D01*
X346718Y-74998D01*
X346275Y-75457D01*
X346085Y-76098D01*
X346212Y-76740D01*
X346528Y-77198D01*
X346908Y-77382D01*
X347542D01*
X348112Y-77657D01*
X348492Y-78207D01*
X348618Y-78848D01*
X348492Y-79490D01*
X348175Y-79948D01*
X347668Y-80223D01*
X347225Y-80315D01*
M02*
