G04 ================== begin FILE IDENTIFICATION RECORD ==================*
G04 Layout Name:  DAQ_BACKPLANE.brd*
G04 Film Name:    SM_BOT*
G04 File Format:  Gerber RS274X*
G04 File Origin:  Cadence Allegro 17.2-S050*
G04 Origin Date:  Fri Jan 25 01:51:18 2019*
G04 *
G04 Layer:  VIA CLASS/SOLDERMASK_BOTTOM*
G04 Layer:  PIN/SOLDERMASK_BOTTOM*
G04 Layer:  PACKAGE GEOMETRY/SOLDERMASK_BOTTOM*
G04 Layer:  BOARD GEOMETRY/SOLDERMASK_BOTTOM*
G04 *
G04 Offset:    (0.00 0.00)*
G04 Mirror:    No*
G04 Mode:      Positive*
G04 Rotation:  0*
G04 FullContactRelief:  No*
G04 UndefLineWidth:     0.00*
G04 ================== end FILE IDENTIFICATION RECORD ====================*
%FSLAX55Y55*MOIN*%
%IR0*IPPOS*OFA0.00000B0.00000*MIA0B0*SFA1.00000B1.00000*%
%ADD13C,.081*%
%ADD15C,.046*%
%ADD14R,.081X.081*%
%ADD16R,.046X.046*%
%ADD10C,.05327*%
%ADD18C,.09264*%
%ADD17R,.09264X.09264*%
%ADD11C,.10433*%
%ADD12C,.14567*%
%LPD*%
G75*
G54D10*
X-374921Y75000D03*
Y82874D03*
X-382795Y71063D03*
Y78937D03*
X-374921Y90748D03*
X-382795Y86811D03*
Y94685D03*
Y110433D03*
X-374921Y106496D03*
X-382795Y118307D03*
Y126181D03*
Y134055D03*
X-374921Y114370D03*
Y122244D03*
Y130118D03*
X-382795Y141929D03*
X-374921Y137992D03*
Y145866D03*
X-365079Y75000D03*
Y82874D03*
X-357205Y71063D03*
Y78937D03*
X-365079Y90748D03*
X-357205Y86811D03*
Y94685D03*
Y110433D03*
X-365079Y106496D03*
X-357205Y118307D03*
Y126181D03*
Y134055D03*
X-365079Y114370D03*
Y122244D03*
Y130118D03*
X-357205Y141929D03*
X-365079Y137992D03*
Y145866D03*
X-274921Y75000D03*
Y82874D03*
X-282795Y71063D03*
Y78937D03*
X-274921Y90748D03*
X-282795Y86811D03*
Y94685D03*
Y110433D03*
X-274921Y106496D03*
X-282795Y118307D03*
Y126181D03*
Y134055D03*
X-274921Y114370D03*
Y122244D03*
Y130118D03*
X-282795Y141929D03*
X-274921Y137992D03*
Y145866D03*
X-265079Y75000D03*
Y82874D03*
X-257205Y71063D03*
Y78937D03*
X-265079Y90748D03*
X-257205Y86811D03*
Y94685D03*
Y110433D03*
X-265079Y106496D03*
X-257205Y118307D03*
Y126181D03*
Y134055D03*
X-265079Y114370D03*
Y122244D03*
Y130118D03*
X-257205Y141929D03*
X-265079Y137992D03*
Y145866D03*
X-165079Y75000D03*
Y82874D03*
X-174921Y75000D03*
Y82874D03*
X-182795Y71063D03*
Y78937D03*
X-165079Y90748D03*
X-174921D03*
X-182795Y86811D03*
Y94685D03*
Y110433D03*
X-174921Y106496D03*
X-165079D03*
X-182795Y118307D03*
Y126181D03*
Y134055D03*
X-174921Y114370D03*
Y122244D03*
Y130118D03*
X-165079Y114370D03*
Y122244D03*
Y130118D03*
X-182795Y141929D03*
X-174921Y137992D03*
Y145866D03*
X-165079Y137992D03*
Y145866D03*
X-157205Y71063D03*
Y78937D03*
Y86811D03*
Y94685D03*
Y110433D03*
Y118307D03*
Y126181D03*
Y134055D03*
Y141929D03*
X-65079Y75000D03*
Y82874D03*
X-74921Y75000D03*
Y82874D03*
X-82795Y71063D03*
Y78937D03*
X-65079Y90748D03*
X-74921D03*
X-82795Y86811D03*
Y94685D03*
Y110433D03*
X-74921Y106496D03*
X-65079D03*
X-82795Y118307D03*
Y126181D03*
Y134055D03*
X-74921Y114370D03*
Y122244D03*
Y130118D03*
X-65079Y114370D03*
Y122244D03*
Y130118D03*
X-82795Y141929D03*
X-74921Y137992D03*
Y145866D03*
X-65079Y137992D03*
Y145866D03*
X-57205Y71063D03*
Y78937D03*
Y86811D03*
Y94685D03*
Y110433D03*
Y118307D03*
Y126181D03*
Y134055D03*
Y141929D03*
X34921Y-50984D03*
Y-43110D03*
X25079Y-50984D03*
Y-43110D03*
X17205Y-47047D03*
X34921Y-35236D03*
Y-27362D03*
Y-19488D03*
X25079Y-35236D03*
Y-27362D03*
Y-19488D03*
X17205Y-39173D03*
Y-31299D03*
Y-23425D03*
X34921Y-11614D03*
Y-3740D03*
Y4134D03*
X25079Y-11614D03*
Y-3740D03*
Y4134D03*
X17205Y-15551D03*
Y-7677D03*
Y197D03*
Y8071D03*
X34921Y12008D03*
X25079D03*
X34921Y19882D03*
Y27756D03*
X25079Y19882D03*
Y27756D03*
X17205Y15945D03*
Y23819D03*
Y31693D03*
X34921Y35630D03*
Y43504D03*
Y51378D03*
Y59252D03*
X25079Y35630D03*
Y43504D03*
Y51378D03*
Y59252D03*
X17205Y39567D03*
Y47441D03*
Y55315D03*
X34921Y67126D03*
X25079D03*
X17205Y63189D03*
X34921Y75000D03*
Y82874D03*
X25079Y75000D03*
Y82874D03*
X17205Y71063D03*
Y78937D03*
X34921Y90748D03*
X25079D03*
X17205Y86811D03*
Y94685D03*
Y110433D03*
X25079Y106496D03*
X34921D03*
X17205Y118307D03*
Y126181D03*
Y134055D03*
X25079Y114370D03*
Y122244D03*
Y130118D03*
X34921Y114370D03*
Y122244D03*
Y130118D03*
X17205Y141929D03*
X25079Y137992D03*
Y145866D03*
X34921Y137992D03*
Y145866D03*
X42795Y-47047D03*
Y-39173D03*
Y-31299D03*
Y-23425D03*
Y-15551D03*
Y-7677D03*
Y197D03*
Y8071D03*
Y15945D03*
Y23819D03*
Y31693D03*
Y39567D03*
Y47441D03*
Y55315D03*
Y63189D03*
Y71063D03*
Y78937D03*
Y86811D03*
Y94685D03*
Y110433D03*
Y118307D03*
Y126181D03*
Y134055D03*
Y141929D03*
X134921Y75000D03*
Y82874D03*
X125079Y75000D03*
Y82874D03*
X117205Y71063D03*
Y78937D03*
X134921Y90748D03*
X125079D03*
X117205Y86811D03*
Y94685D03*
Y110433D03*
X125079Y106496D03*
X134921D03*
X117205Y118307D03*
Y126181D03*
Y134055D03*
X125079Y114370D03*
Y122244D03*
Y130118D03*
X134921Y114370D03*
Y122244D03*
Y130118D03*
X117205Y141929D03*
X125079Y137992D03*
Y145866D03*
X134921Y137992D03*
Y145866D03*
X142795Y71063D03*
Y78937D03*
Y86811D03*
Y94685D03*
Y110433D03*
Y118307D03*
Y126181D03*
Y134055D03*
Y141929D03*
X234921Y75000D03*
Y82874D03*
X225079Y75000D03*
Y82874D03*
X217205Y71063D03*
Y78937D03*
X234921Y90748D03*
X225079D03*
X217205Y86811D03*
Y94685D03*
Y110433D03*
X225079Y106496D03*
X234921D03*
X217205Y118307D03*
Y126181D03*
Y134055D03*
X225079Y114370D03*
Y122244D03*
Y130118D03*
X234921Y114370D03*
Y122244D03*
Y130118D03*
X217205Y141929D03*
X225079Y137992D03*
Y145866D03*
X234921Y137992D03*
Y145866D03*
X242795Y71063D03*
Y78937D03*
Y86811D03*
Y94685D03*
Y110433D03*
Y118307D03*
Y126181D03*
Y134055D03*
Y141929D03*
X317205Y71063D03*
Y78937D03*
Y86811D03*
Y94685D03*
Y110433D03*
Y118307D03*
Y126181D03*
Y134055D03*
Y141929D03*
X334921Y75000D03*
Y82874D03*
X325079Y75000D03*
Y82874D03*
X342795Y71063D03*
Y78937D03*
X334921Y90748D03*
X325079D03*
X342795Y86811D03*
Y94685D03*
X325079Y106496D03*
X342795Y110433D03*
X334921Y106496D03*
X325079Y114370D03*
Y122244D03*
Y130118D03*
X342795Y118307D03*
Y126181D03*
Y134055D03*
X334921Y114370D03*
Y122244D03*
Y130118D03*
X325079Y137992D03*
Y145866D03*
X342795Y141929D03*
X334921Y137992D03*
Y145866D03*
G54D11*
X-370000Y63976D03*
Y100000D03*
X-270000Y63976D03*
Y100000D03*
X-170000Y63976D03*
Y100000D03*
X-70000Y63976D03*
Y100000D03*
X30000Y-58071D03*
Y100000D03*
X130000Y63976D03*
Y100000D03*
X230000Y63976D03*
Y100000D03*
X330000Y63976D03*
Y100000D03*
G54D12*
X-330000Y-170000D03*
Y170000D03*
X-120000Y-170000D03*
Y170000D03*
X85000Y-170000D03*
Y170000D03*
X290000Y-170000D03*
Y170000D03*
G54D13*
X-327500Y-132500D03*
Y-122500D03*
Y-112500D03*
X-315000Y102500D03*
X100000Y-105000D03*
Y-95000D03*
Y-85000D03*
X182500Y102500D03*
G54D14*
X-327500Y-102500D03*
X-325000Y102500D03*
X100000Y-75000D03*
X172500Y102500D03*
G54D15*
X-147500Y-120000D03*
Y-125000D03*
X-142500Y-120000D03*
X-147500Y-105000D03*
Y-110000D03*
Y-115000D03*
X-142500Y-105000D03*
Y-110000D03*
Y-115000D03*
G54D16*
Y-125000D03*
G54D17*
X164055Y-110827D03*
G54D18*
Y-89173D03*
X180591Y-110827D03*
Y-89173D03*
X213661Y-110827D03*
X197126D03*
X213661Y-89173D03*
X197126D03*
X230197Y-110827D03*
Y-89173D03*
X263268Y-110827D03*
X246732D03*
X263268Y-89173D03*
X246732D03*
X279803Y-110827D03*
Y-89173D03*
X312874Y-110827D03*
X296339D03*
X312874Y-89173D03*
X296339D03*
X329409Y-110827D03*
Y-89173D03*
X345945Y-110827D03*
Y-89173D03*
M02*
