G04 ================== begin FILE IDENTIFICATION RECORD ==================*
G04 Layout Name:  DAQ_BACKPLANE.brd*
G04 Film Name:    SM_TOP*
G04 File Format:  Gerber RS274X*
G04 File Origin:  Cadence Allegro 17.2-S050*
G04 Origin Date:  Fri Jan 25 01:51:18 2019*
G04 *
G04 Layer:  VIA CLASS/SOLDERMASK_TOP*
G04 Layer:  PIN/SOLDERMASK_TOP*
G04 Layer:  PACKAGE GEOMETRY/SOLDERMASK_TOP*
G04 Layer:  BOARD GEOMETRY/SOLDERMASK_TOP*
G04 *
G04 Offset:    (0.00 0.00)*
G04 Mirror:    No*
G04 Mode:      Positive*
G04 Rotation:  0*
G04 FullContactRelief:  No*
G04 UndefLineWidth:     0.00*
G04 ================== end FILE IDENTIFICATION RECORD ====================*
%FSLAX55Y55*MOIN*%
%IR0*IPPOS*OFA0.00000B0.00000*MIA0B0*SFA1.00000B1.00000*%
%ADD13C,.081*%
%ADD21C,.046*%
%ADD14R,.081X.081*%
%ADD22R,.046X.046*%
%ADD10C,.05327*%
%ADD28R,.13004X.08476*%
%ADD27R,.08476X.13004*%
%ADD26C,.09264*%
%ADD16R,.04528X.04528*%
%ADD24R,.13386X.09055*%
%ADD25R,.09264X.09264*%
%AMMACRO18*
4,1,5,.02677,.0248,
.04055,.01102,
.04055,-.0248,
-.04055,-.0248,
-.04055,.0248,
.02677,.0248,
0.0*
%
%ADD18MACRO18*%
%ADD11C,.10433*%
%ADD19R,.028X.065*%
%ADD20R,.065X.028*%
%ADD23R,.04331X.09055*%
%ADD12C,.14567*%
%ADD17R,.08071X.04921*%
%ADD15R,.03752X.04146*%
%LPD*%
G75*
G54D10*
X-374921Y75000D03*
Y82874D03*
X-382795Y71063D03*
Y78937D03*
X-374921Y90748D03*
X-382795Y86811D03*
Y94685D03*
Y110433D03*
X-374921Y106496D03*
X-382795Y118307D03*
Y126181D03*
Y134055D03*
X-374921Y114370D03*
Y122244D03*
Y130118D03*
X-382795Y141929D03*
X-374921Y137992D03*
Y145866D03*
X-365079Y75000D03*
Y82874D03*
X-357205Y71063D03*
Y78937D03*
X-365079Y90748D03*
X-357205Y86811D03*
Y94685D03*
Y110433D03*
X-365079Y106496D03*
X-357205Y118307D03*
Y126181D03*
Y134055D03*
X-365079Y114370D03*
Y122244D03*
Y130118D03*
X-357205Y141929D03*
X-365079Y137992D03*
Y145866D03*
X-274921Y75000D03*
Y82874D03*
X-282795Y71063D03*
Y78937D03*
X-274921Y90748D03*
X-282795Y86811D03*
Y94685D03*
Y110433D03*
X-274921Y106496D03*
X-282795Y118307D03*
Y126181D03*
Y134055D03*
X-274921Y114370D03*
Y122244D03*
Y130118D03*
X-282795Y141929D03*
X-274921Y137992D03*
Y145866D03*
X-265079Y75000D03*
Y82874D03*
X-257205Y71063D03*
Y78937D03*
X-265079Y90748D03*
X-257205Y86811D03*
Y94685D03*
Y110433D03*
X-265079Y106496D03*
X-257205Y118307D03*
Y126181D03*
Y134055D03*
X-265079Y114370D03*
Y122244D03*
Y130118D03*
X-257205Y141929D03*
X-265079Y137992D03*
Y145866D03*
X-165079Y75000D03*
Y82874D03*
X-174921Y75000D03*
Y82874D03*
X-182795Y71063D03*
Y78937D03*
X-165079Y90748D03*
X-174921D03*
X-182795Y86811D03*
Y94685D03*
Y110433D03*
X-174921Y106496D03*
X-165079D03*
X-182795Y118307D03*
Y126181D03*
Y134055D03*
X-174921Y114370D03*
Y122244D03*
Y130118D03*
X-165079Y114370D03*
Y122244D03*
Y130118D03*
X-182795Y141929D03*
X-174921Y137992D03*
Y145866D03*
X-165079Y137992D03*
Y145866D03*
X-157205Y71063D03*
Y78937D03*
Y86811D03*
Y94685D03*
Y110433D03*
Y118307D03*
Y126181D03*
Y134055D03*
Y141929D03*
X-65079Y75000D03*
Y82874D03*
X-74921Y75000D03*
Y82874D03*
X-82795Y71063D03*
Y78937D03*
X-65079Y90748D03*
X-74921D03*
X-82795Y86811D03*
Y94685D03*
Y110433D03*
X-74921Y106496D03*
X-65079D03*
X-82795Y118307D03*
Y126181D03*
Y134055D03*
X-74921Y114370D03*
Y122244D03*
Y130118D03*
X-65079Y114370D03*
Y122244D03*
Y130118D03*
X-82795Y141929D03*
X-74921Y137992D03*
Y145866D03*
X-65079Y137992D03*
Y145866D03*
X-57205Y71063D03*
Y78937D03*
Y86811D03*
Y94685D03*
Y110433D03*
Y118307D03*
Y126181D03*
Y134055D03*
Y141929D03*
X34921Y-50984D03*
Y-43110D03*
X25079Y-50984D03*
Y-43110D03*
X17205Y-47047D03*
X34921Y-35236D03*
Y-27362D03*
Y-19488D03*
X25079Y-35236D03*
Y-27362D03*
Y-19488D03*
X17205Y-39173D03*
Y-31299D03*
Y-23425D03*
X34921Y-11614D03*
Y-3740D03*
Y4134D03*
X25079Y-11614D03*
Y-3740D03*
Y4134D03*
X17205Y-15551D03*
Y-7677D03*
Y197D03*
Y8071D03*
X34921Y12008D03*
X25079D03*
X34921Y19882D03*
Y27756D03*
X25079Y19882D03*
Y27756D03*
X17205Y15945D03*
Y23819D03*
Y31693D03*
X34921Y35630D03*
Y43504D03*
Y51378D03*
Y59252D03*
X25079Y35630D03*
Y43504D03*
Y51378D03*
Y59252D03*
X17205Y39567D03*
Y47441D03*
Y55315D03*
X34921Y67126D03*
X25079D03*
X17205Y63189D03*
X34921Y75000D03*
Y82874D03*
X25079Y75000D03*
Y82874D03*
X17205Y71063D03*
Y78937D03*
X34921Y90748D03*
X25079D03*
X17205Y86811D03*
Y94685D03*
Y110433D03*
X25079Y106496D03*
X34921D03*
X17205Y118307D03*
Y126181D03*
Y134055D03*
X25079Y114370D03*
Y122244D03*
Y130118D03*
X34921Y114370D03*
Y122244D03*
Y130118D03*
X17205Y141929D03*
X25079Y137992D03*
Y145866D03*
X34921Y137992D03*
Y145866D03*
X42795Y-47047D03*
Y-39173D03*
Y-31299D03*
Y-23425D03*
Y-15551D03*
Y-7677D03*
Y197D03*
Y8071D03*
Y15945D03*
Y23819D03*
Y31693D03*
Y39567D03*
Y47441D03*
Y55315D03*
Y63189D03*
Y71063D03*
Y78937D03*
Y86811D03*
Y94685D03*
Y110433D03*
Y118307D03*
Y126181D03*
Y134055D03*
Y141929D03*
X134921Y75000D03*
Y82874D03*
X125079Y75000D03*
Y82874D03*
X117205Y71063D03*
Y78937D03*
X134921Y90748D03*
X125079D03*
X117205Y86811D03*
Y94685D03*
Y110433D03*
X125079Y106496D03*
X134921D03*
X117205Y118307D03*
Y126181D03*
Y134055D03*
X125079Y114370D03*
Y122244D03*
Y130118D03*
X134921Y114370D03*
Y122244D03*
Y130118D03*
X117205Y141929D03*
X125079Y137992D03*
Y145866D03*
X134921Y137992D03*
Y145866D03*
X142795Y71063D03*
Y78937D03*
Y86811D03*
Y94685D03*
Y110433D03*
Y118307D03*
Y126181D03*
Y134055D03*
Y141929D03*
X234921Y75000D03*
Y82874D03*
X225079Y75000D03*
Y82874D03*
X217205Y71063D03*
Y78937D03*
X234921Y90748D03*
X225079D03*
X217205Y86811D03*
Y94685D03*
Y110433D03*
X225079Y106496D03*
X234921D03*
X217205Y118307D03*
Y126181D03*
Y134055D03*
X225079Y114370D03*
Y122244D03*
Y130118D03*
X234921Y114370D03*
Y122244D03*
Y130118D03*
X217205Y141929D03*
X225079Y137992D03*
Y145866D03*
X234921Y137992D03*
Y145866D03*
X242795Y71063D03*
Y78937D03*
Y86811D03*
Y94685D03*
Y110433D03*
Y118307D03*
Y126181D03*
Y134055D03*
Y141929D03*
X317205Y71063D03*
Y78937D03*
Y86811D03*
Y94685D03*
Y110433D03*
Y118307D03*
Y126181D03*
Y134055D03*
Y141929D03*
X334921Y75000D03*
Y82874D03*
X325079Y75000D03*
Y82874D03*
X342795Y71063D03*
Y78937D03*
X334921Y90748D03*
X325079D03*
X342795Y86811D03*
Y94685D03*
X325079Y106496D03*
X342795Y110433D03*
X334921Y106496D03*
X325079Y114370D03*
Y122244D03*
Y130118D03*
X342795Y118307D03*
Y126181D03*
Y134055D03*
X334921Y114370D03*
Y122244D03*
Y130118D03*
X325079Y137992D03*
Y145866D03*
X342795Y141929D03*
X334921Y137992D03*
Y145866D03*
G54D20*
X-224232Y-126024D03*
Y-122874D03*
Y-119724D03*
Y-116575D03*
Y-113425D03*
Y-110276D03*
Y-107126D03*
Y-103976D03*
X-190768Y-119724D03*
Y-122874D03*
Y-126024D03*
Y-103976D03*
Y-107126D03*
Y-110276D03*
Y-113425D03*
Y-116575D03*
G54D11*
X-370000Y63976D03*
Y100000D03*
X-270000Y63976D03*
Y100000D03*
X-170000Y63976D03*
Y100000D03*
X-70000Y63976D03*
Y100000D03*
X30000Y-58071D03*
Y100000D03*
X130000Y63976D03*
Y100000D03*
X230000Y63976D03*
Y100000D03*
X330000Y63976D03*
Y100000D03*
G54D12*
X-330000Y-170000D03*
Y170000D03*
X-120000Y-170000D03*
Y170000D03*
X85000Y-170000D03*
Y170000D03*
X290000Y-170000D03*
Y170000D03*
G54D21*
X-147500Y-120000D03*
Y-125000D03*
X-142500Y-120000D03*
X-147500Y-105000D03*
Y-110000D03*
Y-115000D03*
X-142500Y-105000D03*
Y-110000D03*
Y-115000D03*
G54D22*
Y-125000D03*
G54D13*
X-327500Y-132500D03*
Y-122500D03*
Y-112500D03*
X-315000Y102500D03*
X100000Y-105000D03*
Y-95000D03*
Y-85000D03*
X182500Y102500D03*
G54D23*
X-56555Y-175433D03*
X-38445D03*
X-47500D03*
G54D14*
X-327500Y-102500D03*
X-325000Y102500D03*
X100000Y-75000D03*
X172500Y102500D03*
G54D15*
X-275000Y-123563D03*
X-271260Y-131437D03*
X-278740D03*
X60000Y-101437D03*
X56260Y-93563D03*
X63740D03*
G54D24*
X-47500Y-154567D03*
G54D25*
X164055Y-110827D03*
G54D16*
X-277500Y-103150D03*
Y-96850D03*
X-276850Y-115000D03*
X-283150D03*
X-251850Y-87500D03*
X-258150D03*
X-235000Y-131850D03*
Y-138150D03*
X-238150Y-100000D03*
X-231850D03*
X-240650Y-117500D03*
X-234350D03*
X-174350Y-127500D03*
X-180650D03*
X-190000Y-143150D03*
Y-136850D03*
X-120000Y-129350D03*
Y-135650D03*
X-110000Y-129350D03*
Y-135650D03*
X-67500Y-161850D03*
Y-168150D03*
X-27500Y-173150D03*
Y-166850D03*
X36850Y-100000D03*
X43150D03*
X135650Y-132500D03*
X129350D03*
X149350D03*
X155650D03*
G54D17*
X-267382Y-95571D03*
X-252618D03*
Y-104429D03*
G54D26*
X164055Y-89173D03*
X180591Y-110827D03*
Y-89173D03*
X213661Y-110827D03*
X197126D03*
X213661Y-89173D03*
X197126D03*
X230197Y-110827D03*
Y-89173D03*
X263268Y-110827D03*
X246732D03*
X263268Y-89173D03*
X246732D03*
X279803Y-110827D03*
Y-89173D03*
X312874Y-110827D03*
X296339D03*
X312874Y-89173D03*
X296339D03*
X329409Y-110827D03*
Y-89173D03*
X345945Y-110827D03*
Y-89173D03*
G54D18*
X-267382Y-104429D03*
G54D27*
X277264Y-70000D03*
X292736D03*
X317264Y-52500D03*
X332736D03*
G54D19*
X-218524Y-131732D03*
Y-98268D03*
X-196476Y-131732D03*
X-199626D03*
X-202776D03*
X-205925D03*
X-209075D03*
X-212224D03*
X-215374D03*
Y-98268D03*
X-212224D03*
X-209075D03*
X-205925D03*
X-202776D03*
X-199626D03*
X-196476D03*
G54D28*
X357500Y-67736D03*
Y-52264D03*
M02*
