G04 ================== begin FILE IDENTIFICATION RECORD ==================*
G04 Layout Name:  DAQ_BACKPLANE.brd*
G04 Film Name:    TOP*
G04 File Format:  Gerber RS274X*
G04 File Origin:  Cadence Allegro 17.2-S050*
G04 Origin Date:  Fri Jan 25 01:51:18 2019*
G04 *
G04 Layer:  ETCH/TOP*
G04 Layer:  PIN/TOP*
G04 Layer:  VIA CLASS/TOP*
G04 *
G04 Offset:    (0.00 0.00)*
G04 Mirror:    No*
G04 Mode:      Positive*
G04 Rotation:  0*
G04 FullContactRelief:  No*
G04 UndefLineWidth:     0.00*
G04 ================== end FILE IDENTIFICATION RECORD ====================*
%FSLAX55Y55*MOIN*%
%IR0*IPPOS*OFA0.00000B0.00000*MIA0B0*SFA1.00000B1.00000*%
%ADD10C,.03*%
%ADD20C,.04*%
%ADD21R,.04X.04*%
%ADD12C,.075*%
%ADD11C,.04724*%
%ADD13R,.075X.075*%
%ADD27R,.12402X.07874*%
%ADD25C,.08661*%
%ADD26R,.07874X.12402*%
%ADD24R,.08661X.08661*%
%ADD15R,.03937X.03937*%
%AMMACRO17*
4,1,5,.0374,-.02165,
-.0374,-.02165,
-.0374,.02165,
.02559,.02165,
.0374,.00984,
.0374,-.02165,
0.0*
%
%ADD17MACRO17*%
%ADD23R,.12795X.08465*%
%ADD18R,.022X.059*%
%ADD19R,.059X.022*%
%ADD14R,.0315X.03543*%
%ADD16R,.0748X.04331*%
%ADD22R,.0374X.08465*%
%ADD28C,.01*%
%ADD29C,.02*%
%ADD30C,.016*%
%ADD31C,.1*%
%ADD32C,.008*%
%ADD33C,.05728*%
%ADD35C,.09664*%
%ADD34C,.41738*%
G75*
%LPD*%
G75*
G36*
G01X344840Y136998D02*
X373499D01*
Y-59999D01*
X350001D01*
Y-32499D01*
X327501D01*
Y34999D01*
X332500D01*
X351071Y53570D01*
Y57242D01*
X351076Y57263D01*
G03X351102Y57500I-1076J238D01*
G01Y114464D01*
G03X350779Y115243I-1101J0D01*
G01X346936Y119086D01*
G03X346157Y119408I-778J-779D01*
G01X345439D01*
G03X342795Y121171I-2644J-1101D01*
G03X339931Y118307I0J-2864D01*
G03X340888Y116170I2864J0D01*
G02X340622Y115472I-266J-298D01*
G01X337565D01*
G03X334921Y117234I-2644J-1103D01*
G03X332057Y114370I0J-2864D01*
G03X332363Y113081I2864J-1D01*
G02X332006Y112501I-357J-180D01*
G01X327994D01*
G02X327637Y113081I0J400D01*
G03X327943Y114370I-2558J1288D01*
G03X322215I-2864J0D01*
G03X322385Y113397I2864J-1D01*
G01X322429Y113277D01*
X321922Y112771D01*
G03X321724Y112501I779J-779D01*
G01X319186D01*
G03X318055Y113168I-1982J-2068D01*
G02X317891Y113833I118J382D01*
G01X317984Y113926D01*
G03X318306Y114705I-779J778D01*
G01Y115663D01*
G03X320069Y118307I-1101J2644D01*
G03X314341I-2864J0D01*
G03X316104Y115663I2864J0D01*
G01Y115161D01*
X315939Y114996D01*
X315102D01*
G03X314323Y114674I-1J-1101D01*
G01X312150Y112501D01*
X250159D01*
X245445Y117214D01*
X245489Y117334D01*
G03X245659Y118307I-2694J972D01*
G03X239931I-2864J0D01*
G03X240888Y116170I2864J0D01*
G02X240622Y115472I-266J-298D01*
G01X237565D01*
G03X234921Y117234I-2644J-1103D01*
G03X232057Y114370I0J-2864D01*
G03X232363Y113081I2864J-1D01*
G02X232006Y112501I-357J-180D01*
G01X227994D01*
G02X227637Y113081I0J400D01*
G03X227943Y114370I-2558J1288D01*
G03X222215I-2864J0D01*
G03X222521Y113081I2864J-1D01*
G02X222164Y112501I-357J-180D01*
G01X219186D01*
G03X218055Y113168I-1982J-2068D01*
G02X217891Y113833I118J382D01*
G01X217984Y113926D01*
G03X218306Y114705I-779J778D01*
G01Y115663D01*
G03X220069Y118307I-1101J2644D01*
G03X214341I-2864J0D01*
G03X216104Y115663I2864J0D01*
G01Y115161D01*
X215939Y114996D01*
X215102D01*
G03X214323Y114674I-1J-1101D01*
G01X212150Y112501D01*
X148602D01*
Y113602D01*
G03X148279Y114381I-1101J0D01*
G01X145445Y117214D01*
X145489Y117334D01*
G03X145659Y118307I-2694J972D01*
G03X142795Y115443I-2864J0D01*
G03X143768Y115613I1J2864D01*
G01X143888Y115657D01*
X146398Y113146D01*
Y112501D01*
X144776D01*
G03X140814I-1981J-2067D01*
G01X138276D01*
G03X138078Y112771I-977J-509D01*
G01X137571Y113277D01*
X137615Y113397D01*
G03X137785Y114370I-2694J972D01*
G03X132057I-2864J0D01*
G03X132363Y113081I2864J-1D01*
G02X132006Y112501I-357J-180D01*
G01X127994D01*
G02X127637Y113081I0J400D01*
G03X127943Y114370I-2558J1288D01*
G03X125079Y117234I-2864J0D01*
G03X122435Y115472I0J-2865D01*
G01X119378D01*
G02X119112Y116170I0J400D01*
G03X120069Y118307I-1907J2137D01*
G03X117205Y121171I-2864J0D01*
G03X114561Y119408I0J-2864D01*
G01X113307D01*
G03X112528Y119086I-1J-1101D01*
G01X105943Y112501D01*
X56557D01*
X49972Y119086D01*
G03X49193Y119408I-778J-779D01*
G01X45439D01*
G03X42795Y121171I-2644J-1101D01*
G03X39931Y118307I0J-2864D01*
G03X40888Y116170I2864J0D01*
G02X40622Y115472I-266J-298D01*
G01X37565D01*
G03X34921Y117234I-2644J-1103D01*
G03X32057Y114370I0J-2864D01*
G03X32363Y113081I2864J-1D01*
G02X32006Y112501I-357J-180D01*
G01X27994D01*
G02X27637Y113081I0J400D01*
G03X27943Y114370I-2558J1288D01*
G03X22215I-2864J0D01*
G03X22521Y113081I2864J-1D01*
G02X22164Y112501I-357J-180D01*
G01X19186D01*
G03X15224I-1981J-2067D01*
G01X-49841D01*
X-54555Y117214D01*
X-54511Y117334D01*
G03X-54341Y118307I-2694J972D01*
G03X-60069I-2864J0D01*
G03X-59112Y116170I2864J0D01*
G02X-59378Y115472I-266J-298D01*
G01X-62435D01*
G03X-65079Y117234I-2644J-1103D01*
G03X-67943Y114370I0J-2864D01*
G03X-67637Y113081I2864J-1D01*
G02X-67994Y112501I-357J-180D01*
G01X-72006D01*
G02X-72363Y113081I0J400D01*
G03X-72057Y114370I-2558J1288D01*
G03X-74921Y117234I-2864J0D01*
G03X-77565Y115472I0J-2865D01*
G01X-80622D01*
G02X-80888Y116170I0J400D01*
G03X-79931Y118307I-1907J2137D01*
G03X-85659I-2864J0D01*
G03X-85452Y117238I2864J0D01*
G01X-85403Y117116D01*
X-89708Y112810D01*
G03X-89868Y112601I708J-708D01*
G01X-89926Y112501D01*
X-148898D01*
Y114464D01*
G03X-149221Y115243I-1101J0D01*
G01X-153064Y119086D01*
G03X-153843Y119408I-778J-779D01*
G01X-154561D01*
G03X-157205Y121171I-2644J-1101D01*
G03X-160069Y118307I0J-2864D01*
G03X-159112Y116170I2864J0D01*
G02X-159378Y115472I-266J-298D01*
G01X-162435D01*
G03X-165079Y117234I-2644J-1103D01*
G03X-167943Y114370I0J-2864D01*
G03X-167637Y113081I2864J-1D01*
G02X-167994Y112501I-357J-180D01*
G01X-171494D01*
X-172271Y113277D01*
X-172227Y113397D01*
G03X-172057Y114370I-2694J972D01*
G03X-177785I-2864J0D01*
G03X-177479Y113081I2864J-1D01*
G02X-177836Y112501I-357J-180D01*
G01X-180814D01*
G03X-181945Y113168I-1982J-2068D01*
G02X-182109Y113833I118J382D01*
G01X-182016Y113926D01*
G03X-181694Y114705I-779J778D01*
G01Y115663D01*
G03X-179931Y118307I-1101J2644D01*
G03X-185659I-2864J0D01*
G03X-183896Y115663I2864J0D01*
G01Y115161D01*
X-184061Y114996D01*
X-184898D01*
G03X-185677Y114674I-1J-1101D01*
G01X-187850Y112501D01*
X-246479D01*
X-253064Y119086D01*
G03X-253843Y119408I-778J-779D01*
G01X-254561D01*
G03X-257205Y121171I-2644J-1101D01*
G03X-260069Y118307I0J-2864D01*
G03X-259112Y116170I2864J0D01*
G02X-259378Y115472I-266J-298D01*
G01X-262435D01*
G03X-265079Y117234I-2644J-1103D01*
G03X-267943Y114370I0J-2864D01*
G03X-267637Y113081I2864J-1D01*
G02X-267994Y112501I-357J-180D01*
G01X-271494D01*
X-272271Y113277D01*
X-272227Y113397D01*
G03X-272057Y114370I-2694J972D01*
G03X-277785I-2864J0D01*
G03X-277479Y113081I2864J-1D01*
G02X-277836Y112501I-357J-180D01*
G01X-280814D01*
G03X-281945Y113168I-1982J-2068D01*
G02X-282109Y113833I118J382D01*
G01X-282016Y113926D01*
G03X-281694Y114705I-779J778D01*
G01Y115663D01*
G03X-279931Y118307I-1101J2644D01*
G03X-285659I-2864J0D01*
G03X-283896Y115663I2864J0D01*
G01Y115161D01*
X-284061Y114996D01*
X-284898D01*
G03X-285677Y114674I-1J-1101D01*
G01X-287850Y112501D01*
X-348443D01*
X-352650Y116708D01*
G03X-353429Y117030I-778J-779D01*
G01X-354371D01*
X-354555Y117214D01*
X-354511Y117334D01*
G03X-354341Y118307I-2694J972D01*
G03X-357205Y121171I-2864J0D01*
G03X-359853Y119399I0J-2865D01*
G03Y117215I149J-1092D01*
G03X-359112Y116170I2648J1092D01*
G02X-359378Y115472I-266J-298D01*
G01X-362435D01*
G03X-365079Y117234I-2644J-1103D01*
G03X-367943Y114370I0J-2864D01*
G03X-367637Y113081I2864J-1D01*
G02X-367994Y112501I-357J-180D01*
G01X-371494D01*
X-372271Y113277D01*
X-372227Y113397D01*
G03X-372057Y114370I-2694J972D01*
G03X-377785I-2864J0D01*
G03X-377479Y113081I2864J-1D01*
G02X-377836Y112501I-357J-180D01*
G01X-380814D01*
G03X-381945Y113168I-1982J-2068D01*
G02X-382109Y113833I118J382D01*
G01X-382016Y113926D01*
G03X-381694Y114705I-779J778D01*
G01Y115663D01*
G03X-379931Y118307I-1101J2644D01*
G03X-385659I-2864J0D01*
G03X-383896Y115663I2864J0D01*
G01Y115161D01*
X-384061Y114996D01*
X-384898D01*
G03X-385677Y114674I-1J-1101D01*
G01X-387850Y112501D01*
X-398499D01*
Y136998D01*
X-384840D01*
Y136062D01*
X-384893Y136005D01*
G03X-385659Y134055I2099J-1950D01*
G03X-379931I2864J0D01*
G01Y134093D01*
G02X-379531Y134498I400J5D01*
G01X-379498D01*
Y136998D01*
X-377607D01*
G03X-372235I2686J994D01*
G01X-367765D01*
G03X-362393I2686J994D01*
G01X-359348D01*
Y135956D01*
X-359396Y135900D01*
G03X-360069Y134055I2191J-1845D01*
G03X-354341I2864J0D01*
G03X-354488Y134961I-2864J0D01*
G01X-354498Y134992D01*
Y136998D01*
X-285312D01*
Y135421D01*
X-285335Y135378D01*
G03X-285659Y134055I2539J-1323D01*
G03X-279931I2864J0D01*
G01Y134093D01*
G02X-279531Y134498I400J5D01*
G01X-279498D01*
Y136998D01*
X-277607D01*
G03X-272235I2686J994D01*
G01X-267765D01*
G03X-262393I2686J994D01*
G01X-260450D01*
Y134498D01*
G02X-260069Y134093I-19J-399D01*
G01Y134055D01*
G03X-254341I2864J0D01*
G03X-254488Y134961I-2864J0D01*
G01X-254498Y134992D01*
Y136998D01*
X-184772D01*
Y136128D01*
X-184830Y136070D01*
G03X-185659Y134055I2034J-2015D01*
G03X-179931I2864J0D01*
G01Y134093D01*
G02X-179531Y134498I400J5D01*
G01X-179498D01*
Y136998D01*
X-177607D01*
G03X-172235I2686J994D01*
G01X-167765D01*
G03X-162393I2686J994D01*
G01X-158810D01*
Y136430D01*
X-158892Y136370D01*
G03X-160069Y134055I1688J-2315D01*
G03X-154341I2864J0D01*
G03X-154488Y134961I-2864J0D01*
G01X-154498Y134992D01*
Y136998D01*
X-84840D01*
G02X-84590Y136287I-1J-400D01*
G03X-85659Y134055I1796J-2232D01*
G03X-79931I2864J0D01*
G03X-81000Y136287I-2865J0D01*
G02X-80750Y136998I251J311D01*
G01X-77607D01*
G03X-72235I2686J994D01*
G01X-67765D01*
G03X-62393I2686J994D01*
G01X-59250D01*
G02X-59000Y136287I-1J-400D01*
G03X-60069Y134055I1796J-2232D01*
G03X-54341I2864J0D01*
G03X-55410Y136287I-2865J0D01*
G02X-55160Y136998I251J311D01*
G01X15160D01*
G02X15410Y136287I-1J-400D01*
G03X14341Y134055I1796J-2232D01*
G03X20069I2864J0D01*
G03X19000Y136287I-2865J0D01*
G02X19250Y136998I251J311D01*
G01X22393D01*
G03X27765I2686J994D01*
G01X32235D01*
G03X37607I2686J994D01*
G01X40750D01*
G02X41000Y136287I-1J-400D01*
G03X39931Y134055I1796J-2232D01*
G03X45659I2864J0D01*
G03X44590Y136287I-2865J0D01*
G02X44840Y136998I251J311D01*
G01X115160D01*
G02X115410Y136287I-1J-400D01*
G03X114341Y134055I1796J-2232D01*
G03X120069I2864J0D01*
G03X119000Y136287I-2865J0D01*
G02X119250Y136998I251J311D01*
G01X122393D01*
G03X127765I2686J994D01*
G01X132235D01*
G03X137607I2686J994D01*
G01X140750D01*
G02X141000Y136287I-1J-400D01*
G03X139931Y134055I1796J-2232D01*
G03X145659I2864J0D01*
G03X144590Y136287I-2865J0D01*
G02X144840Y136998I251J311D01*
G01X215160D01*
G02X215410Y136287I-1J-400D01*
G03X214341Y134055I1796J-2232D01*
G03X220069I2864J0D01*
G03X219000Y136287I-2865J0D01*
G02X219250Y136998I251J311D01*
G01X222393D01*
G03X227765I2686J994D01*
G01X232235D01*
G03X237607I2686J994D01*
G01X240750D01*
G02X241000Y136287I-1J-400D01*
G03X239931Y134055I1796J-2232D01*
G03X245659I2864J0D01*
G03X244590Y136287I-2865J0D01*
G02X244840Y136998I251J311D01*
G01X315160D01*
G02X315410Y136287I-1J-400D01*
G03X314341Y134055I1796J-2232D01*
G03X320069I2864J0D01*
G03X319000Y136287I-2865J0D01*
G02X319250Y136998I251J311D01*
G01X322393D01*
G03X327765I2686J994D01*
G01X332235D01*
G03X337607I2686J994D01*
G01X340750D01*
G02X341000Y136287I-1J-400D01*
G03X339931Y134055I1796J-2232D01*
G03X345659I2864J0D01*
G03X344590Y136287I-2865J0D01*
G02X344840Y136998I251J311D01*
G37*
G36*
G01X-398499Y193499D02*
X373499D01*
Y137501D01*
X338184D01*
G02X337784Y137912I0J400D01*
G03X337785Y137992I-2863J76D01*
G03X332057I-2864J0D01*
G03X332058Y137912I2864J-4D01*
G02X331658Y137501I-400J-11D01*
G01X328342D01*
G02X327942Y137912I0J400D01*
G03X327943Y137992I-2863J76D01*
G03X322215I-2864J0D01*
G03X322216Y137912I2864J-4D01*
G02X321816Y137501I-400J-11D01*
G01X238184D01*
G02X237784Y137912I0J400D01*
G03X237785Y137992I-2863J76D01*
G03X232057I-2864J0D01*
G03X232058Y137912I2864J-4D01*
G02X231658Y137501I-400J-11D01*
G01X228342D01*
G02X227942Y137912I0J400D01*
G03X227943Y137992I-2863J76D01*
G03X222215I-2864J0D01*
G03X222216Y137912I2864J-4D01*
G02X221816Y137501I-400J-11D01*
G01X138184D01*
G02X137784Y137912I0J400D01*
G03X137785Y137992I-2863J76D01*
G03X132057I-2864J0D01*
G03X132058Y137912I2864J-4D01*
G02X131658Y137501I-400J-11D01*
G01X128342D01*
G02X127942Y137912I0J400D01*
G03X127943Y137992I-2863J76D01*
G03X122215I-2864J0D01*
G03X122216Y137912I2864J-4D01*
G02X121816Y137501I-400J-11D01*
G01X38184D01*
G02X37784Y137912I0J400D01*
G03X37785Y137992I-2863J76D01*
G03X32057I-2864J0D01*
G03X32058Y137912I2864J-4D01*
G02X31658Y137501I-400J-11D01*
G01X28342D01*
G02X27942Y137912I0J400D01*
G03X27943Y137992I-2863J76D01*
G03X22215I-2864J0D01*
G03X22216Y137912I2864J-4D01*
G02X21816Y137501I-400J-11D01*
G01X-61816D01*
G02X-62216Y137912I0J400D01*
G03X-62215Y137992I-2863J76D01*
G03X-67943I-2864J0D01*
G03X-67942Y137912I2864J-4D01*
G02X-68342Y137501I-400J-11D01*
G01X-71658D01*
G02X-72058Y137912I0J400D01*
G03X-72057Y137992I-2863J76D01*
G03X-77785I-2864J0D01*
G03X-77784Y137912I2864J-4D01*
G02X-78184Y137501I-400J-11D01*
G01X-155001D01*
Y136775D01*
G02X-155622Y136442I-400J0D01*
G03X-157205Y136919I-1583J-2388D01*
G03X-157821Y136852I0J-2865D01*
G02X-158307Y137243I-86J391D01*
G01Y137501D01*
X-161816D01*
G02X-162216Y137912I0J400D01*
G03X-162215Y137992I-2863J76D01*
G03X-167943I-2864J0D01*
G03X-167942Y137912I2864J-4D01*
G02X-168342Y137501I-400J-11D01*
G01X-171658D01*
G02X-172058Y137912I0J400D01*
G03X-172057Y137992I-2863J76D01*
G03X-177785I-2864J0D01*
G03X-177784Y137912I2864J-4D01*
G02X-178184Y137501I-400J-11D01*
G01X-180001D01*
Y136274D01*
G02X-180694Y136002I-400J0D01*
G03X-182795Y136919I-2101J-1948D01*
G03X-183738Y136759I1J-2864D01*
G02X-184270Y137137I-132J378D01*
G01Y137501D01*
X-255001D01*
Y136775D01*
G02X-255622Y136442I-400J0D01*
G03X-257205Y136919I-1583J-2388D01*
G03X-259261Y136049I0J-2864D01*
G02X-259948Y136327I-287J278D01*
G01Y137501D01*
X-261816D01*
G02X-262216Y137912I0J400D01*
G03X-262215Y137992I-2863J76D01*
G03X-267943I-2864J0D01*
G03X-267942Y137912I2864J-4D01*
G02X-268342Y137501I-400J-11D01*
G01X-271658D01*
G02X-272058Y137912I0J400D01*
G03X-272057Y137992I-2863J76D01*
G03X-277785I-2864J0D01*
G03X-277784Y137912I2864J-4D01*
G02X-278184Y137501I-400J-11D01*
G01X-280001D01*
Y136274D01*
G02X-280694Y136002I-400J0D01*
G03X-282795Y136919I-2101J-1948D01*
G03X-284212Y136544I0J-2865D01*
G02X-284810Y136891I-198J347D01*
G01Y137501D01*
X-355001D01*
Y136775D01*
G02X-355622Y136442I-400J0D01*
G03X-357205Y136919I-1583J-2388D01*
G03X-358294Y136704I0J-2864D01*
G02X-358846Y137074I-152J370D01*
G01Y137501D01*
X-361816D01*
G02X-362216Y137912I0J400D01*
G03X-362215Y137992I-2863J76D01*
G03X-367943I-2864J0D01*
G03X-367942Y137912I2864J-4D01*
G02X-368342Y137501I-400J-11D01*
G01X-371658D01*
G02X-372058Y137912I0J400D01*
G03X-372057Y137992I-2863J76D01*
G03X-377785I-2864J0D01*
G03X-377784Y137912I2864J-4D01*
G02X-378184Y137501I-400J-11D01*
G01X-380001D01*
Y136274D01*
G02X-380694Y136002I-400J0D01*
G03X-382795Y136919I-2101J-1948D01*
G03X-383797Y136738I0J-2864D01*
G02X-384337Y137113I-140J375D01*
G01Y137501D01*
X-398499D01*
Y193499D01*
G37*
G36*
G01X-107500Y-120000D02*
X-27500D01*
Y-122500D01*
X-40000Y-135000D01*
Y-157500D01*
X-45000Y-162500D01*
Y-182500D01*
X-50000D01*
Y-170000D01*
X-75000D01*
X-107500Y-137500D01*
Y-120000D01*
G37*
G36*
G01X287500Y-62500D02*
X319347D01*
Y-82500D01*
X336076D01*
Y-102559D01*
G03X336545Y-103691I1601J0D01*
G01X336669Y-103816D01*
G02X336386Y-104498I-283J-282D01*
G01X304834D01*
Y-105000D01*
X255000D01*
Y-117500D01*
X205000D01*
Y-95000D01*
X287500D01*
Y-62500D01*
G37*
G36*
G01X230000Y-80000D02*
X247500Y-62500D01*
X285000D01*
Y-82500D01*
X232500D01*
X230000Y-80000D01*
G37*
G36*
G01X295000Y32500D02*
Y-10000D01*
X230000D01*
Y32500D01*
X295000D01*
G37*
G36*
G01X345001Y-62501D02*
X373499D01*
Y-152499D01*
X305001D01*
Y-125001D01*
X305337D01*
Y-105001D01*
X337499D01*
Y-117501D01*
X352501D01*
Y-82500D01*
X347500Y-77499D01*
X345001D01*
Y-62501D01*
G37*
G36*
G01X325000Y-35000D02*
X347500D01*
Y-60000D01*
X327029D01*
X325658Y-58630D01*
G03X325125Y-58277I-1133J-1132D01*
G01X325000Y-58226D01*
Y-35000D01*
G37*
%LPC*%
G75*
G36*
G01X350798Y-56201D02*
Y-48327D01*
G02X351299Y-47826I501J0D01*
G01X363701D01*
G02X364202Y-48327I0J-501D01*
G01Y-56201D01*
G02X363701Y-56702I-501J0D01*
G01X351299D01*
G02X350798Y-56201I0J501D01*
G37*
G36*
G01X-69392Y-159380D02*
G03X-69077Y-158734I0J400D01*
G02X-69502Y-157500I1577J1233D01*
G02X-65498I2002J0D01*
G02X-65923Y-158734I-2002J-1D01*
G03X-65608Y-159380I315J-246D01*
G01X-65532D01*
G02X-65030Y-159882I0J-502D01*
G01Y-163818D01*
G02X-65532Y-164320I-502J0D01*
G01X-69468D01*
G02X-69970Y-163818I-1J501D01*
G01Y-159882D01*
G02X-69468Y-159380I502J0D01*
G01X-69392D01*
G37*
G36*
G01X288298Y-76201D02*
Y-63799D01*
G02X288799Y-63298I501J0D01*
G01X296673D01*
G02X297174Y-63799I0J-501D01*
G01Y-76201D01*
G02X296673Y-76702I-501J0D01*
G01X288799D01*
G02X288298Y-76201I0J501D01*
G37*
G36*
G01X272826D02*
Y-63799D01*
G02X273327Y-63298I501J0D01*
G01X281201D01*
G02X281702Y-63799I0J-501D01*
G01Y-76201D01*
G02X281201Y-76702I-501J0D01*
G01X273327D01*
G02X272826Y-76201I0J501D01*
G37*
G36*
G01X350798Y-71673D02*
Y-63799D01*
G02X351299Y-63298I501J0D01*
G01X363701D01*
G02X364202Y-63799I0J-501D01*
G01Y-71673D01*
G02X363701Y-72174I-501J0D01*
G01X351299D01*
G02X350798Y-71673I0J501D01*
G37*
G36*
G01X328298Y-58701D02*
Y-46299D01*
G02X328799Y-45798I501J0D01*
G01X336673D01*
G02X337174Y-46299I0J-501D01*
G01Y-58701D01*
G02X336673Y-59202I-501J0D01*
G01X328799D01*
G02X328298Y-58701I0J501D01*
G37*
G54D33*
X25079Y122244D03*
X34921D03*
X17205Y126181D03*
X25079Y130118D03*
X42795Y126181D03*
X34921Y130118D03*
X17205Y118307D03*
X325079Y122244D03*
X334921D03*
X317205Y126181D03*
X325079Y130118D03*
X342795Y126181D03*
X334921Y130118D03*
X225079Y122244D03*
X234921D03*
X217205Y126181D03*
X225079Y130118D03*
X242795Y126181D03*
X234921Y130118D03*
X125079Y122244D03*
X134921D03*
X117205Y126181D03*
X125079Y130118D03*
X142795Y126181D03*
X134921Y130118D03*
X-74921Y122244D03*
X-65079D03*
X-82795Y126181D03*
X-74921Y130118D03*
X-57205Y126181D03*
X-65079Y130118D03*
X-174921Y122244D03*
X-165079D03*
X-182795Y126181D03*
X-174921Y130118D03*
X-157205Y126181D03*
X-165079Y130118D03*
X-274921Y122244D03*
X-265079D03*
X-282795Y126181D03*
X-274921Y130118D03*
X-257205Y126181D03*
X-265079Y130118D03*
X-374921Y122244D03*
X-365079D03*
X-382795Y126181D03*
X-374921Y130118D03*
X-357205Y126181D03*
X-365079Y130118D03*
X34921Y145866D03*
X17205Y141929D03*
X25079Y145866D03*
X42795Y141929D03*
X334921Y145866D03*
X317205Y141929D03*
X325079Y145866D03*
X342795Y141929D03*
X234921Y145866D03*
X217205Y141929D03*
X225079Y145866D03*
X242795Y141929D03*
X134921Y145866D03*
X117205Y141929D03*
X125079Y145866D03*
X142795Y141929D03*
X-65079Y145866D03*
X-82795Y141929D03*
X-74921Y145866D03*
X-57205Y141929D03*
X-165079Y145866D03*
X-182795Y141929D03*
X-174921Y145866D03*
X-157205Y141929D03*
X-265079Y145866D03*
X-282795Y141929D03*
X-274921Y145866D03*
X-257205Y141929D03*
X-365079Y145866D03*
X-382795Y141929D03*
X-374921Y145866D03*
X-357205Y141929D03*
G54D35*
X230197Y-110827D03*
X246732D03*
X213661D03*
X329409Y-89173D03*
X312874D03*
X296339D03*
X329409Y-110827D03*
X312874D03*
G54D34*
X-330000Y170000D03*
X290000D03*
X85000D03*
X-120000D03*
%LPD*%
G75*
G54D10*
G01X110000Y-62500D02*
X92500D01*
X72500Y-82500D01*
X-77500D01*
X-79500Y-80500D01*
X-202200D01*
X-203140Y-81440D01*
X-207383D01*
X-211323Y-77500D01*
X-330000D01*
X-335000Y-82500D01*
Y-109500D01*
X-332000Y-112500D01*
X-327500D01*
G01X-142500Y-142500D02*
X-177500D01*
X-180650Y-139350D01*
G01D02*
Y-127500D01*
G01X-120000Y-142500D02*
X-142500D01*
G01X-110000D02*
X-120000D01*
G01X-110000D02*
X-97500D01*
G01X110000Y-62500D02*
X225000D01*
X241300Y-46200D01*
X308992D01*
X309792Y-45400D01*
X310498D01*
X325898Y-30000D01*
X330000D01*
X-385000Y-17500D03*
X-395000D03*
X-382500Y-5000D03*
X-357500Y-17500D03*
X-367500Y-25000D03*
Y-32500D03*
X-362500Y-29900D03*
Y-37500D03*
X-352500Y42500D03*
X-335000Y-40100D03*
Y-24900D03*
X-330000Y-40100D03*
Y-24900D03*
X-325000D03*
Y-40100D03*
X-342500Y42500D03*
X-295000D03*
X-297500Y47500D03*
X-270469Y-135000D03*
X-277500Y-92500D03*
X-270000Y-17400D03*
Y-24900D03*
X-280000Y7500D03*
X-267500Y-130252D03*
X-245000Y-117500D03*
X-262500Y-87500D03*
X-255000Y-17400D03*
Y-24900D03*
X-262500Y-17400D03*
Y-40100D03*
X-247400Y7500D03*
X-245000Y42500D03*
X-230000Y-120000D03*
Y-125000D03*
X-225000Y-130000D03*
X-220000Y-137500D03*
X-217500Y-140000D03*
X-239350Y-138150D03*
X-235000Y-95000D03*
Y-90000D03*
X-230000Y-72500D03*
X-239350Y-45650D03*
X-225100Y-40100D03*
X-219900D03*
X-240000Y47500D03*
X-212500Y-162500D03*
X-207500Y-160000D03*
X-192500Y-132500D03*
X-212500Y-142400D03*
X-205777Y-139599D03*
X-200000Y-137500D03*
X-212500Y-90000D03*
X-207500Y-92500D03*
X-210000Y-72500D03*
X-205000Y-77500D03*
X-202500Y-70000D03*
X-200000Y-84100D03*
Y-90000D03*
X-215000Y-45000D03*
Y-67500D03*
X-197500Y42500D03*
Y47500D03*
X-185000Y-150000D03*
Y-120000D03*
X-175000Y-132500D03*
X-180000Y-122500D03*
X-182600Y-117400D03*
X-177500Y-110000D03*
X-187500Y-52500D03*
X-182600Y-48465D03*
X-180000Y-62500D03*
X-167500Y-40100D03*
Y-4900D03*
X-172500D03*
Y-12400D03*
X-185000Y32500D03*
X-152500Y-152500D03*
X-142500Y-137500D03*
X-162500Y-4900D03*
Y-12400D03*
X-149900Y32500D03*
X-147500Y42500D03*
X-142500Y47500D03*
X-67500Y-157500D03*
X-77388Y-40100D03*
Y100D03*
X-80000Y42500D03*
Y47500D03*
X-72500Y57500D03*
X-82500Y60000D03*
X-59567Y-175433D03*
X-52933D03*
X-57500Y-182500D03*
X-52500Y52500D03*
Y42500D03*
X-56250Y56250D03*
X-45000Y60000D03*
X-60000D03*
X-52500Y105000D03*
X-27500Y-162500D03*
X-37500Y57500D03*
X-32500Y65000D03*
Y60000D03*
X17500Y105000D03*
X55095Y-97500D03*
X57051Y-90000D03*
X62500Y60000D03*
X60000Y77500D03*
Y97600D03*
X65000Y52500D03*
Y80000D03*
Y97600D03*
X125000Y-132500D03*
X135000Y-42600D03*
Y-14900D03*
X130472Y72972D03*
X130000Y87028D03*
X172500Y-42600D03*
Y-14900D03*
X197500Y-17500D03*
X207500D03*
X199900Y40000D03*
Y45000D03*
X222612Y-42600D03*
Y-22500D03*
X232500Y5000D03*
Y0D03*
Y-5000D03*
Y30000D03*
Y25000D03*
Y20000D03*
Y15000D03*
Y10000D03*
X220100Y40000D03*
X222700Y45000D03*
X250000Y-70000D03*
X257500D03*
X265000D03*
X250000Y-75000D03*
X257500D03*
X265000D03*
Y-65000D03*
X257500D03*
X250000D03*
X307500Y-42600D03*
Y-25000D03*
X297500D03*
X307500Y-35000D03*
X292500Y-5000D03*
Y0D03*
Y5000D03*
Y10000D03*
Y15000D03*
Y20000D03*
Y25000D03*
Y30000D03*
X302400Y40000D03*
Y45000D03*
X330000Y-42500D03*
X335000D03*
X340000D03*
X327500Y-37500D03*
X332500D03*
X337500D03*
X342500D03*
X320100Y40000D03*
X322700Y45000D03*
X345000Y-42500D03*
X355000Y140000D03*
X360000D03*
X365000D03*
X367500Y145000D03*
X362500D03*
X357500D03*
X352500D03*
X370000Y140000D03*
G54D11*
X-374921Y75000D03*
Y82874D03*
X-382795Y71063D03*
Y78937D03*
X-374921Y90748D03*
X-382795Y86811D03*
Y94685D03*
Y110433D03*
X-374921Y106496D03*
X-382795Y118307D03*
Y126181D03*
Y134055D03*
X-374921Y114370D03*
Y122244D03*
Y130118D03*
X-382795Y141929D03*
X-374921Y137992D03*
Y145866D03*
X-365079Y75000D03*
Y82874D03*
X-357205Y71063D03*
Y78937D03*
X-365079Y90748D03*
X-357205Y86811D03*
Y94685D03*
Y110433D03*
X-365079Y106496D03*
X-357205Y118307D03*
Y126181D03*
Y134055D03*
X-365079Y114370D03*
Y122244D03*
Y130118D03*
X-357205Y141929D03*
X-365079Y137992D03*
Y145866D03*
X-274921Y75000D03*
Y82874D03*
X-282795Y71063D03*
Y78937D03*
X-274921Y90748D03*
X-282795Y86811D03*
Y94685D03*
Y110433D03*
X-274921Y106496D03*
X-282795Y118307D03*
Y126181D03*
Y134055D03*
X-274921Y114370D03*
Y122244D03*
Y130118D03*
X-282795Y141929D03*
X-274921Y137992D03*
Y145866D03*
X-265079Y75000D03*
Y82874D03*
X-257205Y71063D03*
Y78937D03*
X-265079Y90748D03*
X-257205Y86811D03*
Y94685D03*
Y110433D03*
X-265079Y106496D03*
X-257205Y118307D03*
Y126181D03*
Y134055D03*
X-265079Y114370D03*
Y122244D03*
Y130118D03*
X-257205Y141929D03*
X-265079Y137992D03*
Y145866D03*
X-165079Y75000D03*
Y82874D03*
X-174921Y75000D03*
Y82874D03*
X-182795Y71063D03*
Y78937D03*
X-165079Y90748D03*
X-174921D03*
X-182795Y86811D03*
Y94685D03*
Y110433D03*
X-174921Y106496D03*
X-165079D03*
X-182795Y118307D03*
Y126181D03*
Y134055D03*
X-174921Y114370D03*
Y122244D03*
Y130118D03*
X-165079Y114370D03*
Y122244D03*
Y130118D03*
X-182795Y141929D03*
X-174921Y137992D03*
Y145866D03*
X-165079Y137992D03*
Y145866D03*
X-157205Y71063D03*
Y78937D03*
Y86811D03*
Y94685D03*
Y110433D03*
Y118307D03*
Y126181D03*
Y134055D03*
Y141929D03*
X-65079Y75000D03*
Y82874D03*
X-74921Y75000D03*
Y82874D03*
X-82795Y71063D03*
Y78937D03*
X-65079Y90748D03*
X-74921D03*
X-82795Y86811D03*
Y94685D03*
Y110433D03*
X-74921Y106496D03*
X-65079D03*
X-82795Y118307D03*
Y126181D03*
Y134055D03*
X-74921Y114370D03*
Y122244D03*
Y130118D03*
X-65079Y114370D03*
Y122244D03*
Y130118D03*
X-82795Y141929D03*
X-74921Y137992D03*
Y145866D03*
X-65079Y137992D03*
Y145866D03*
X-57205Y71063D03*
Y78937D03*
Y86811D03*
Y94685D03*
Y110433D03*
Y118307D03*
Y126181D03*
Y134055D03*
Y141929D03*
X34921Y-50984D03*
Y-43110D03*
X25079Y-50984D03*
Y-43110D03*
X17205Y-47047D03*
X34921Y-35236D03*
Y-27362D03*
Y-19488D03*
X25079Y-35236D03*
Y-27362D03*
Y-19488D03*
X17205Y-39173D03*
Y-31299D03*
Y-23425D03*
X34921Y-11614D03*
Y-3740D03*
Y4134D03*
X25079Y-11614D03*
Y-3740D03*
Y4134D03*
X17205Y-15551D03*
Y-7677D03*
Y197D03*
Y8071D03*
X34921Y12008D03*
X25079D03*
X34921Y19882D03*
Y27756D03*
X25079Y19882D03*
Y27756D03*
X17205Y15945D03*
Y23819D03*
Y31693D03*
X34921Y35630D03*
Y43504D03*
Y51378D03*
Y59252D03*
X25079Y35630D03*
Y43504D03*
Y51378D03*
Y59252D03*
X17205Y39567D03*
Y47441D03*
Y55315D03*
X34921Y67126D03*
X25079D03*
X17205Y63189D03*
X34921Y75000D03*
Y82874D03*
X25079Y75000D03*
Y82874D03*
X17205Y71063D03*
Y78937D03*
X34921Y90748D03*
X25079D03*
X17205Y86811D03*
Y94685D03*
Y110433D03*
X25079Y106496D03*
X34921D03*
X17205Y118307D03*
Y126181D03*
Y134055D03*
X25079Y114370D03*
Y122244D03*
Y130118D03*
X34921Y114370D03*
Y122244D03*
Y130118D03*
X17205Y141929D03*
X25079Y137992D03*
Y145866D03*
X34921Y137992D03*
Y145866D03*
X42795Y-47047D03*
Y-39173D03*
Y-31299D03*
Y-23425D03*
Y-15551D03*
Y-7677D03*
Y197D03*
Y8071D03*
Y15945D03*
Y23819D03*
Y31693D03*
Y39567D03*
Y47441D03*
Y55315D03*
Y63189D03*
Y71063D03*
Y78937D03*
Y86811D03*
Y94685D03*
Y110433D03*
Y118307D03*
Y126181D03*
Y134055D03*
Y141929D03*
X134921Y75000D03*
Y82874D03*
X125079Y75000D03*
Y82874D03*
X117205Y71063D03*
Y78937D03*
X134921Y90748D03*
X125079D03*
X117205Y86811D03*
Y94685D03*
Y110433D03*
X125079Y106496D03*
X134921D03*
X117205Y118307D03*
Y126181D03*
Y134055D03*
X125079Y114370D03*
Y122244D03*
Y130118D03*
X134921Y114370D03*
Y122244D03*
Y130118D03*
X117205Y141929D03*
X125079Y137992D03*
Y145866D03*
X134921Y137992D03*
Y145866D03*
X142795Y71063D03*
Y78937D03*
Y86811D03*
Y94685D03*
Y110433D03*
Y118307D03*
Y126181D03*
Y134055D03*
Y141929D03*
X234921Y75000D03*
Y82874D03*
X225079Y75000D03*
Y82874D03*
X217205Y71063D03*
Y78937D03*
X234921Y90748D03*
X225079D03*
X217205Y86811D03*
Y94685D03*
Y110433D03*
X225079Y106496D03*
X234921D03*
X217205Y118307D03*
Y126181D03*
Y134055D03*
X225079Y114370D03*
Y122244D03*
Y130118D03*
X234921Y114370D03*
Y122244D03*
Y130118D03*
X217205Y141929D03*
X225079Y137992D03*
Y145866D03*
X234921Y137992D03*
Y145866D03*
X242795Y71063D03*
Y78937D03*
Y86811D03*
Y94685D03*
Y110433D03*
Y118307D03*
Y126181D03*
Y134055D03*
Y141929D03*
X317205Y71063D03*
Y78937D03*
Y86811D03*
Y94685D03*
Y110433D03*
Y118307D03*
Y126181D03*
Y134055D03*
Y141929D03*
X334921Y75000D03*
Y82874D03*
X325079Y75000D03*
Y82874D03*
X342795Y71063D03*
Y78937D03*
X334921Y90748D03*
X325079D03*
X342795Y86811D03*
Y94685D03*
X325079Y106496D03*
X342795Y110433D03*
X334921Y106496D03*
X325079Y114370D03*
Y122244D03*
Y130118D03*
X342795Y118307D03*
Y126181D03*
Y134055D03*
X334921Y114370D03*
Y122244D03*
Y130118D03*
X325079Y137992D03*
Y145866D03*
X342795Y141929D03*
X334921Y137992D03*
Y145866D03*
G54D20*
G01X296339Y-110827D02*
Y-123661D01*
X280000Y-140000D01*
X-22500D01*
X-32500Y-150000D01*
Y-160000D01*
X-38445Y-165945D01*
Y-175433D01*
X-147500Y-120000D03*
Y-125000D03*
X-142500Y-120000D03*
X-147500Y-105000D03*
Y-110000D03*
Y-115000D03*
X-142500Y-105000D03*
Y-110000D03*
Y-115000D03*
G54D30*
G01X-216752Y-91496D02*
X-218524Y-93268D01*
G01X-216752Y-91496D02*
X-218248Y-90000D01*
X-235000D01*
G01X-215374Y-92874D02*
X-216752Y-91496D01*
G01X21142Y114226D02*
Y100240D01*
G54D12*
X-327500Y-132500D03*
Y-122500D03*
Y-112500D03*
X-315000Y102500D03*
X100000Y-105000D03*
Y-95000D03*
Y-85000D03*
X182500Y102500D03*
G54D21*
X-142500Y-125000D03*
G54D31*
G01X164055Y-89173D02*
Y-110827D01*
G01D02*
X180591D01*
G01X164055Y-89173D02*
Y-78445D01*
X170000Y-72500D01*
X227500D01*
X246700Y-53300D01*
X311933D01*
X312733Y-52500D01*
X317264D01*
G54D22*
X-56555Y-175433D03*
X-38445D03*
X-47500D03*
G54D13*
X-327500Y-102500D03*
X-325000Y102500D03*
X100000Y-75000D03*
X172500Y102500D03*
G54D32*
G01X-374921Y127054D02*
Y130118D01*
G01D02*
Y133182D01*
G01X-377985Y130118D02*
X-374921D01*
G01D02*
X-371857D01*
G01X-382795Y123117D02*
Y126181D01*
G01D02*
Y129245D01*
G01X-385859Y126181D02*
X-382795D01*
G01D02*
X-379731D01*
G01X-382795Y134055D02*
Y137119D01*
G01X-365079Y127054D02*
Y130118D01*
G01D02*
Y133182D01*
G01X-368143Y130118D02*
X-365079D01*
G01D02*
X-362015D01*
G01X-357205Y123117D02*
Y126181D01*
G01D02*
Y129245D01*
G01X-360269Y126181D02*
X-357205D01*
G01D02*
X-354141D01*
G01X-357205Y134055D02*
Y137119D01*
G01X-276850Y-115000D02*
Y-119041D01*
X-275000Y-120891D01*
Y-123563D01*
G01X-277500Y-103150D02*
X-273301D01*
X-272022Y-104429D01*
X-267382D01*
G01X-274921Y127054D02*
Y130118D01*
G01D02*
Y133182D01*
G01X-277985Y130118D02*
X-274921D01*
G01D02*
X-271857D01*
G01X-282795Y123117D02*
Y126181D01*
G01D02*
Y129245D01*
G01X-285859Y126181D02*
X-282795D01*
G01D02*
X-279731D01*
G01X-282795Y134055D02*
Y137119D01*
G01X-224232Y-110276D02*
X-259960D01*
X-265807Y-104429D01*
X-267382D01*
G01X-251850Y-87500D02*
Y-91737D01*
X-252618Y-92505D01*
Y-95571D01*
G01D02*
X-246929D01*
X-242500Y-100000D01*
Y-102500D01*
X-237874Y-107126D01*
X-224232D01*
G01X-245000Y42500D02*
X-197500D01*
G01X-257205Y123117D02*
Y126181D01*
G01D02*
Y129245D01*
G01X-260269Y126181D02*
X-257205D01*
G01D02*
X-254141D01*
G01X-265079Y127054D02*
Y130118D01*
G01D02*
Y133182D01*
G01X-268143Y130118D02*
X-265079D01*
G01D02*
X-262015D01*
G01X-257205Y134055D02*
Y137119D01*
G01X-240000Y47500D02*
X-197500D01*
G01X-185000Y-120000D02*
X-176498D01*
X-161498Y-135000D01*
X-127500D01*
X-125000Y-132500D01*
X-113150D01*
X-110000Y-129350D01*
G01X-182600Y-117400D02*
X-175100D01*
X-160000Y-132500D01*
X-126980D01*
X-123830Y-129350D01*
X-120000D01*
G01X-147500Y-125000D02*
X-157500D01*
X-175374Y-107126D01*
X-190768D01*
G01X-147500Y-120000D02*
X-157500D01*
X-173524Y-103976D01*
X-190768D01*
G01X-168143Y130118D02*
X-165079D01*
G01X-174921Y127054D02*
Y130118D01*
G01D02*
Y133182D01*
G01X-177985Y130118D02*
X-174921D01*
G01D02*
X-171857D01*
G01X-182795Y123117D02*
Y126181D01*
G01D02*
Y129245D01*
G01X-185859Y126181D02*
X-182795D01*
G01D02*
X-179731D01*
G01X-182795Y134055D02*
Y137119D01*
G01X-142500Y-137500D02*
Y-142500D01*
G01X-147500Y42500D02*
X-80000D01*
G01X-142500Y47500D02*
X-80000D01*
G01X-165079Y127054D02*
Y130118D01*
G01D02*
Y133182D01*
G01Y130118D02*
X-162015D01*
G01X-157205Y123117D02*
Y126181D01*
G01D02*
Y129245D01*
G01X-160269Y126181D02*
X-157205D01*
G01D02*
X-154141D01*
G01X-157205Y134055D02*
Y137119D01*
G01X-120000Y-135650D02*
Y-142500D01*
G01X-110000Y-135650D02*
Y-142500D01*
G01X-82500Y60000D02*
X-89000Y66500D01*
Y112102D01*
X-82795Y118307D01*
G01X-68143Y130118D02*
X-65079D01*
G01X-74921Y127054D02*
Y130118D01*
G01D02*
Y133182D01*
G01X-77985Y130118D02*
X-74921D01*
G01D02*
X-71857D01*
G01X-82795Y123117D02*
Y126181D01*
G01D02*
Y129245D01*
G01X-85859Y126181D02*
X-82795D01*
G01D02*
X-79731D01*
G01X-52500Y52500D02*
Y42500D01*
G01X-65079Y127054D02*
Y130118D01*
G01D02*
Y133182D01*
G01Y130118D02*
X-62015D01*
G01X-57205Y123117D02*
Y126181D01*
G01D02*
Y129245D01*
G01X-60269Y126181D02*
X-57205D01*
G01D02*
X-54141D01*
G01X34921Y127054D02*
Y130118D01*
G01D02*
Y133182D01*
G01X31857Y130118D02*
X34921D01*
G01D02*
X37985D01*
G01X25079Y127054D02*
Y130118D01*
G01D02*
Y133182D01*
G01X22015Y130118D02*
X25079D01*
G01D02*
X28143D01*
G01X17205Y123117D02*
Y126181D01*
G01D02*
Y129245D01*
G01X14141Y126181D02*
X17205D01*
G01D02*
X20269D01*
G01X60000Y-101437D02*
X48937D01*
X47500Y-100000D01*
X43150D01*
G01X42795Y123117D02*
Y126181D01*
G01D02*
Y129245D01*
G01X39731Y126181D02*
X42795D01*
G01D02*
X45859D01*
G01X134921Y127054D02*
Y130118D01*
G01D02*
Y133182D01*
G01X131857Y130118D02*
X134921D01*
G01D02*
X137985D01*
G01X125079Y127054D02*
Y130118D01*
G01D02*
Y133182D01*
G01X122015Y130118D02*
X125079D01*
G01D02*
X128143D01*
G01X117205Y123117D02*
Y126181D01*
G01D02*
Y129245D01*
G01X114141Y126181D02*
X117205D01*
G01D02*
X120269D01*
G01X154343Y-125657D02*
Y-125824D01*
G01X142795Y123117D02*
Y126181D01*
G01D02*
Y129245D01*
G01X139731Y126181D02*
X142795D01*
G01D02*
X145859D01*
G01X213661Y-115860D02*
Y-110827D01*
G01D02*
Y-105794D01*
G01X208628Y-110827D02*
X213661D01*
G01D02*
X218694D01*
G01X214141Y126181D02*
X217205D01*
G01X239731D02*
X242795D01*
G01X217205Y123117D02*
Y126181D01*
G01D02*
Y129245D01*
G01Y126181D02*
X220269D01*
G01X234921Y127054D02*
Y130118D01*
G01D02*
Y133182D01*
G01X231857Y130118D02*
X234921D01*
G01D02*
X237985D01*
G01X225079Y127054D02*
Y130118D01*
G01D02*
Y133182D01*
G01X222015Y130118D02*
X225079D01*
G01D02*
X228143D01*
G01X246732Y-115860D02*
Y-110827D01*
G01D02*
Y-105794D01*
G01X241699Y-110827D02*
X246732D01*
G01D02*
X251765D01*
G01X242795Y123117D02*
Y126181D01*
G01D02*
Y129245D01*
G01Y126181D02*
X245859D01*
G01X277264Y-76903D02*
Y-70000D01*
G01D02*
Y-63097D01*
G01X272625Y-70000D02*
X277264D01*
G01D02*
X281903D01*
G01X288097D02*
X292736D01*
G01X312874Y-115860D02*
Y-110827D01*
G01D02*
Y-105794D01*
G01X307841Y-110827D02*
X312874D01*
G01D02*
X317907D01*
G01X312874Y-94206D02*
Y-89173D01*
G01D02*
Y-84140D01*
G01X307841Y-89173D02*
X312874D01*
G01D02*
X317907D01*
G01X292736Y-76903D02*
Y-70000D01*
G01D02*
Y-63097D01*
G01Y-70000D02*
X297375D01*
G01X296339Y-94206D02*
Y-89173D01*
G01D02*
Y-84140D01*
G01X291306Y-89173D02*
X296339D01*
G01D02*
X301372D01*
G01X314141Y126181D02*
X317205D01*
G01X329409Y-115860D02*
Y-110827D01*
G01D02*
Y-105794D01*
G01X324376Y-110827D02*
X329409D01*
G01D02*
X334442D01*
G01X329409Y-94206D02*
Y-89173D01*
G01D02*
Y-84140D01*
G01X324376Y-89173D02*
X329409D01*
G01D02*
X334442D01*
G01X332736Y-59403D02*
Y-52500D01*
G01D02*
Y-45597D01*
G01X328097Y-52500D02*
X332736D01*
G01D02*
X337375D01*
G01X334921Y127054D02*
Y130118D01*
G01D02*
Y133182D01*
G01X331857Y130118D02*
X334921D01*
G01D02*
X337985D01*
G01X339731Y126181D02*
X342795D01*
G01X325079Y127054D02*
Y130118D01*
G01D02*
Y133182D01*
G01X322015Y130118D02*
X325079D01*
G01D02*
X328143D01*
G01X317205Y123117D02*
Y126181D01*
G01D02*
Y129245D01*
G01Y126181D02*
X320269D01*
G01X357500Y-72375D02*
Y-67736D01*
G01Y-56903D02*
Y-52264D01*
G01D02*
Y-47625D01*
G01X350597Y-52264D02*
X357500D01*
G01D02*
X364403D01*
G01X357500Y-67736D02*
Y-63097D01*
G01X350597Y-67736D02*
X357500D01*
G01D02*
X364403D01*
G01X342795Y123117D02*
Y126181D01*
G01D02*
Y129245D01*
G01Y126181D02*
X345859D01*
G54D14*
X-275000Y-123563D03*
X-271260Y-131437D03*
X-278740D03*
X60000Y-101437D03*
X56260Y-93563D03*
X63740D03*
G54D23*
X-47500Y-154567D03*
G54D15*
X-277500Y-103150D03*
Y-96850D03*
X-276850Y-115000D03*
X-283150D03*
X-251850Y-87500D03*
X-258150D03*
X-235000Y-131850D03*
Y-138150D03*
X-238150Y-100000D03*
X-231850D03*
X-240650Y-117500D03*
X-234350D03*
X-174350Y-127500D03*
X-180650D03*
X-190000Y-143150D03*
Y-136850D03*
X-120000Y-129350D03*
Y-135650D03*
X-110000Y-129350D03*
Y-135650D03*
X-67500Y-161850D03*
Y-168150D03*
X-27500Y-173150D03*
Y-166850D03*
X36850Y-100000D03*
X43150D03*
X135650Y-132500D03*
X129350D03*
X149350D03*
X155650D03*
G54D24*
X164055Y-110827D03*
G54D16*
X-267382Y-95571D03*
X-252618D03*
Y-104429D03*
G54D25*
X164055Y-89173D03*
X180591Y-110827D03*
Y-89173D03*
X213661Y-110827D03*
X197126D03*
X213661Y-89173D03*
X197126D03*
X230197Y-110827D03*
Y-89173D03*
X263268Y-110827D03*
X246732D03*
X263268Y-89173D03*
X246732D03*
X279803Y-110827D03*
Y-89173D03*
X312874Y-110827D03*
X296339D03*
X312874Y-89173D03*
X296339D03*
X329409Y-110827D03*
Y-89173D03*
X345945Y-110827D03*
Y-89173D03*
G54D17*
X-267382Y-104429D03*
G54D26*
X277264Y-70000D03*
X292736D03*
X317264Y-52500D03*
X332736D03*
G54D18*
X-218524Y-131732D03*
Y-98268D03*
X-196476Y-131732D03*
X-199626D03*
X-202776D03*
X-205925D03*
X-209075D03*
X-212224D03*
X-215374D03*
Y-98268D03*
X-212224D03*
X-209075D03*
X-205925D03*
X-202776D03*
X-199626D03*
X-196476D03*
G54D27*
X357500Y-67736D03*
Y-52264D03*
G54D28*
G01X25079Y4134D02*
X-866D01*
X-37500Y-32500D01*
X-363822D01*
X-366422Y-29900D01*
X-367600D01*
X-392500Y-5000D01*
Y100728D01*
X-382795Y110433D01*
G01X-367500Y-25000D02*
X-387500Y-5000D01*
Y71923D01*
X-384423Y75000D01*
X-380826D01*
X-378858Y76968D01*
Y102559D01*
X-374921Y106496D01*
G01X-230000Y-72500D02*
X-340000D01*
X-395000Y-17500D01*
G01X-385000D02*
X-387500D01*
X-395000Y-10000D01*
Y103793D01*
X-384898Y113895D01*
X-383605D01*
X-382795Y114705D01*
Y118307D01*
G01X-382500Y-5000D02*
X-377388Y112D01*
Y72533D01*
X-374921Y75000D01*
G01X-362500Y-29900D02*
Y65944D01*
X-370000Y73444D01*
Y85827D01*
X-374921Y90748D01*
G01X17205Y8071D02*
X-1929D01*
X-40000Y-30000D01*
X-352500D01*
X-360667Y-21833D01*
Y108167D01*
X-363408Y110908D01*
X-371459D01*
X-374921Y114370D01*
G01X25079Y12008D02*
X-2992D01*
X-42500Y-27500D01*
X-347500D01*
X-357500Y-17500D01*
G01X17205Y197D02*
X197D01*
X-34900Y-34900D01*
X-365100D01*
X-367500Y-32500D01*
G01X-362500Y-37500D02*
X-32500D01*
X-2677Y-7677D01*
X17205D01*
G01X-352500Y42500D02*
Y5000D01*
X-335000Y-12500D01*
Y-24900D01*
G01X-347500Y110000D02*
Y4999D01*
X-330000Y-12501D01*
Y-24900D01*
G01X-325000Y102500D02*
X-345000Y82500D01*
Y43678D01*
X-345100Y43578D01*
Y41422D01*
X-345000Y41322D01*
Y7500D01*
X-328400Y-9100D01*
Y-21500D01*
X-325000Y-24900D01*
G01X-352500Y42500D02*
Y110625D01*
X-356245Y114370D01*
X-365079D01*
G01X-357205Y118307D02*
X-359705D01*
G01X-297500Y47500D02*
Y102500D01*
X-305000Y110000D01*
X-347500D01*
G01D02*
X-353429Y115929D01*
X-354827D01*
X-357205Y118307D01*
G01X-327500Y-122500D02*
X-307500D01*
X-294823Y-135177D01*
X-277577D01*
X-275000Y-132600D01*
Y-130274D01*
X-287500Y-117774D01*
Y-87500D01*
X-282500Y-82500D01*
X-210000D01*
X-208400Y-84100D01*
X-200000D01*
G01X-327500Y-132500D02*
X-307500D01*
X-290000Y-150000D01*
X-185000D01*
G01X-278740Y-131437D02*
X-288563D01*
X-317500Y-102500D01*
X-327500D01*
G01X-335000Y-40100D02*
X-322600Y-52500D01*
X-187500D01*
G01X-182600Y-48465D02*
X-321635D01*
X-330000Y-40100D01*
G01X-239350Y-45650D02*
X-319450D01*
X-325000Y-40100D01*
G01X-342500Y42500D02*
X-295000D01*
G01X-271260Y-131437D02*
Y-134209D01*
X-270469Y-135000D01*
G01X-267500Y-130252D02*
X-268685Y-131437D01*
X-271260D01*
G01X-277500Y-96850D02*
Y-92500D01*
G01X-283150Y-115000D02*
Y-95650D01*
X-282500Y-95000D01*
Y-88150D01*
X-278781Y-84431D01*
X-210569D01*
X-204900Y-90100D01*
Y-93578D01*
X-205925Y-94603D01*
Y-98268D01*
G01X17205Y31693D02*
X1693D01*
X-50000Y-20000D01*
X-272500D01*
X-275000Y-17500D01*
Y22501D01*
X-290000Y37501D01*
Y103228D01*
X-282795Y110433D01*
G01X25079Y27756D02*
X2756D01*
X-47300Y-22300D01*
X-267300D01*
X-268132Y-23132D01*
X-268232D01*
X-270000Y-24900D01*
G01X-282795Y118307D02*
Y114705D01*
X-283605Y113895D01*
X-284898D01*
X-292500Y106293D01*
Y43678D01*
X-292400Y43578D01*
Y41422D01*
X-292500Y41322D01*
Y20000D01*
X-280000Y7500D01*
G01X-270000Y-17400D02*
Y22500D01*
X-287500Y40000D01*
Y71923D01*
X-284423Y75000D01*
X-280826D01*
X-278858Y76968D01*
Y102559D01*
X-274921Y106496D01*
G01X-262500Y-17400D02*
Y22500D01*
X-277388Y37388D01*
Y72533D01*
X-274921Y75000D01*
G01X-255000Y-17400D02*
Y22500D01*
X-262500Y30000D01*
Y65944D01*
X-270000Y73444D01*
Y85827D01*
X-274921Y90748D01*
G01X17205Y39567D02*
X4567D01*
X-52500Y-17500D01*
X-245000D01*
X-250000Y-12500D01*
Y97500D01*
X-263408Y110908D01*
X-271459D01*
X-274921Y114370D01*
G01X-224232Y-113425D02*
X-245924D01*
X-250000Y-117501D01*
Y-140000D01*
X-242600Y-147400D01*
X-183922D01*
X-183822Y-147500D01*
X-180000D01*
X-175000Y-152500D01*
X-152500D01*
G01X-240650Y-117500D02*
X-245000D01*
G01X-258150Y-87500D02*
X-262500D01*
G01X-255000Y-24900D02*
X-44900D01*
X3819Y23819D01*
X17205D01*
G01X-262500Y-40100D02*
X-225100D01*
G01X25079Y43504D02*
X3504D01*
X-55000Y-15000D01*
X-220000D01*
X-242500Y7500D01*
X-247400D01*
G01X-245000Y42500D02*
Y105000D01*
X-254370Y114370D01*
X-265079D01*
G01X-240000Y47500D02*
Y104464D01*
X-253843Y118307D01*
X-257205D01*
G01X-202776Y-131732D02*
Y-142776D01*
X-205000Y-145000D01*
X-228150D01*
X-235000Y-138150D01*
G01X-230000Y-120000D02*
X-224508D01*
X-224232Y-119724D01*
G01X-230000Y-125000D02*
X-227874Y-122874D01*
X-224232D01*
G01X-225000Y-130000D02*
Y-126792D01*
X-224232Y-126024D01*
G01X-220000Y-137500D02*
X-218524Y-136024D01*
Y-131732D01*
G01X-235000Y-138150D02*
X-239350D01*
G01X-235000Y-131850D02*
Y-121119D01*
X-234350Y-120469D01*
Y-117500D01*
G01X-238150Y-100000D02*
X-235000Y-96850D01*
Y-95000D01*
G01X-218524Y-93268D02*
Y-98268D01*
G01X-224232Y-103976D02*
X-227874D01*
X-231850Y-100000D01*
G01X-224232Y-116575D02*
X-230456D01*
X-231381Y-117500D01*
X-234350D01*
G01X-224232Y-103976D02*
X-218558D01*
X-216267Y-106267D01*
G01X-217500Y-117500D02*
X-218425Y-116575D01*
X-224232D01*
G01X-167500Y-40100D02*
X-219900D01*
G01X-212500Y-162500D02*
X-208678D01*
X-208578Y-162600D01*
X-206422D01*
X-206322Y-162500D01*
X-150000D01*
X-135000Y-147500D01*
X-102500D01*
X-62500Y-187500D01*
X-44479D01*
X-42172Y-185193D01*
Y-164671D01*
X-35600Y-158099D01*
Y-138800D01*
X-24300Y-127500D01*
X152667D01*
X154343Y-125824D01*
G01X213661Y-89173D02*
X208327D01*
X188859Y-108641D01*
Y-115000D01*
X183859Y-120000D01*
X135000D01*
X131105Y-123895D01*
X-25000D01*
X-37500Y-136395D01*
Y-157500D01*
X-43772Y-163772D01*
Y-183772D01*
X-45000Y-185000D01*
X-56322D01*
X-56422Y-185100D01*
X-58578D01*
X-58678Y-185000D01*
X-62737D01*
X-102637Y-145100D01*
X-137600D01*
X-152500Y-160000D01*
X-207500D01*
G01X-196476Y-131732D02*
X-193268D01*
X-192500Y-132500D01*
G01X-217500Y-140000D02*
X-215374Y-137874D01*
Y-131732D01*
G01X-212500Y-142400D02*
Y-135958D01*
X-212224Y-135682D01*
Y-131732D01*
G01X-205777Y-139599D02*
X-209075Y-136301D01*
Y-131732D01*
G01X-200000Y-137500D02*
Y-132106D01*
X-199626Y-131732D01*
G01X-200000Y-137500D02*
X-193619D01*
X-192969Y-136850D01*
X-190000D01*
G01X-212500Y-90000D02*
Y-94042D01*
X-212224Y-94318D01*
Y-98268D01*
G01X-207500Y-92500D02*
X-209075Y-94075D01*
Y-98268D01*
G01X-215374D02*
Y-92874D01*
G01X-202776Y-98268D02*
Y-89098D01*
X-201078Y-87400D01*
X-199622D01*
X-197222Y-85000D01*
X-90000D01*
X-75000Y-100000D01*
X36850D01*
G01X-200000Y-90000D02*
Y-93944D01*
X-199626Y-94318D01*
Y-98268D01*
G01X-196476D02*
Y-91476D01*
X-195000Y-90000D01*
X-90000D01*
X-72500Y-107500D01*
X87500D01*
X100000Y-95000D01*
G01X-210000Y-72500D02*
X-203678D01*
X-203578Y-72600D01*
X-201422D01*
X-201322Y-72500D01*
X65000D01*
X82500Y-55000D01*
X217500D01*
X222612Y-49888D01*
Y-42600D01*
G01X-205000Y-77500D02*
X67500D01*
X87500Y-57500D01*
X136323D01*
X136423Y-57400D01*
X220099D01*
X234899Y-42600D01*
X307500D01*
G01X-202500Y-70000D02*
X60000D01*
X80000Y-50000D01*
X167600D01*
X172500Y-45100D01*
Y-42600D01*
G01X-77388Y-40100D02*
Y-44000D01*
X-78388Y-45000D01*
X-215000D01*
G01Y-67500D02*
X-203678D01*
X-203578Y-67400D01*
X-201422D01*
X-201322Y-67500D01*
X55000D01*
X79900Y-42600D01*
X135000D01*
G01X-185000Y32500D02*
X-194900Y42400D01*
Y43578D01*
X-195000Y43678D01*
Y46322D01*
X-194900Y46422D01*
Y48578D01*
X-195000Y48678D01*
Y103793D01*
X-184898Y113895D01*
X-183605D01*
X-182795Y114705D01*
Y118307D01*
G01X-185000Y-120000D02*
X-190492D01*
X-190768Y-119724D01*
G01X-174350Y-127500D02*
Y-131850D01*
X-175000Y-132500D01*
G01X-180000Y-122500D02*
X-183822D01*
X-183922Y-122600D01*
X-186078D01*
X-186178Y-122500D01*
X-186444D01*
X-186818Y-122874D01*
X-190768D01*
G01X-190000Y-143150D02*
X-184450D01*
X-180650Y-139350D01*
G01X-190768Y-113425D02*
X-174075D01*
X-157500Y-130000D01*
X-137500D01*
X-135000Y-127500D01*
Y-120000D01*
X-132500Y-117500D01*
X87500D01*
X100000Y-105000D01*
G01X-182600Y-117400D02*
X-185993D01*
X-186818Y-116575D01*
X-190768D01*
G01X-177500Y-110000D02*
X-186542D01*
X-186818Y-110276D01*
X-190768D01*
G01X-180000Y-62500D02*
X1752D01*
X17205Y-47047D01*
G01X-167500Y-4900D02*
Y30000D01*
X-177388Y39888D01*
Y72533D01*
X-174921Y75000D01*
G01X25079Y59252D02*
X4252D01*
X-62500Y-7500D01*
X-174000D01*
X-175000Y-6500D01*
Y-6078D01*
X-175100Y-5978D01*
Y27601D01*
X-190000Y42501D01*
Y103228D01*
X-182795Y110433D01*
G01X-172500Y-4900D02*
Y27500D01*
X-187587Y42587D01*
Y87587D01*
X-184426Y90748D01*
X-180827D01*
X-178858Y92717D01*
Y102559D01*
X-174921Y106496D01*
G01X25079Y51378D02*
X1378D01*
X-59800Y-9800D01*
X-169800D01*
X-170632Y-10632D01*
X-170732D01*
X-172500Y-12400D01*
G01X-174921Y90748D02*
X-170000Y85827D01*
Y73444D01*
X-162500Y65944D01*
Y-4900D01*
G01X17205Y71063D02*
X11063D01*
X-65000Y-5000D01*
X-142500D01*
X-152500Y5000D01*
Y100000D01*
X-163408Y110908D01*
X-171459D01*
X-174921Y114370D01*
G01X17205Y78937D02*
X13843D01*
X-67594Y-2500D01*
X-140000D01*
X-149900Y7400D01*
Y32500D01*
G01X-162500Y-12400D02*
X-57400D01*
X2441Y47441D01*
X17205D01*
G01X-147500Y42500D02*
Y102500D01*
X-152500Y107500D01*
Y112500D01*
X-154370Y114370D01*
X-165079D01*
G01X-142500Y47500D02*
Y102500D01*
X-150000Y110000D01*
Y114464D01*
X-153843Y118307D01*
X-157205D01*
G01X-67500Y-161850D02*
Y-157500D01*
G01X-77388Y100D02*
Y54887D01*
X-79333Y56832D01*
Y70588D01*
X-74921Y75000D01*
G01X-72500Y57500D02*
X-65000D01*
X-62500Y60000D01*
X-60000D01*
G01X-56250Y56250D02*
X-59000Y53500D01*
X-72178D01*
X-76588Y57910D01*
Y66856D01*
X-70800Y72644D01*
Y77937D01*
X-71800Y78937D01*
X-76890D01*
X-80827Y82874D01*
X-86500D01*
X-87500Y83874D01*
Y111480D01*
X-84610Y114370D01*
X-74921D01*
G01X25079Y82874D02*
X12873D01*
X-20001Y50000D01*
X-46322D01*
X-69200Y72878D01*
Y84879D01*
X-74921Y90600D01*
Y90748D01*
G01X17205Y86811D02*
X11811D01*
X-22500Y52500D01*
X-45000D01*
X-61617Y69117D01*
Y84309D01*
X-63644Y86336D01*
X-68390D01*
X-71459Y89405D01*
Y92183D01*
X-73486Y94210D01*
X-76266D01*
X-78208Y96152D01*
Y103209D01*
X-74921Y106496D01*
G01X-82795Y134055D02*
Y138172D01*
G01X25079Y90748D02*
X10749D01*
X-24999Y55000D01*
X-36322D01*
X-36422Y54900D01*
X-38578D01*
X-38678Y55000D01*
X-45000D01*
X-47500Y57500D01*
Y58822D01*
X-47600Y58922D01*
Y103778D01*
X-51422Y107600D01*
X-53578D01*
X-54207Y106971D01*
X-58640D01*
X-62102Y110433D01*
X-82795D01*
G01X-56555Y-175433D02*
X-59567D01*
G01X-56555D02*
X-52933D01*
G01X-56555D02*
Y-181555D01*
X-57500Y-182500D01*
G01X-45000Y60000D02*
Y103795D01*
X-55575Y114370D01*
X-65079D01*
G01X-57205Y118307D02*
X-37500Y98602D01*
Y57500D01*
G01X-65079Y90748D02*
Y94921D01*
X-55000Y105000D01*
X-52500D01*
G01X-57205Y134055D02*
Y138172D01*
G01X-27500Y-166850D02*
Y-162500D01*
G01X-32500Y65000D02*
Y67500D01*
X10433Y110433D01*
X17205D01*
G01X17500Y105000D02*
X12500D01*
X-32500Y60000D01*
G01X34921Y27756D02*
X44469D01*
X44510Y27715D01*
X47286D01*
X112501Y-37500D01*
X300000D01*
X312500Y-25000D01*
Y87671D01*
X315577Y90748D01*
X319174D01*
X322557Y94131D01*
Y103974D01*
X325079Y106496D01*
G01X34921Y51378D02*
X46121D01*
X122499Y-25000D01*
X205000D01*
X212500Y-17500D01*
Y87671D01*
X215577Y90748D01*
X219174D01*
X222557Y94131D01*
Y103974D01*
X225079Y106496D01*
G01X317205Y118307D02*
Y114705D01*
X316395Y113895D01*
X315102D01*
X305000Y103793D01*
Y-5000D01*
X280000Y-30000D01*
X120000D01*
X46496Y43504D01*
X34921D01*
G01X21142Y100240D02*
X30000Y91382D01*
G01X34921Y82874D02*
X100374D01*
X117500Y100000D01*
X119999D01*
X125079Y94920D01*
Y90748D01*
G01X217205Y110433D02*
X207500Y100728D01*
Y-12500D01*
X197500Y-22500D01*
X125507D01*
X43755Y59252D01*
X34921D01*
G01X125079Y114370D02*
X114370D01*
X92500Y92500D01*
X57501D01*
X43505Y106496D01*
X34921D01*
G01X117205Y110433D02*
X97520Y90748D01*
X34921D01*
G01Y114370D02*
X45629D01*
X58302Y101697D01*
Y99298D01*
X60000Y97600D01*
G01X17205Y134055D02*
Y138172D01*
G01X56260Y-93563D02*
Y-96335D01*
X55095Y-97500D01*
G01X57051Y-90000D02*
X56260Y-90791D01*
Y-93563D01*
G01X42795Y47441D02*
X46157D01*
X121098Y-27500D01*
X225000D01*
X227043Y-25457D01*
Y-19543D01*
X217500Y-10000D01*
Y50000D01*
X225000Y57500D01*
X235000D01*
X237500Y60000D01*
Y65944D01*
X230000Y73444D01*
Y85827D01*
X225079Y90748D01*
G01X42795Y39567D02*
X46157D01*
X118224Y-32500D01*
X290000D01*
X297500Y-25000D01*
G01X317205Y110433D02*
X307500Y100728D01*
Y-20000D01*
X292500Y-35000D01*
X115000D01*
X48307Y31693D01*
X42795D01*
G01X325079Y90748D02*
X330000Y85827D01*
Y73500D01*
X337500Y66000D01*
Y57500D01*
X335000Y55000D01*
X322500D01*
X317500Y50000D01*
Y-30000D01*
X307500Y-40000D01*
X109999D01*
X46180Y23819D01*
X42795D01*
G01X65000Y52500D02*
X59347Y58153D01*
Y68153D01*
X57400Y70100D01*
Y78578D01*
X58922Y80100D01*
X62400D01*
X62500Y80000D01*
X65000D01*
G01X42795Y78937D02*
X57500Y64232D01*
Y54999D01*
X129999Y-17500D01*
X187500D01*
X205000Y0D01*
Y103793D01*
X215102Y113895D01*
X216395D01*
X217205Y114705D01*
Y118307D01*
G01X197500Y-17500D02*
X195000Y-20000D01*
X127500D01*
X54257Y53243D01*
Y59601D01*
X42795Y71063D01*
G01X62500Y60000D02*
Y70000D01*
X60000Y72500D01*
Y77500D01*
G01D02*
X63822D01*
X63922Y77400D01*
X70100D01*
X72500Y75000D01*
X119174D01*
X123111Y78937D01*
X136889D01*
X140826Y75000D01*
X146500D01*
X149500Y78000D01*
G01X65000Y97600D02*
Y102500D01*
X49193Y118307D01*
X42795D01*
G01Y110433D02*
X58228Y95000D01*
X90000D01*
X113307Y118307D01*
X117205D01*
G01X125079Y106496D02*
X118996D01*
X99311Y86811D01*
X42795D01*
G01Y134055D02*
Y138172D01*
G01X129614Y90386D02*
X125564Y86336D01*
X123644D01*
X119808Y82500D01*
X104999D01*
X102499Y80000D01*
X65000D01*
G01X135650Y-132500D02*
X149350D01*
G01X129350D02*
X125000D01*
G01X135000Y-14900D02*
Y10000D01*
X122612Y22388D01*
Y72533D01*
X125079Y75000D01*
G01X199900Y40000D02*
X163444D01*
X130472Y72972D01*
G01X134921Y114370D02*
X137299Y111992D01*
Y110200D01*
X140000Y107499D01*
Y100772D01*
X129614Y90386D01*
G01X130000Y87028D02*
Y90000D01*
X129614Y90386D01*
G01X134921Y90748D02*
X137299Y93126D01*
Y94799D01*
X142795Y100295D01*
Y110433D01*
G01X117205Y134055D02*
Y138172D01*
G01X279803Y-110827D02*
X268130Y-122500D01*
X157500D01*
X154343Y-125657D01*
G01Y-125824D02*
X155650Y-127131D01*
Y-132500D01*
G01X149500Y78000D02*
X147500Y80000D01*
Y113602D01*
X142795Y118307D01*
G01X199900Y45000D02*
X182500D01*
X149500Y78000D01*
G01X142795Y134055D02*
Y138172D01*
G01X172500Y-14900D02*
X174268Y-13132D01*
X174368D01*
X175100Y-12400D01*
X182600D01*
X202500Y7500D01*
Y87500D01*
X195000Y95000D01*
X180000D01*
X172500Y102500D01*
G01X207500Y-17500D02*
X210000Y-15000D01*
Y96314D01*
X223644Y109958D01*
X224958D01*
X225079Y110079D01*
Y114370D01*
G01Y75000D02*
X222500Y72421D01*
Y65001D01*
X215000Y57501D01*
Y-14888D01*
X222612Y-22500D01*
G01X220100Y40000D02*
X302400D01*
G01X220100D02*
Y47600D01*
X227500Y55000D01*
X237500D01*
X247500Y65000D01*
Y111293D01*
X244423Y114370D01*
X234921D01*
G01X251744Y45000D02*
X222700D01*
G01X234921Y106496D02*
X237443Y103974D01*
Y93270D01*
X234921Y90748D01*
G01X217205Y134055D02*
Y138172D01*
G01X302400Y45000D02*
X251744D01*
G01D02*
X252500Y45756D01*
Y108602D01*
X242795Y118307D01*
G01Y134055D02*
Y138172D01*
G01X307500Y-25000D02*
X310000Y-22500D01*
Y97500D01*
X322701Y110201D01*
Y111992D01*
X325079Y114370D01*
G01Y75000D02*
X322500Y72421D01*
Y62501D01*
X315000Y55001D01*
Y-27500D01*
X307500Y-35000D01*
G01X320100Y40000D02*
Y47600D01*
X325000Y52500D01*
X337499D01*
X347500Y62501D01*
Y112500D01*
X345630Y114370D01*
X334921D01*
G01X322700Y45000D02*
X337500D01*
X350000Y57500D01*
Y114464D01*
X346157Y118307D01*
X342795D01*
G01X334921Y106496D02*
X338858D01*
X342795Y110433D01*
G01X317205Y134055D02*
Y138172D01*
G01X342795Y134055D02*
Y138172D01*
G54D19*
X-224232Y-126024D03*
Y-122874D03*
Y-119724D03*
Y-116575D03*
Y-113425D03*
Y-110276D03*
Y-107126D03*
Y-103976D03*
X-190768Y-119724D03*
Y-122874D03*
Y-126024D03*
Y-103976D03*
Y-107126D03*
Y-110276D03*
Y-113425D03*
Y-116575D03*
G54D29*
G01X-216267Y-106267D02*
X-217500Y-107500D01*
Y-117500D01*
G01X-216267Y-106267D02*
X-215000Y-105000D01*
X-200000D01*
X-197891Y-107109D01*
Y-124609D01*
X-196476Y-126024D01*
X-190768D01*
G01D02*
X-185095D01*
X-183619Y-127500D01*
X-180650D01*
G01X-27500Y-173150D02*
X-32792D01*
X-35075Y-175433D01*
X-38445D01*
G01X17205Y63189D02*
X21142Y67126D01*
X25079D01*
G01X34921D02*
X38858D01*
X42795Y63189D01*
G01X25079Y67126D02*
X30000D01*
G01X34921D02*
X30000D01*
G01Y91382D02*
Y67126D01*
G01X63740Y-93563D02*
X81437D01*
X100000Y-75000D01*
G01Y-85000D02*
X108000D01*
X110000Y-83000D01*
Y-62500D01*
G01X345945Y-110827D02*
X337677Y-102559D01*
Y-72913D01*
X324526Y-59762D01*
X322262D01*
X317264Y-54764D01*
Y-52500D01*
M02*
