G04 ================== begin FILE IDENTIFICATION RECORD ==================*
G04 Layout Name:  DIG_OUT_CARD.brd*
G04 Film Name:    BOTTOM*
G04 File Format:  Gerber RS274X*
G04 File Origin:  Cadence Allegro 17.2-S057*
G04 Origin Date:  Wed Aug 07 01:21:42 2019*
G04 *
G04 Layer:  ETCH/BOTTOM*
G04 Layer:  PIN/BOTTOM*
G04 Layer:  VIA CLASS/BOTTOM*
G04 *
G04 Offset:    (0.00 0.00)*
G04 Mirror:    No*
G04 Mode:      Positive*
G04 Rotation:  0*
G04 FullContactRelief:  No*
G04 UndefLineWidth:     0.00*
G04 ================== end FILE IDENTIFICATION RECORD ====================*
%FSLAX55Y55*MOIN*%
%IR0*IPPOS*OFA0.00000B0.00000*MIA0B0*SFA1.00000B1.00000*%
%ADD12C,.03*%
%ADD11C,.07087*%
%ADD13R,.16535X.02756*%
%ADD14R,.12598X.02756*%
%ADD10C,.19685*%
%ADD15C,.012*%
%ADD16C,.025*%
%ADD17C,.018*%
%ADD18C,.006*%
%ADD19C,.008*%
%ADD22C,.0809*%
%ADD21C,.20688*%
%ADD20C,.27566*%
G75*
%LPD*%
G75*
G36*
G01X336530Y21209D02*
G02X337236Y20952I306J-258D01*
G01Y8718D01*
X305217D01*
G03X304509Y8425I0J-1002D01*
G01X274292Y-21792D01*
G03X273998Y-22500I708J-709D01*
G01Y-25767D01*
G03X272998Y-27500I1002J-1733D01*
G03X277002I2002J0D01*
G03X276002Y-25767I-2002J0D01*
G01Y-22915D01*
X305632Y6716D01*
X337236D01*
Y4782D01*
X306280D01*
G03X305572Y4488I1J-1002D01*
G01X280521Y-20563D01*
X280414Y-20541D01*
G03X280003Y-20498I-413J-1959D01*
G01X280000D01*
G03X282002Y-22500I0J-2002D01*
G01Y-22497D01*
G03X281959Y-22086I-2002J-2D01*
G01X281937Y-21979D01*
X306695Y2778D01*
X337236D01*
Y844D01*
X307343D01*
G03X306635Y551I0J-1002D01*
G01X280521Y-25563D01*
X280414Y-25541D01*
G03X280003Y-25498I-413J-1959D01*
G01X280000D01*
G03X282002Y-27500I0J-2002D01*
G01Y-27497D01*
G03X281959Y-27086I-2002J-2D01*
G01X281937Y-26979D01*
X307758Y-1158D01*
X337236D01*
Y-3092D01*
X308406D01*
G03X307698Y-3386I1J-1002D01*
G01X285521Y-25563D01*
X285414Y-25541D01*
G03X285003Y-25498I-413J-1959D01*
G01X285000D01*
G03X287002Y-27500I0J-2002D01*
G01Y-27497D01*
G03X286959Y-27086I-2002J-2D01*
G01X286937Y-26979D01*
X308821Y-5096D01*
X327274D01*
G02X327515Y-5815I0J-400D01*
G03X330669Y-15241I3155J-4185D01*
G01X337236D01*
Y-18842D01*
X302657D01*
G03X301949Y-19135I0J-1002D01*
G01X289585Y-31498D01*
X266733D01*
G03X265000Y-30498I-1733J-1002D01*
G03Y-34502I0J-2002D01*
G03X266733Y-33502I0J2002D01*
G01X290000D01*
G03X290708Y-33208I-1J1002D01*
G01X303072Y-20844D01*
X337236D01*
Y-40586D01*
X308302D01*
Y-330664D01*
X-28499D01*
Y56334D01*
X308302D01*
Y36334D01*
X337236D01*
Y29254D01*
X335799D01*
X335724Y29268D01*
G03X335000Y29404I-725J-1866D01*
G03Y25400I0J-2002D01*
G03X335725Y25536I0J2002D01*
G01X335760Y25550D01*
X337236D01*
Y24466D01*
X335965D01*
G03X335618Y24404I0J-1002D01*
G03X335000Y24502I-619J-1904D01*
G03X333267Y23502I0J-2002D01*
G01X277500D01*
G03X276792Y23208I1J-1002D01*
G01X250521Y-3063D01*
X250414Y-3041D01*
G03X250003Y-2998I-413J-1959D01*
G01X250000D01*
G03X252002Y-5000I0J-2002D01*
G01Y-4997D01*
G03X251959Y-4586I-2002J-2D01*
G01X251937Y-4479D01*
X277915Y21498D01*
X333267D01*
G03X335000Y20498I1733J1002D01*
G03X336530Y21209I0J2002D01*
G37*
%LPC*%
G75*
G36*
G01X22993Y-154326D02*
G03X23270Y-153638I0J400D01*
G02X22027Y-150721I2801J2917D01*
G02X30117I4045J0D01*
G02X28874Y-153638I-4044J0D01*
G03X29151Y-154326I277J-288D01*
G01X34257D01*
X36792Y-151792D01*
G02X37500Y-151498I709J-708D01*
G01X45767D01*
G02X47500Y-150498I1733J-1002D01*
G02Y-154502I0J-2002D01*
G02X45767Y-153502I0J2002D01*
G01X37915D01*
X35708Y-155708D01*
G02X35308Y-155953I-709J708D01*
G02X34772Y-156130I-537J725D01*
G01X29150D01*
G03X28873Y-156818I0J-400D01*
G02X30117Y-159736I-2800J-2918D01*
G02X28854Y-162672I-4044J0D01*
G03X29129Y-163362I275J-290D01*
G01X35363D01*
X36553Y-162172D01*
X36568Y-162134D01*
G02X36792Y-161792I932J-366D01*
G01X41792Y-156792D01*
G02X42500Y-156498I709J-708D01*
G01X50767D01*
G02X52500Y-155498I1733J-1002D01*
G02Y-159502I0J-2002D01*
G02X50767Y-158502I0J2002D01*
G01X42915D01*
X38208Y-163208D01*
G02X37866Y-163432I-708J708D01*
G01X37828Y-163447D01*
X36373Y-164901D01*
G02X35736Y-165166I-638J636D01*
G01X29171D01*
G03X28892Y-165852I0J-400D01*
G02X30117Y-168752I-2820J-2900D01*
G02X28854Y-171688I-4044J0D01*
G03X29129Y-172378I275J-290D01*
G01X36347D01*
X36553Y-172172D01*
X36568Y-172134D01*
G02X36792Y-171792I932J-366D01*
G01X46792Y-161792D01*
G02X47500Y-161498I709J-708D01*
G01X50767D01*
G02X52500Y-160498I1733J-1002D01*
G02Y-164502I0J-2002D01*
G02X50767Y-163502I0J2002D01*
G01X47915D01*
X38208Y-173208D01*
G02X37866Y-173432I-708J708D01*
G01X37828Y-173447D01*
X37357Y-173917D01*
G02X36720Y-174182I-638J636D01*
G01X29171D01*
G03X28892Y-174868I0J-400D01*
G02X30117Y-177768I-2820J-2900D01*
G02X28873Y-180686I-4044J0D01*
G03X29150Y-181374I277J-288D01*
G01X29851D01*
X31863Y-179363D01*
G02X32500Y-179098I638J-636D01*
G01X38212D01*
G02X40000Y-177998I1788J-903D01*
G02Y-182002I0J-2002D01*
G02X38212Y-180902I0J2003D01*
G01X32873D01*
X30861Y-182913D01*
G02X30224Y-183178I-638J636D01*
G01X29150D01*
G03X28873Y-183866I0J-400D01*
G02Y-189702I-2800J-2918D01*
G03X29150Y-190390I277J-288D01*
G01X38792D01*
G02X39429Y-190655I-1J-901D01*
G01X40273Y-191498D01*
X50767D01*
G02X52500Y-190498I1733J-1002D01*
G02Y-194502I0J-2002D01*
G02X50767Y-193502I0J2002D01*
G01X40000D01*
G02X39068Y-192866I0J1001D01*
G01X39053Y-192828D01*
X38419Y-192194D01*
X29151D01*
G03X28874Y-192882I0J-400D01*
G02X30117Y-195799I-2801J-2917D01*
G02X22027I-4045J0D01*
G02X23429Y-192737I4045J0D01*
G03X23360Y-192083I-261J303D01*
G02X23155Y-191929I433J790D01*
G01X18911Y-187686D01*
X18379D01*
Y-187987D01*
X18461Y-188047D01*
G02X20117Y-191311I-2389J-3264D01*
G02X12027I-4045J0D01*
G02X13289Y-188376I4044J0D01*
G03X13014Y-187686I-275J290D01*
G01X10018D01*
X9978Y-187834D01*
G02X6072Y-190829I-3906J1050D01*
G02Y-182739I0J4045D01*
G02X9978Y-185734I0J-4045D01*
G01X10018Y-185882D01*
X12974D01*
G03X13253Y-185196I0J400D01*
G02X12027Y-182295I2819J2901D01*
G02X13289Y-179360I4044J0D01*
G03X13014Y-178670I-275J290D01*
G01X10018D01*
X9978Y-178818D01*
G02X6072Y-181813I-3906J1050D01*
G02Y-173723I0J4045D01*
G02X9978Y-176718I0J-4045D01*
G01X10018Y-176866D01*
X12973D01*
G03X13252Y-176180I0J400D01*
G02X12027Y-173280I2820J2900D01*
G02X16072Y-169235I4045J0D01*
G02X19978Y-172230I0J-4045D01*
G01X20018Y-172378D01*
X23015D01*
G03X23290Y-171688I0J400D01*
G02X22027Y-168752I2781J2936D01*
G02X23252Y-165852I4045J0D01*
G03X22973Y-165166I-279J286D01*
G01X20018D01*
X19978Y-165314D01*
G02X16072Y-168309I-3906J1050D01*
G02X12027Y-164264I0J4045D01*
G02X13290Y-161328I4044J0D01*
G03X13015Y-160638I-275J290D01*
G01X10018D01*
X9978Y-160786D01*
G02X6072Y-163781I-3906J1050D01*
G02Y-155691I0J4045D01*
G02X9978Y-158686I0J-4045D01*
G01X10018Y-158834D01*
X12973D01*
G03X13252Y-158148I0J400D01*
G02X12027Y-155248I2820J2900D01*
G02X20117I4045J0D01*
G03X20800Y-155530I400J1D01*
G01X21740Y-154591D01*
G02X22377Y-154326I638J-636D01*
G01X22993D01*
G37*
G36*
G01X182898Y-63998D02*
Y-10000D01*
G02X187102I2102J0D01*
G01Y-160000D01*
G02X185098Y-162099I-2101J0D01*
G01X185021Y-162103D01*
X181502Y-165622D01*
Y-166174D01*
X181547Y-166229D01*
G02X182002Y-167500I-1548J-1271D01*
G02X177998I-2002J0D01*
G02X178000Y-167417I2002J-7D01*
G03X177583Y-167000I-400J17D01*
G02X177500Y-167002I-90J2000D01*
G02X175498Y-165000I0J2002D01*
G02X175541Y-164586I2002J1D01*
G01X175564Y-164480D01*
X172085Y-161002D01*
X164233D01*
G02X162500Y-162002I-1733J1002D01*
G02Y-157998I0J2002D01*
G02X164233Y-158998I0J-2002D01*
G01X172500D01*
G02X173208Y-159292I-1J-1002D01*
G01X176980Y-163064D01*
X177086Y-163041D01*
G02X177500Y-162998I413J-1959D01*
G02X178771Y-163453I0J-2003D01*
G01X178826Y-163498D01*
X179378D01*
X180193Y-162683D01*
G03X179925Y-162001I-283J283D01*
G02X177998Y-160000I75J2001D01*
G02X178998Y-158267I2002J0D01*
G01Y-157136D01*
G03X178416Y-156780I-400J0D01*
G02X177500Y-157002I-916J1779D01*
G02X175498Y-155000I0J2002D01*
G02X176498Y-153267I2002J0D01*
G01Y-152136D01*
G03X175916Y-151780I-400J0D01*
G02X175000Y-152002I-916J1779D01*
G02X172998Y-150000I0J2002D01*
G02X173998Y-148267I2002J0D01*
G01Y-147136D01*
G03X173416Y-146780I-400J0D01*
G02X172500Y-147002I-916J1779D01*
G02X170498Y-145000I0J2002D01*
G02X171498Y-143267I2002J0D01*
G01Y-141733D01*
G02X170498Y-140000I1002J1733D01*
G02X172500Y-137998I2002J0D01*
G02X172583Y-138000I-7J-2002D01*
G03X173000Y-137583I17J400D01*
G02X172998Y-137500I2000J90D01*
G02X177002I2002J0D01*
G02X177000Y-137583I-2002J7D01*
G03X177417Y-138000I400J-17D01*
G02X177500Y-137998I90J-2000D01*
G02X177583Y-138000I-7J-2002D01*
G03X178000Y-137583I17J400D01*
G02X177998Y-137500I2000J90D01*
G02X182002I2002J0D01*
G02X181002Y-139233I-2002J0D01*
G01Y-158267D01*
G02X182001Y-159925I-1002J-1733D01*
G03X182683Y-160193I399J15D01*
G01X182898Y-159978D01*
Y-66002D01*
X169233D01*
G02X167500Y-67002I-1733J1002D01*
G02Y-62998I0J2002D01*
G02X169233Y-63998I0J-2002D01*
G01X182898D01*
G37*
G54D22*
X26072Y-123673D03*
Y-132689D03*
Y-141705D03*
X6072Y-78595D03*
Y-87610D03*
Y-96626D03*
Y-105642D03*
Y-114658D03*
Y-123673D03*
Y-132689D03*
Y-141705D03*
Y-150721D03*
Y-168752D03*
Y-195799D03*
X16072Y-74106D03*
Y-83122D03*
Y-92138D03*
Y-101154D03*
Y-110169D03*
Y-119185D03*
Y-128201D03*
Y-137217D03*
Y-146232D03*
Y-200327D03*
X26072Y-69579D03*
Y-78595D03*
Y-87610D03*
Y-96626D03*
Y-105642D03*
Y-114658D03*
G54D21*
X16072Y-42177D03*
Y-227217D03*
G54D20*
X-10000Y27835D03*
Y-302165D03*
%LPD*%
G75*
G54D10*
X16072Y-227217D03*
Y-42177D03*
G54D11*
X6072Y-186784D03*
Y-195799D03*
Y-159736D03*
Y-168752D03*
Y-177768D03*
Y-132689D03*
Y-141705D03*
Y-150721D03*
Y-96626D03*
Y-105642D03*
Y-114658D03*
Y-123673D03*
Y-78595D03*
Y-87610D03*
X16072Y-191311D03*
Y-200327D03*
X26072Y-186784D03*
Y-195799D03*
X16072Y-164264D03*
Y-173280D03*
Y-182295D03*
X26072Y-159736D03*
Y-168752D03*
Y-177768D03*
X16072Y-128201D03*
Y-137217D03*
Y-146232D03*
Y-155248D03*
X26072Y-132689D03*
Y-141705D03*
Y-150721D03*
X16072Y-101154D03*
Y-110169D03*
Y-119185D03*
X26072Y-96626D03*
Y-105642D03*
Y-114658D03*
Y-123673D03*
X16072Y-74106D03*
Y-83122D03*
Y-92138D03*
X26072Y-69579D03*
Y-78595D03*
Y-87610D03*
G54D12*
G01X185000Y-160000D02*
Y-70000D01*
G01Y-65000D02*
Y-70000D01*
G01Y-65000D02*
Y-15000D01*
G01D02*
Y-10000D01*
X40000Y-180000D03*
X52500Y-192500D03*
Y-162500D03*
X47500Y-152500D03*
X52500Y-157500D03*
X150000Y-150000D03*
Y-52500D03*
X162500Y-160000D03*
X180000Y-167500D03*
X177500Y-165000D03*
X185000D03*
X180000Y-160000D03*
X175000Y-137500D03*
Y-150000D03*
X172500Y-140000D03*
Y-145000D03*
X177500Y-140000D03*
Y-155000D03*
X180000Y-137500D03*
X185000Y-70000D03*
X167500Y-65000D03*
X185000D03*
Y-15000D03*
Y-10000D03*
X212500Y-165000D03*
X205000Y-60000D03*
X210000Y-65000D03*
X250000Y0D03*
Y-5000D03*
X275000Y-27500D03*
X280000Y-22500D03*
Y-27500D03*
X265000Y-32500D03*
X285000Y-27500D03*
Y10000D03*
X335000Y-37500D03*
Y-17000D03*
Y12500D03*
Y27402D03*
Y32500D03*
Y22500D03*
G54D13*
X346220Y-39528D03*
Y-31654D03*
Y-27717D03*
Y-23780D03*
Y-19843D03*
Y-15906D03*
Y-4094D03*
Y-157D03*
Y3780D03*
Y7717D03*
Y11654D03*
Y15591D03*
Y19528D03*
Y23465D03*
Y27402D03*
Y31339D03*
Y35276D03*
G54D14*
X344252Y-35591D03*
G54D15*
G01X335000Y-37500D02*
X336909Y-35591D01*
G01X346220Y-15906D02*
X336094D01*
G01X336909Y-35591D02*
X344252D01*
G01X336094Y-15906D02*
X335000Y-17000D01*
G01Y12500D02*
X335846Y11654D01*
G01D02*
X346220D01*
G01X335000Y32500D02*
X336161Y31339D01*
G01X335000Y32500D02*
Y33224D01*
X337052Y35276D01*
G01X336161Y31339D02*
X346220D01*
G01X337052Y35276D02*
X346220D01*
G54D16*
G01X335000Y27402D02*
X346220D01*
G54D17*
G01X177500Y-165000D02*
X180000D01*
G01D02*
X185000Y-160000D01*
G01X180000Y-165000D02*
Y-167500D01*
G54D18*
G01X6072Y-159736D02*
X17765D01*
X17809Y-159692D01*
X17913D01*
X22377Y-155228D01*
X34772D01*
X35000Y-155000D01*
G01X6072Y-177768D02*
X15416D01*
X15436Y-177788D01*
X17788D01*
X17851Y-177851D01*
X17913D01*
X22338Y-182276D01*
X30224D01*
X32500Y-180000D01*
X40000D01*
G01X6072Y-186784D02*
X19284D01*
X23792Y-191292D01*
X38792D01*
X40000Y-192500D01*
G01X16072Y-164264D02*
X35736D01*
X37500Y-162500D01*
G01X16072Y-173280D02*
X36720D01*
X37500Y-172500D01*
G54D19*
G01X5527Y-227217D02*
X16072D01*
G01X35000Y-155000D02*
X37500Y-152500D01*
X47500D01*
G01X40000Y-192500D02*
X52500D01*
G01X6072Y-91856D02*
Y-87610D01*
G01D02*
Y-83364D01*
G01X1826Y-87610D02*
X6072D01*
G01D02*
X10318D01*
G01X6072Y-82841D02*
Y-78595D01*
G01D02*
Y-74349D01*
G01X1826Y-78595D02*
X6072D01*
G01D02*
X10318D01*
G01X5527Y-42177D02*
X16072D01*
G01Y-237762D02*
Y-227217D01*
G01D02*
Y-216672D01*
G01Y-227217D02*
X26617D01*
G01X26072Y-200045D02*
Y-195799D01*
G01X21826D02*
X26072D01*
G01D02*
X30318D01*
G01X37500Y-162500D02*
X42500Y-157500D01*
X52500D01*
G01X37500Y-172500D02*
X47500Y-162500D01*
X52500D01*
G01X16072Y-150478D02*
Y-146232D01*
G01D02*
Y-141986D01*
G01X11826Y-146232D02*
X16072D01*
G01D02*
X20318D01*
G01X16072Y-141463D02*
Y-137217D01*
G01D02*
Y-132971D01*
G01X11826Y-137217D02*
X16072D01*
G01D02*
X20318D01*
G01X16072Y-52722D02*
Y-42177D01*
G01D02*
Y-31632D01*
G01Y-42177D02*
X26617D01*
G01X162500Y-160000D02*
X172500D01*
X177500Y-165000D01*
G01X180000Y-137500D02*
Y-160000D01*
G01X175000Y-137500D02*
Y-150000D01*
G01X172500Y-140000D02*
Y-145000D01*
G01X177500Y-140000D02*
Y-155000D01*
G01X167500Y-65000D02*
X185000D01*
G01X335000Y22500D02*
X277500D01*
X250000Y-5000D01*
G01X275000Y-27500D02*
Y-22500D01*
X305217Y7717D01*
X346220D01*
G01X280000Y-22500D02*
X306280Y3780D01*
X346220D01*
G01X280000Y-27500D02*
X307343Y-157D01*
X346220D01*
G01Y-19843D02*
X302657D01*
X290000Y-32500D01*
X265000D01*
G01X285000Y-27500D02*
X308406Y-4094D01*
X346220D01*
G01Y23465D02*
X335965D01*
X335000Y22500D01*
M02*
