M48
INCH
T01C.015
T02C.04724
T03C.12598
T04C.14173
;LEADER: 12 
;HEADER: 
;CODE  : ASCII 
;FILE  : DIG_OUT_CARD-1-2.drl for  ... layers TOP and BOTTOM
;DESIGN: DIG_OUT_CARD.brd
;T01 Holesize 1. = 15.000000 Tolerance = +0.000000/-0.000000 PLATED MILS Quantity = 41
;T02 Holesize 2. = 47.240000 Tolerance = +0.000000/-0.000000 PLATED MILS Quantity = 44
;T03 Holesize 3. = 125.980000 Tolerance = +0.000000/-0.000000 PLATED MILS Quantity = 2
;T04 Holesize 4. = 141.730000 Tolerance = +0.000000/-0.000000 PLATED MILS Quantity = 2
%
G90
T01
X005250Y-016250
X005250Y-015750
X026500Y-003250
X028500Y-002750
X018000Y-016000
X018000Y-013750
X028000Y-002750
X017750Y-015500
X017750Y-014000
X028000Y-002250
X017250Y-014500
X017250Y-014000
X027500Y-002750
X017500Y-015000
X017500Y-013750
X005250Y-019250
X004000Y-018000
X025000Y-000500
X033500Y002250
X025000Y000000
X028500Y001000
X033500Y003250
X033500Y001250
X033500Y-001700
X033500Y-003750
X021000Y-006500
X020500Y-006000
X015000Y-005250
X015000Y-015000
X021250Y-016500
X018500Y-016500
X004750Y-015250
X033500Y002740
X018500Y-001000
X018500Y-001500
X018500Y-006500
X017750Y-016500
X018000Y-016750
X018500Y-007000
X016750Y-006500
X016250Y-016000
T02
X002607Y-019580
X002607Y-018678
X002607Y-017777
R02Y000902
X002607Y-015072
R03Y000902
X002607Y-011466
R03Y000902
X002607Y-007860
X002607Y-006958
X001607Y-020033
R02Y000902
X001607Y-017328
R03Y000902
X001607Y-013722
R03Y000902
X001607Y-010115
R03Y000902
X000607Y-019580
X000607Y-018678
X000607Y-017777
R02Y000902
X000607Y-015072
R03Y000902
X000607Y-011466
R03Y000902
X000607Y-007860
T03
X001607Y-022722
X001607Y-004218
T04
X-001000Y-030216
X-001000Y002784
M30
