G04 ================== begin FILE IDENTIFICATION RECORD ==================*
G04 Layout Name:  DIG_OUT_CARD.brd*
G04 Film Name:    SILK_TOP*
G04 File Format:  Gerber RS274X*
G04 File Origin:  Cadence Allegro 17.2-S057*
G04 Origin Date:  Wed Aug 07 21:09:35 2019*
G04 *
G04 Layer:  MANUFACTURING/AUTOSILK_TOP*
G04 *
G04 Offset:    (0.00 0.00)*
G04 Mirror:    No*
G04 Mode:      Positive*
G04 Rotation:  0*
G04 FullContactRelief:  No*
G04 UndefLineWidth:     5.00*
G04 ================== end FILE IDENTIFICATION RECORD ====================*
%FSLAX55Y55*MOIN*%
%IR0*IPPOS*OFA0.00000B0.00000*MIA0B0*SFA1.00000B1.00000*%
%ADD10C,.005*%
G75*
%LPD*%
G75*
G54D10*
G01X-28928Y-210288D02*
X-51763D01*
Y-59106D01*
X-28928D01*
G01Y-239126D02*
X34852D01*
Y-30268D01*
X-28928D01*
Y-239126D01*
G01X39098Y-236779D02*
X39408Y-236587D01*
X39615Y-236357D01*
X39718Y-236089D01*
X39615Y-235783D01*
X39408Y-235553D01*
X39098Y-235323D01*
X38685Y-235246D01*
X36620D01*
G01X37136Y-233643D02*
X36827Y-233413D01*
X36672Y-233144D01*
X36620Y-232838D01*
X36723Y-232455D01*
X36981Y-232186D01*
X37291Y-232110D01*
X37601Y-232148D01*
X37859Y-232301D01*
X38376Y-233068D01*
X38737Y-233413D01*
X39253Y-233643D01*
X39718Y-233719D01*
Y-232110D01*
G01X40633Y-205000D02*
Y-200000D01*
X42216D01*
X42723Y-200250D01*
X43039Y-200583D01*
X43166Y-201250D01*
X43039Y-201917D01*
X42659Y-202333D01*
X42216Y-202583D01*
X40633D01*
G01X42216D02*
X43166Y-205000D01*
G01X45794Y-200833D02*
X46174Y-200333D01*
X46618Y-200083D01*
X47124Y-200000D01*
X47757Y-200167D01*
X48201Y-200583D01*
X48327Y-201083D01*
X48264Y-201583D01*
X48011Y-202000D01*
X46744Y-202833D01*
X46174Y-203417D01*
X45794Y-204250D01*
X45668Y-205000D01*
X48327D01*
G01X50703Y-204250D02*
X51082Y-204667D01*
X51526Y-204917D01*
X52095Y-205000D01*
X52665Y-204833D01*
X53109Y-204500D01*
X53425Y-203917D01*
X53488Y-203250D01*
X53362Y-202583D01*
X53045Y-202167D01*
X52602Y-201833D01*
X52159Y-201750D01*
X51716Y-201833D01*
X51146Y-202167D01*
X51336Y-200000D01*
X53045D01*
G01X39633Y-195000D02*
Y-190000D01*
X41216D01*
X41723Y-190250D01*
X42039Y-190583D01*
X42166Y-191250D01*
X42039Y-191917D01*
X41659Y-192333D01*
X41216Y-192583D01*
X39633D01*
G01X41216D02*
X42166Y-195000D01*
G01X44605Y-194000D02*
X44984Y-194583D01*
X45491Y-194917D01*
X46061Y-195000D01*
X46567Y-194917D01*
X47074Y-194500D01*
X47390Y-194000D01*
X47454Y-193500D01*
X47327Y-192917D01*
X46884Y-192500D01*
X46441Y-192333D01*
X45871D01*
G01X46441D02*
X46821Y-192083D01*
X47137Y-191667D01*
X47264Y-191167D01*
X47137Y-190667D01*
X46821Y-190250D01*
X46251Y-190000D01*
X45681Y-190083D01*
X45111Y-190417D01*
G01X51095Y-195000D02*
Y-190000D01*
X50336Y-191000D01*
G01Y-195000D02*
X51855D01*
G01X40633Y-175000D02*
Y-170000D01*
X42216D01*
X42723Y-170250D01*
X43039Y-170583D01*
X43166Y-171250D01*
X43039Y-171917D01*
X42659Y-172333D01*
X42216Y-172583D01*
X40633D01*
G01X42216D02*
X43166Y-175000D01*
G01X46997D02*
Y-170000D01*
X46238Y-171000D01*
G01Y-175000D02*
X47757D01*
G01X50892Y-170833D02*
X51272Y-170333D01*
X51716Y-170083D01*
X52222Y-170000D01*
X52855Y-170167D01*
X53299Y-170583D01*
X53425Y-171083D01*
X53362Y-171583D01*
X53109Y-172000D01*
X51842Y-172833D01*
X51272Y-173417D01*
X50892Y-174250D01*
X50766Y-175000D01*
X53425D01*
G01X40633Y-165000D02*
Y-160000D01*
X42216D01*
X42723Y-160250D01*
X43039Y-160583D01*
X43166Y-161250D01*
X43039Y-161917D01*
X42659Y-162333D01*
X42216Y-162583D01*
X40633D01*
G01X42216D02*
X43166Y-165000D01*
G01X45794Y-160833D02*
X46174Y-160333D01*
X46618Y-160083D01*
X47124Y-160000D01*
X47757Y-160167D01*
X48201Y-160583D01*
X48327Y-161083D01*
X48264Y-161583D01*
X48011Y-162000D01*
X46744Y-162833D01*
X46174Y-163417D01*
X45794Y-164250D01*
X45668Y-165000D01*
X48327D01*
G01X52095Y-160000D02*
X51589Y-160167D01*
X51209Y-160583D01*
X50956Y-161083D01*
X50766Y-161750D01*
X50703Y-162500D01*
X50766Y-163250D01*
X50956Y-163917D01*
X51209Y-164417D01*
X51589Y-164833D01*
X52095Y-165000D01*
X52602Y-164833D01*
X52982Y-164417D01*
X53235Y-163917D01*
X53425Y-163250D01*
X53488Y-162500D01*
X53425Y-161750D01*
X53235Y-161083D01*
X52982Y-160583D01*
X52602Y-160167D01*
X52095Y-160000D01*
G01X40633Y-135000D02*
Y-130000D01*
X42216D01*
X42723Y-130250D01*
X43039Y-130583D01*
X43166Y-131250D01*
X43039Y-131917D01*
X42659Y-132333D01*
X42216Y-132583D01*
X40633D01*
G01X42216D02*
X43166Y-135000D01*
G01X45605Y-134000D02*
X45984Y-134583D01*
X46491Y-134917D01*
X47061Y-135000D01*
X47567Y-134917D01*
X48074Y-134500D01*
X48390Y-134000D01*
X48454Y-133500D01*
X48327Y-132917D01*
X47884Y-132500D01*
X47441Y-132333D01*
X46871D01*
G01X47441D02*
X47821Y-132083D01*
X48137Y-131667D01*
X48264Y-131167D01*
X48137Y-130667D01*
X47821Y-130250D01*
X47251Y-130000D01*
X46681Y-130083D01*
X46111Y-130417D01*
G01X40633Y-145000D02*
Y-140000D01*
X42216D01*
X42723Y-140250D01*
X43039Y-140583D01*
X43166Y-141250D01*
X43039Y-141917D01*
X42659Y-142333D01*
X42216Y-142583D01*
X40633D01*
G01X42216D02*
X43166Y-145000D01*
G01X46997D02*
Y-140000D01*
X46238Y-141000D01*
G01Y-145000D02*
X47757D01*
G01X50703Y-144000D02*
X51082Y-144583D01*
X51589Y-144917D01*
X52159Y-145000D01*
X52665Y-144917D01*
X53172Y-144500D01*
X53488Y-144000D01*
X53552Y-143500D01*
X53425Y-142917D01*
X52982Y-142500D01*
X52539Y-142333D01*
X51969D01*
G01X52539D02*
X52919Y-142083D01*
X53235Y-141667D01*
X53362Y-141167D01*
X53235Y-140667D01*
X52919Y-140250D01*
X52349Y-140000D01*
X51779Y-140083D01*
X51209Y-140417D01*
G01X40633Y-125000D02*
Y-120000D01*
X42216D01*
X42723Y-120250D01*
X43039Y-120583D01*
X43166Y-121250D01*
X43039Y-121917D01*
X42659Y-122333D01*
X42216Y-122583D01*
X40633D01*
G01X42216D02*
X43166Y-125000D01*
G01X47757D02*
Y-120000D01*
X45415Y-123583D01*
X48580D01*
G01X40633Y-105000D02*
Y-100000D01*
X42216D01*
X42723Y-100250D01*
X43039Y-100583D01*
X43166Y-101250D01*
X43039Y-101917D01*
X42659Y-102333D01*
X42216Y-102583D01*
X40633D01*
G01X42216D02*
X43166Y-105000D01*
G01X45605Y-104250D02*
X45984Y-104667D01*
X46428Y-104917D01*
X46997Y-105000D01*
X47567Y-104833D01*
X48011Y-104500D01*
X48327Y-103917D01*
X48390Y-103250D01*
X48264Y-102583D01*
X47947Y-102167D01*
X47504Y-101833D01*
X47061Y-101750D01*
X46618Y-101833D01*
X46048Y-102167D01*
X46238Y-100000D01*
X47947D01*
G01X40633Y-115000D02*
Y-110000D01*
X42216D01*
X42723Y-110250D01*
X43039Y-110583D01*
X43166Y-111250D01*
X43039Y-111917D01*
X42659Y-112333D01*
X42216Y-112583D01*
X40633D01*
G01X42216D02*
X43166Y-115000D01*
G01X46997D02*
Y-110000D01*
X46238Y-111000D01*
G01Y-115000D02*
X47757D01*
G01X50703Y-114250D02*
X51082Y-114667D01*
X51526Y-114917D01*
X52095Y-115000D01*
X52665Y-114833D01*
X53109Y-114500D01*
X53425Y-113917D01*
X53488Y-113250D01*
X53362Y-112583D01*
X53045Y-112167D01*
X52602Y-111833D01*
X52159Y-111750D01*
X51716Y-111833D01*
X51146Y-112167D01*
X51336Y-110000D01*
X53045D01*
G01X40633Y-85000D02*
Y-80000D01*
X42216D01*
X42723Y-80250D01*
X43039Y-80583D01*
X43166Y-81250D01*
X43039Y-81917D01*
X42659Y-82333D01*
X42216Y-82583D01*
X40633D01*
G01X42216D02*
X43166Y-85000D01*
G01X45794Y-82917D02*
X46238Y-82333D01*
X46618Y-82000D01*
X47124Y-81833D01*
X47567Y-82000D01*
X47884Y-82333D01*
X48137Y-82833D01*
X48201Y-83417D01*
X48137Y-83917D01*
X47884Y-84417D01*
X47504Y-84833D01*
X47061Y-85000D01*
X46554Y-84833D01*
X46111Y-84333D01*
X45858Y-83583D01*
X45794Y-82750D01*
X45921Y-81667D01*
X46111Y-81083D01*
X46428Y-80500D01*
X46871Y-80083D01*
X47314Y-80000D01*
X47757Y-80167D01*
X48074Y-80583D01*
G01X40633Y-95000D02*
Y-90000D01*
X42216D01*
X42723Y-90250D01*
X43039Y-90583D01*
X43166Y-91250D01*
X43039Y-91917D01*
X42659Y-92333D01*
X42216Y-92583D01*
X40633D01*
G01X42216D02*
X43166Y-95000D01*
G01X46997D02*
Y-90000D01*
X46238Y-91000D01*
G01Y-95000D02*
X47757D01*
G01X50892Y-92917D02*
X51336Y-92333D01*
X51716Y-92000D01*
X52222Y-91833D01*
X52665Y-92000D01*
X52982Y-92333D01*
X53235Y-92833D01*
X53299Y-93417D01*
X53235Y-93917D01*
X52982Y-94417D01*
X52602Y-94833D01*
X52159Y-95000D01*
X51652Y-94833D01*
X51209Y-94333D01*
X50956Y-93583D01*
X50892Y-92750D01*
X51019Y-91667D01*
X51209Y-91083D01*
X51526Y-90500D01*
X51969Y-90083D01*
X52412Y-90000D01*
X52855Y-90167D01*
X53172Y-90583D01*
G01X40633Y-75000D02*
Y-70000D01*
X42216D01*
X42723Y-70250D01*
X43039Y-70583D01*
X43166Y-71250D01*
X43039Y-71917D01*
X42659Y-72333D01*
X42216Y-72583D01*
X40633D01*
G01X42216D02*
X43166Y-75000D01*
G01X45794Y-70833D02*
X46174Y-70333D01*
X46618Y-70083D01*
X47124Y-70000D01*
X47757Y-70167D01*
X48201Y-70583D01*
X48327Y-71083D01*
X48264Y-71583D01*
X48011Y-72000D01*
X46744Y-72833D01*
X46174Y-73417D01*
X45794Y-74250D01*
X45668Y-75000D01*
X48327D01*
G01X51019Y-74417D02*
X51462Y-74833D01*
X51969Y-75000D01*
X52475Y-74833D01*
X52919Y-74333D01*
X53235Y-73583D01*
X53362Y-72833D01*
Y-71917D01*
X53235Y-71167D01*
X52919Y-70500D01*
X52539Y-70167D01*
X52095Y-70000D01*
X51589Y-70167D01*
X51209Y-70500D01*
X50956Y-71000D01*
X50829Y-71667D01*
X50956Y-72250D01*
X51272Y-72833D01*
X51652Y-73167D01*
X52095Y-73250D01*
X52602Y-73083D01*
X52982Y-72667D01*
X53362Y-71917D01*
G01X40633Y-65000D02*
Y-60000D01*
X42216D01*
X42723Y-60250D01*
X43039Y-60583D01*
X43166Y-61250D01*
X43039Y-61917D01*
X42659Y-62333D01*
X42216Y-62583D01*
X40633D01*
G01X42216D02*
X43166Y-65000D01*
G01X45794Y-60833D02*
X46174Y-60333D01*
X46618Y-60083D01*
X47124Y-60000D01*
X47757Y-60167D01*
X48201Y-60583D01*
X48327Y-61083D01*
X48264Y-61583D01*
X48011Y-62000D01*
X46744Y-62833D01*
X46174Y-63417D01*
X45794Y-64250D01*
X45668Y-65000D01*
X48327D01*
G01X52855D02*
Y-60000D01*
X50513Y-63583D01*
X53678D01*
G01X40633Y-55000D02*
Y-50000D01*
X42216D01*
X42723Y-50250D01*
X43039Y-50583D01*
X43166Y-51250D01*
X43039Y-51917D01*
X42659Y-52333D01*
X42216Y-52583D01*
X40633D01*
G01X42216D02*
X43166Y-55000D01*
G01X45605Y-54000D02*
X45984Y-54583D01*
X46491Y-54917D01*
X47061Y-55000D01*
X47567Y-54917D01*
X48074Y-54500D01*
X48390Y-54000D01*
X48454Y-53500D01*
X48327Y-52917D01*
X47884Y-52500D01*
X47441Y-52333D01*
X46871D01*
G01X47441D02*
X47821Y-52083D01*
X48137Y-51667D01*
X48264Y-51167D01*
X48137Y-50667D01*
X47821Y-50250D01*
X47251Y-50000D01*
X46681Y-50083D01*
X46111Y-50417D01*
G01X52095Y-50000D02*
X51589Y-50167D01*
X51209Y-50583D01*
X50956Y-51083D01*
X50766Y-51750D01*
X50703Y-52500D01*
X50766Y-53250D01*
X50956Y-53917D01*
X51209Y-54417D01*
X51589Y-54833D01*
X52095Y-55000D01*
X52602Y-54833D01*
X52982Y-54417D01*
X53235Y-53917D01*
X53425Y-53250D01*
X53488Y-52500D01*
X53425Y-51750D01*
X53235Y-51083D01*
X52982Y-50583D01*
X52602Y-50167D01*
X52095Y-50000D01*
G01X40793Y19583D02*
X40413Y19833D01*
X39970Y20000D01*
X39463D01*
X38893Y19750D01*
X38450Y19333D01*
X38133Y18833D01*
X37880Y18000D01*
X37817Y17250D01*
X37943Y16500D01*
X38133Y16000D01*
X38513Y15500D01*
X38957Y15167D01*
X39400Y15000D01*
X39843D01*
X40287Y15167D01*
X40667Y15417D01*
X40983Y15750D01*
G01X43423Y15000D02*
Y20000D01*
G01Y17583D02*
X43740Y18000D01*
X44057Y18250D01*
X44563Y18333D01*
X44943Y18250D01*
X45387Y17917D01*
X45577Y17417D01*
Y15000D01*
G01X48713D02*
Y18333D01*
G01Y17667D02*
X49030Y18000D01*
X49347Y18250D01*
X49790Y18333D01*
X50107Y18250D01*
X50487Y18000D01*
G01X54700Y18333D02*
Y15000D01*
G01Y19667D02*
X54573Y19750D01*
Y19917D01*
X54700Y20000D01*
X54827Y19917D01*
Y19750D01*
X54700Y19667D01*
G01X58850Y15583D02*
X59167Y15250D01*
X59610Y15000D01*
X59990D01*
X60370Y15167D01*
X60623Y15417D01*
X60750Y15750D01*
X60687Y16250D01*
X60433Y16500D01*
X59293Y17000D01*
X59040Y17583D01*
X59167Y18000D01*
X59420Y18250D01*
X59800Y18333D01*
X60180Y18250D01*
X60560Y18000D01*
G01X71267Y15000D02*
X68733D01*
Y20000D01*
X71267D01*
G01X70253Y17583D02*
X68733D01*
G01X75100Y15000D02*
Y20000D01*
G01X78617Y18333D02*
X79377Y15000D01*
X80200Y18333D01*
X81023Y15000D01*
X81783Y18333D01*
G01X85300Y15000D02*
X84920Y15083D01*
X84540Y15417D01*
X84287Y16000D01*
X84160Y16667D01*
X84287Y17333D01*
X84540Y17917D01*
X84920Y18250D01*
X85300Y18333D01*
X85680Y18250D01*
X86060Y17917D01*
X86313Y17333D01*
X86377Y16667D01*
X86313Y16000D01*
X86060Y15417D01*
X85680Y15083D01*
X85300Y15000D01*
G01X90400D02*
X90020Y15083D01*
X89640Y15417D01*
X89387Y16000D01*
X89260Y16667D01*
X89387Y17333D01*
X89640Y17917D01*
X90020Y18250D01*
X90400Y18333D01*
X90780Y18250D01*
X91160Y17917D01*
X91413Y17333D01*
X91477Y16667D01*
X91413Y16000D01*
X91160Y15417D01*
X90780Y15083D01*
X90400Y15000D01*
G01X96640Y20000D02*
Y15000D01*
G01Y15750D02*
X96387Y15333D01*
X96007Y15083D01*
X95563Y15000D01*
X95057Y15167D01*
X94677Y15583D01*
X94423Y16083D01*
X94360Y16667D01*
X94423Y17250D01*
X94677Y17750D01*
X95057Y18167D01*
X95563Y18333D01*
X96007Y18250D01*
X96323Y18083D01*
X96640Y17750D01*
G01X105573Y15000D02*
X105700Y16083D01*
X105890Y17000D01*
X106143Y17833D01*
X106460Y18750D01*
X106967Y20000D01*
X104433D01*
G01X109660Y14833D02*
X111940Y20000D01*
G01X114697Y19167D02*
X115077Y19667D01*
X115520Y19917D01*
X116027Y20000D01*
X116660Y19833D01*
X117103Y19417D01*
X117230Y18917D01*
X117167Y18417D01*
X116913Y18000D01*
X115647Y17167D01*
X115077Y16583D01*
X114697Y15750D01*
X114570Y15000D01*
X117230D01*
G01X121000Y20000D02*
X120493Y19833D01*
X120113Y19417D01*
X119860Y18917D01*
X119670Y18250D01*
X119607Y17500D01*
X119670Y16750D01*
X119860Y16083D01*
X120113Y15583D01*
X120493Y15167D01*
X121000Y15000D01*
X121507Y15167D01*
X121887Y15583D01*
X122140Y16083D01*
X122330Y16750D01*
X122393Y17500D01*
X122330Y18250D01*
X122140Y18917D01*
X121887Y19417D01*
X121507Y19833D01*
X121000Y20000D01*
G01X126100Y15000D02*
Y20000D01*
X125340Y19000D01*
G01Y15000D02*
X126860D01*
G01X130123Y15583D02*
X130567Y15167D01*
X131073Y15000D01*
X131580Y15167D01*
X132023Y15667D01*
X132340Y16417D01*
X132467Y17167D01*
Y18083D01*
X132340Y18833D01*
X132023Y19500D01*
X131643Y19833D01*
X131200Y20000D01*
X130693Y19833D01*
X130313Y19500D01*
X130060Y19000D01*
X129933Y18333D01*
X130060Y17750D01*
X130377Y17167D01*
X130757Y16833D01*
X131200Y16750D01*
X131707Y16917D01*
X132087Y17333D01*
X132467Y18083D01*
G01X140577Y16667D02*
X142223D01*
G01X150333Y15000D02*
Y20000D01*
X151917D01*
X152423Y19750D01*
X152740Y19417D01*
X152867Y18750D01*
X152740Y18083D01*
X152360Y17667D01*
X151917Y17417D01*
X150333D01*
G01X151917D02*
X152867Y15000D01*
G01X155750Y17250D02*
X157777D01*
X157587Y17833D01*
X157270Y18167D01*
X156827Y18333D01*
X156383Y18250D01*
X156003Y18000D01*
X155750Y17417D01*
X155623Y16917D01*
Y16417D01*
X155750Y15917D01*
X156067Y15417D01*
X156447Y15083D01*
X156890Y15000D01*
X157333Y15167D01*
X157777Y15667D01*
G01X160660Y18333D02*
X161800Y15000D01*
X162940Y18333D01*
G01X166900Y14833D02*
X166773Y14917D01*
Y15083D01*
X166900Y15167D01*
X167027Y15083D01*
Y14917D01*
X166900Y14833D01*
G01X177607Y17667D02*
X177860Y17917D01*
X178050Y18333D01*
X178177Y18917D01*
X178050Y19417D01*
X177797Y19750D01*
X177353Y20000D01*
X175643D01*
Y15000D01*
X177733D01*
X178177Y15333D01*
X178430Y15833D01*
X178557Y16417D01*
X178430Y17000D01*
X178050Y17500D01*
X177607Y17667D01*
X175643D01*
G01X38007Y26000D02*
X38387Y25417D01*
X38893Y25083D01*
X39463Y25000D01*
X39970Y25083D01*
X40477Y25500D01*
X40793Y26000D01*
X40857Y26500D01*
X40730Y27083D01*
X40287Y27500D01*
X39843Y27667D01*
X39273D01*
G01X39843D02*
X40223Y27917D01*
X40540Y28333D01*
X40667Y28833D01*
X40540Y29333D01*
X40223Y29750D01*
X39653Y30000D01*
X39083Y29917D01*
X38513Y29583D01*
G01X43297Y29167D02*
X43677Y29667D01*
X44120Y29917D01*
X44627Y30000D01*
X45260Y29833D01*
X45703Y29417D01*
X45830Y28917D01*
X45767Y28417D01*
X45513Y28000D01*
X44247Y27167D01*
X43677Y26583D01*
X43297Y25750D01*
X43170Y25000D01*
X45830D01*
G01X56093Y29583D02*
X55713Y29833D01*
X55270Y30000D01*
X54763D01*
X54193Y29750D01*
X53750Y29333D01*
X53433Y28833D01*
X53180Y28000D01*
X53117Y27250D01*
X53243Y26500D01*
X53433Y26000D01*
X53813Y25500D01*
X54257Y25167D01*
X54700Y25000D01*
X55143D01*
X55587Y25167D01*
X55967Y25417D01*
X56283Y25750D01*
G01X58723Y25000D02*
Y30000D01*
G01Y27583D02*
X59040Y28000D01*
X59357Y28250D01*
X59863Y28333D01*
X60243Y28250D01*
X60687Y27917D01*
X60877Y27417D01*
Y25000D01*
G01X66040D02*
Y28333D01*
G01Y27750D02*
X65787Y28083D01*
X65407Y28250D01*
X64963Y28333D01*
X64520Y28167D01*
X64140Y27833D01*
X63887Y27333D01*
X63760Y26667D01*
X63887Y26000D01*
X64140Y25500D01*
X64520Y25167D01*
X64963Y25000D01*
X65407Y25083D01*
X65787Y25333D01*
X66040Y25667D01*
G01X68923Y25000D02*
Y28333D01*
G01Y27500D02*
X69177Y27917D01*
X69557Y28250D01*
X70063Y28333D01*
X70507Y28250D01*
X70887Y27917D01*
X71077Y27333D01*
Y25000D01*
G01X74023D02*
Y28333D01*
G01Y27500D02*
X74277Y27917D01*
X74657Y28250D01*
X75163Y28333D01*
X75607Y28250D01*
X75987Y27917D01*
X76177Y27333D01*
Y25000D01*
G01X79250Y27250D02*
X81277D01*
X81087Y27833D01*
X80770Y28167D01*
X80327Y28333D01*
X79883Y28250D01*
X79503Y28000D01*
X79250Y27417D01*
X79123Y26917D01*
Y26417D01*
X79250Y25917D01*
X79567Y25417D01*
X79947Y25083D01*
X80390Y25000D01*
X80833Y25167D01*
X81277Y25667D01*
G01X85300Y25000D02*
Y30000D01*
G01X94107Y25000D02*
Y30000D01*
X95373D01*
X95880Y29750D01*
X96260Y29417D01*
X96577Y28917D01*
X96830Y28333D01*
X96893Y27500D01*
X96830Y26667D01*
X96577Y26083D01*
X96260Y25583D01*
X95880Y25250D01*
X95373Y25000D01*
X94107D01*
G01X100600Y28333D02*
Y25000D01*
G01Y29667D02*
X100473Y29750D01*
Y29917D01*
X100600Y30000D01*
X100727Y29917D01*
Y29750D01*
X100600Y29667D01*
G01X104813Y23750D02*
X105257Y23417D01*
X105763Y23333D01*
X106207Y23417D01*
X106587Y23833D01*
X106840Y24417D01*
Y28333D01*
G01Y27667D02*
X106587Y28000D01*
X106207Y28250D01*
X105763Y28333D01*
X105257Y28167D01*
X104940Y27833D01*
X104687Y27250D01*
X104560Y26667D01*
X104623Y26167D01*
X104877Y25583D01*
X105257Y25167D01*
X105763Y25000D01*
X106143Y25083D01*
X106587Y25417D01*
X106840Y25750D01*
G01X110800Y28333D02*
Y25000D01*
G01Y29667D02*
X110673Y29750D01*
Y29917D01*
X110800Y30000D01*
X110927Y29917D01*
Y29750D01*
X110800Y29667D01*
G01X115900Y30000D02*
Y25000D01*
G01X115013Y28333D02*
X116787D01*
G01X122140Y25000D02*
Y28333D01*
G01Y27750D02*
X121887Y28083D01*
X121507Y28250D01*
X121063Y28333D01*
X120620Y28167D01*
X120240Y27833D01*
X119987Y27333D01*
X119860Y26667D01*
X119987Y26000D01*
X120240Y25500D01*
X120620Y25167D01*
X121063Y25000D01*
X121507Y25083D01*
X121887Y25333D01*
X122140Y25667D01*
G01X126100Y25000D02*
Y30000D01*
G01X136300Y25000D02*
X135793Y25083D01*
X135350Y25417D01*
X134970Y25917D01*
X134717Y26500D01*
X134590Y27167D01*
Y27833D01*
X134717Y28500D01*
X134970Y29083D01*
X135350Y29583D01*
X135793Y29917D01*
X136300Y30000D01*
X136807Y29917D01*
X137250Y29583D01*
X137630Y29083D01*
X137883Y28500D01*
X138010Y27833D01*
Y27167D01*
X137883Y26500D01*
X137630Y25917D01*
X137250Y25417D01*
X136807Y25083D01*
X136300Y25000D01*
G01X140323Y28333D02*
Y26000D01*
X140577Y25417D01*
X140957Y25083D01*
X141400Y25000D01*
X141843Y25083D01*
X142223Y25417D01*
X142477Y26000D01*
G01Y25000D02*
Y28333D01*
G01X146500Y30000D02*
Y25000D01*
G01X145613Y28333D02*
X147387D01*
G01X150460Y23333D02*
Y28333D01*
G01Y27583D02*
X150777Y28000D01*
X151093Y28250D01*
X151600Y28333D01*
X152043Y28250D01*
X152487Y27833D01*
X152677Y27250D01*
X152740Y26667D01*
X152677Y26083D01*
X152487Y25500D01*
X152107Y25167D01*
X151600Y25000D01*
X151157Y25083D01*
X150713Y25333D01*
X150460Y25667D01*
G01X155623Y28333D02*
Y26000D01*
X155877Y25417D01*
X156257Y25083D01*
X156700Y25000D01*
X157143Y25083D01*
X157523Y25417D01*
X157777Y26000D01*
G01Y25000D02*
Y28333D01*
G01X161800Y30000D02*
Y25000D01*
G01X160913Y28333D02*
X162687D01*
G01X173393Y29583D02*
X173013Y29833D01*
X172570Y30000D01*
X172063D01*
X171493Y29750D01*
X171050Y29333D01*
X170733Y28833D01*
X170480Y28000D01*
X170417Y27250D01*
X170543Y26500D01*
X170733Y26000D01*
X171113Y25500D01*
X171557Y25167D01*
X172000Y25000D01*
X172443D01*
X172887Y25167D01*
X173267Y25417D01*
X173583Y25750D01*
G01X178240Y25000D02*
Y28333D01*
G01Y27750D02*
X177987Y28083D01*
X177607Y28250D01*
X177163Y28333D01*
X176720Y28167D01*
X176340Y27833D01*
X176087Y27333D01*
X175960Y26667D01*
X176087Y26000D01*
X176340Y25500D01*
X176720Y25167D01*
X177163Y25000D01*
X177607Y25083D01*
X177987Y25333D01*
X178240Y25667D01*
G01X181313Y25000D02*
Y28333D01*
G01Y27667D02*
X181630Y28000D01*
X181947Y28250D01*
X182390Y28333D01*
X182707Y28250D01*
X183087Y28000D01*
G01X188440Y30000D02*
Y25000D01*
G01Y25750D02*
X188187Y25333D01*
X187807Y25083D01*
X187363Y25000D01*
X186857Y25167D01*
X186477Y25583D01*
X186223Y26083D01*
X186160Y26667D01*
X186223Y27250D01*
X186477Y27750D01*
X186857Y28167D01*
X187363Y28333D01*
X187807Y28250D01*
X188123Y28083D01*
X188440Y27750D01*
G01X65000Y-198957D02*
Y-206043D01*
G01Y-188957D02*
Y-196043D01*
G01X45633Y-185000D02*
Y-180000D01*
X47216D01*
X47723Y-180250D01*
X48039Y-180583D01*
X48166Y-181250D01*
X48039Y-181917D01*
X47659Y-182333D01*
X47216Y-182583D01*
X45633D01*
G01X47216D02*
X48166Y-185000D01*
G01X50921Y-184417D02*
X51364Y-184833D01*
X51871Y-185000D01*
X52377Y-184833D01*
X52821Y-184333D01*
X53137Y-183583D01*
X53264Y-182833D01*
Y-181917D01*
X53137Y-181167D01*
X52821Y-180500D01*
X52441Y-180167D01*
X51997Y-180000D01*
X51491Y-180167D01*
X51111Y-180500D01*
X50858Y-181000D01*
X50731Y-181667D01*
X50858Y-182250D01*
X51174Y-182833D01*
X51554Y-183167D01*
X51997Y-183250D01*
X52504Y-183083D01*
X52884Y-182667D01*
X53264Y-181917D01*
G01X65000Y-186043D02*
Y-178957D01*
G01Y-176043D02*
Y-168957D01*
G01Y-166043D02*
Y-158957D01*
G01Y-136043D02*
Y-128957D01*
G01Y-146043D02*
Y-138957D01*
G01X42633Y-155000D02*
Y-150000D01*
X44216D01*
X44723Y-150250D01*
X45039Y-150583D01*
X45166Y-151250D01*
X45039Y-151917D01*
X44659Y-152333D01*
X44216Y-152583D01*
X42633D01*
G01X44216D02*
X45166Y-155000D01*
G01X47605Y-154000D02*
X47984Y-154583D01*
X48491Y-154917D01*
X49061Y-155000D01*
X49567Y-154917D01*
X50074Y-154500D01*
X50390Y-154000D01*
X50454Y-153500D01*
X50327Y-152917D01*
X49884Y-152500D01*
X49441Y-152333D01*
X48871D01*
G01X49441D02*
X49821Y-152083D01*
X50137Y-151667D01*
X50264Y-151167D01*
X50137Y-150667D01*
X49821Y-150250D01*
X49251Y-150000D01*
X48681Y-150083D01*
X48111Y-150417D01*
G01X52892Y-150833D02*
X53272Y-150333D01*
X53716Y-150083D01*
X54222Y-150000D01*
X54855Y-150167D01*
X55299Y-150583D01*
X55425Y-151083D01*
X55362Y-151583D01*
X55109Y-152000D01*
X53842Y-152833D01*
X53272Y-153417D01*
X52892Y-154250D01*
X52766Y-155000D01*
X55425D01*
G01X65000Y-148957D02*
Y-156043D01*
G01Y-126043D02*
Y-118957D01*
G01Y-106043D02*
Y-98957D01*
G01Y-116043D02*
Y-108957D01*
G01Y-86043D02*
Y-78957D01*
G01Y-96043D02*
Y-88957D01*
G01Y-68957D02*
Y-76043D01*
G01Y-58957D02*
Y-66043D01*
G01Y-48957D02*
Y-56043D01*
G01X95000Y-206043D02*
Y-198957D01*
G01Y-196043D02*
Y-188957D01*
G01Y-186043D02*
Y-178957D01*
G01Y-166043D02*
Y-158957D01*
G01Y-168957D02*
Y-176043D01*
G01Y-156043D02*
Y-148957D01*
G01Y-136043D02*
Y-128957D01*
G01Y-138957D02*
Y-146043D01*
G01Y-126043D02*
Y-118957D01*
G01Y-108957D02*
Y-116043D01*
G01Y-98957D02*
Y-106043D01*
G01Y-76043D02*
Y-68957D01*
G01Y-78957D02*
Y-86043D01*
G01Y-88957D02*
Y-96043D01*
G01Y-66043D02*
Y-58957D01*
G01Y-56043D02*
Y-48957D01*
G01X105633Y-205000D02*
Y-200000D01*
X107216D01*
X107723Y-200250D01*
X108039Y-200583D01*
X108166Y-201250D01*
X108039Y-201917D01*
X107659Y-202333D01*
X107216Y-202583D01*
X105633D01*
G01X107216D02*
X108166Y-205000D01*
G01X111997D02*
X112441Y-204917D01*
X112947Y-204667D01*
X113264Y-204250D01*
X113390Y-203667D01*
X113264Y-203083D01*
X112884Y-202583D01*
X112314Y-202333D01*
X111681D01*
X111301Y-202167D01*
X110984Y-201750D01*
X110858Y-201167D01*
X111048Y-200583D01*
X111491Y-200167D01*
X111997Y-200000D01*
X112504Y-200167D01*
X112947Y-200583D01*
X113137Y-201167D01*
X113011Y-201750D01*
X112694Y-202167D01*
X112314Y-202333D01*
X111681D01*
X111111Y-202583D01*
X110731Y-203083D01*
X110605Y-203667D01*
X110731Y-204250D01*
X111048Y-204667D01*
X111554Y-204917D01*
X111997Y-205000D01*
G01X105633Y-195000D02*
Y-190000D01*
X107216D01*
X107723Y-190250D01*
X108039Y-190583D01*
X108166Y-191250D01*
X108039Y-191917D01*
X107659Y-192333D01*
X107216Y-192583D01*
X105633D01*
G01X107216D02*
X108166Y-195000D01*
G01X111997D02*
Y-190000D01*
X111238Y-191000D01*
G01Y-195000D02*
X112757D01*
G01X116019Y-194417D02*
X116462Y-194833D01*
X116969Y-195000D01*
X117475Y-194833D01*
X117919Y-194333D01*
X118235Y-193583D01*
X118362Y-192833D01*
Y-191917D01*
X118235Y-191167D01*
X117919Y-190500D01*
X117539Y-190167D01*
X117095Y-190000D01*
X116589Y-190167D01*
X116209Y-190500D01*
X115956Y-191000D01*
X115829Y-191667D01*
X115956Y-192250D01*
X116272Y-192833D01*
X116652Y-193167D01*
X117095Y-193250D01*
X117602Y-193083D01*
X117982Y-192667D01*
X118362Y-191917D01*
G01X105633Y-185000D02*
Y-180000D01*
X107216D01*
X107723Y-180250D01*
X108039Y-180583D01*
X108166Y-181250D01*
X108039Y-181917D01*
X107659Y-182333D01*
X107216Y-182583D01*
X105633D01*
G01X107216D02*
X108166Y-185000D01*
G01X111997D02*
Y-180000D01*
X111238Y-181000D01*
G01Y-185000D02*
X112757D01*
G01X105633Y-165000D02*
Y-160000D01*
X107216D01*
X107723Y-160250D01*
X108039Y-160583D01*
X108166Y-161250D01*
X108039Y-161917D01*
X107659Y-162333D01*
X107216Y-162583D01*
X105633D01*
G01X107216D02*
X108166Y-165000D01*
G01X110794Y-160833D02*
X111174Y-160333D01*
X111618Y-160083D01*
X112124Y-160000D01*
X112757Y-160167D01*
X113201Y-160583D01*
X113327Y-161083D01*
X113264Y-161583D01*
X113011Y-162000D01*
X111744Y-162833D01*
X111174Y-163417D01*
X110794Y-164250D01*
X110668Y-165000D01*
X113327D01*
G01X105633Y-175000D02*
Y-170000D01*
X107216D01*
X107723Y-170250D01*
X108039Y-170583D01*
X108166Y-171250D01*
X108039Y-171917D01*
X107659Y-172333D01*
X107216Y-172583D01*
X105633D01*
G01X107216D02*
X108166Y-175000D01*
G01X110794Y-170833D02*
X111174Y-170333D01*
X111618Y-170083D01*
X112124Y-170000D01*
X112757Y-170167D01*
X113201Y-170583D01*
X113327Y-171083D01*
X113264Y-171583D01*
X113011Y-172000D01*
X111744Y-172833D01*
X111174Y-173417D01*
X110794Y-174250D01*
X110668Y-175000D01*
X113327D01*
G01X115892Y-172917D02*
X116336Y-172333D01*
X116716Y-172000D01*
X117222Y-171833D01*
X117665Y-172000D01*
X117982Y-172333D01*
X118235Y-172833D01*
X118299Y-173417D01*
X118235Y-173917D01*
X117982Y-174417D01*
X117602Y-174833D01*
X117159Y-175000D01*
X116652Y-174833D01*
X116209Y-174333D01*
X115956Y-173583D01*
X115892Y-172750D01*
X116019Y-171667D01*
X116209Y-171083D01*
X116526Y-170500D01*
X116969Y-170083D01*
X117412Y-170000D01*
X117855Y-170167D01*
X118172Y-170583D01*
G01X105633Y-155000D02*
Y-150000D01*
X107216D01*
X107723Y-150250D01*
X108039Y-150583D01*
X108166Y-151250D01*
X108039Y-151917D01*
X107659Y-152333D01*
X107216Y-152583D01*
X105633D01*
G01X107216D02*
X108166Y-155000D01*
G01X111997D02*
Y-150000D01*
X111238Y-151000D01*
G01Y-155000D02*
X112757D01*
G01X117095Y-150000D02*
X116589Y-150167D01*
X116209Y-150583D01*
X115956Y-151083D01*
X115766Y-151750D01*
X115703Y-152500D01*
X115766Y-153250D01*
X115956Y-153917D01*
X116209Y-154417D01*
X116589Y-154833D01*
X117095Y-155000D01*
X117602Y-154833D01*
X117982Y-154417D01*
X118235Y-153917D01*
X118425Y-153250D01*
X118488Y-152500D01*
X118425Y-151750D01*
X118235Y-151083D01*
X117982Y-150583D01*
X117602Y-150167D01*
X117095Y-150000D01*
G01X105633Y-135000D02*
Y-130000D01*
X107216D01*
X107723Y-130250D01*
X108039Y-130583D01*
X108166Y-131250D01*
X108039Y-131917D01*
X107659Y-132333D01*
X107216Y-132583D01*
X105633D01*
G01X107216D02*
X108166Y-135000D01*
G01X110794Y-130833D02*
X111174Y-130333D01*
X111618Y-130083D01*
X112124Y-130000D01*
X112757Y-130167D01*
X113201Y-130583D01*
X113327Y-131083D01*
X113264Y-131583D01*
X113011Y-132000D01*
X111744Y-132833D01*
X111174Y-133417D01*
X110794Y-134250D01*
X110668Y-135000D01*
X113327D01*
G01X117095D02*
Y-130000D01*
X116336Y-131000D01*
G01Y-135000D02*
X117855D01*
G01X105633Y-145000D02*
Y-140000D01*
X107216D01*
X107723Y-140250D01*
X108039Y-140583D01*
X108166Y-141250D01*
X108039Y-141917D01*
X107659Y-142333D01*
X107216Y-142583D01*
X105633D01*
G01X107216D02*
X108166Y-145000D01*
G01X110794Y-140833D02*
X111174Y-140333D01*
X111618Y-140083D01*
X112124Y-140000D01*
X112757Y-140167D01*
X113201Y-140583D01*
X113327Y-141083D01*
X113264Y-141583D01*
X113011Y-142000D01*
X111744Y-142833D01*
X111174Y-143417D01*
X110794Y-144250D01*
X110668Y-145000D01*
X113327D01*
G01X116969D02*
X117095Y-143917D01*
X117285Y-143000D01*
X117539Y-142167D01*
X117855Y-141250D01*
X118362Y-140000D01*
X115829D01*
G01X105633Y-125000D02*
Y-120000D01*
X107216D01*
X107723Y-120250D01*
X108039Y-120583D01*
X108166Y-121250D01*
X108039Y-121917D01*
X107659Y-122333D01*
X107216Y-122583D01*
X105633D01*
G01X107216D02*
X108166Y-125000D01*
G01X111997D02*
Y-120000D01*
X111238Y-121000D01*
G01Y-125000D02*
X112757D01*
G01X117855D02*
Y-120000D01*
X115513Y-123583D01*
X118678D01*
G01X105633Y-115000D02*
Y-110000D01*
X107216D01*
X107723Y-110250D01*
X108039Y-110583D01*
X108166Y-111250D01*
X108039Y-111917D01*
X107659Y-112333D01*
X107216Y-112583D01*
X105633D01*
G01X107216D02*
X108166Y-115000D01*
G01X111997D02*
Y-110000D01*
X111238Y-111000D01*
G01Y-115000D02*
X112757D01*
G01X117095D02*
Y-110000D01*
X116336Y-111000D01*
G01Y-115000D02*
X117855D01*
G01X105633Y-105000D02*
Y-100000D01*
X107216D01*
X107723Y-100250D01*
X108039Y-100583D01*
X108166Y-101250D01*
X108039Y-101917D01*
X107659Y-102333D01*
X107216Y-102583D01*
X105633D01*
G01X107216D02*
X108166Y-105000D01*
G01X110794Y-100833D02*
X111174Y-100333D01*
X111618Y-100083D01*
X112124Y-100000D01*
X112757Y-100167D01*
X113201Y-100583D01*
X113327Y-101083D01*
X113264Y-101583D01*
X113011Y-102000D01*
X111744Y-102833D01*
X111174Y-103417D01*
X110794Y-104250D01*
X110668Y-105000D01*
X113327D01*
G01X115892Y-100833D02*
X116272Y-100333D01*
X116716Y-100083D01*
X117222Y-100000D01*
X117855Y-100167D01*
X118299Y-100583D01*
X118425Y-101083D01*
X118362Y-101583D01*
X118109Y-102000D01*
X116842Y-102833D01*
X116272Y-103417D01*
X115892Y-104250D01*
X115766Y-105000D01*
X118425D01*
G01X105633Y-75000D02*
Y-70000D01*
X107216D01*
X107723Y-70250D01*
X108039Y-70583D01*
X108166Y-71250D01*
X108039Y-71917D01*
X107659Y-72333D01*
X107216Y-72583D01*
X105633D01*
G01X107216D02*
X108166Y-75000D01*
G01X111997D02*
Y-70000D01*
X111238Y-71000D01*
G01Y-75000D02*
X112757D01*
G01X116969D02*
X117095Y-73917D01*
X117285Y-73000D01*
X117539Y-72167D01*
X117855Y-71250D01*
X118362Y-70000D01*
X115829D01*
G01X105633Y-85000D02*
Y-80000D01*
X107216D01*
X107723Y-80250D01*
X108039Y-80583D01*
X108166Y-81250D01*
X108039Y-81917D01*
X107659Y-82333D01*
X107216Y-82583D01*
X105633D01*
G01X107216D02*
X108166Y-85000D01*
G01X110794Y-80833D02*
X111174Y-80333D01*
X111618Y-80083D01*
X112124Y-80000D01*
X112757Y-80167D01*
X113201Y-80583D01*
X113327Y-81083D01*
X113264Y-81583D01*
X113011Y-82000D01*
X111744Y-82833D01*
X111174Y-83417D01*
X110794Y-84250D01*
X110668Y-85000D01*
X113327D01*
G01X115703Y-84000D02*
X116082Y-84583D01*
X116589Y-84917D01*
X117159Y-85000D01*
X117665Y-84917D01*
X118172Y-84500D01*
X118488Y-84000D01*
X118552Y-83500D01*
X118425Y-82917D01*
X117982Y-82500D01*
X117539Y-82333D01*
X116969D01*
G01X117539D02*
X117919Y-82083D01*
X118235Y-81667D01*
X118362Y-81167D01*
X118235Y-80667D01*
X117919Y-80250D01*
X117349Y-80000D01*
X116779Y-80083D01*
X116209Y-80417D01*
G01X105633Y-95000D02*
Y-90000D01*
X107216D01*
X107723Y-90250D01*
X108039Y-90583D01*
X108166Y-91250D01*
X108039Y-91917D01*
X107659Y-92333D01*
X107216Y-92583D01*
X105633D01*
G01X107216D02*
X108166Y-95000D01*
G01X110794Y-90833D02*
X111174Y-90333D01*
X111618Y-90083D01*
X112124Y-90000D01*
X112757Y-90167D01*
X113201Y-90583D01*
X113327Y-91083D01*
X113264Y-91583D01*
X113011Y-92000D01*
X111744Y-92833D01*
X111174Y-93417D01*
X110794Y-94250D01*
X110668Y-95000D01*
X113327D01*
G01X117095D02*
X117539Y-94917D01*
X118045Y-94667D01*
X118362Y-94250D01*
X118488Y-93667D01*
X118362Y-93083D01*
X117982Y-92583D01*
X117412Y-92333D01*
X116779D01*
X116399Y-92167D01*
X116082Y-91750D01*
X115956Y-91167D01*
X116146Y-90583D01*
X116589Y-90167D01*
X117095Y-90000D01*
X117602Y-90167D01*
X118045Y-90583D01*
X118235Y-91167D01*
X118109Y-91750D01*
X117792Y-92167D01*
X117412Y-92333D01*
X116779D01*
X116209Y-92583D01*
X115829Y-93083D01*
X115703Y-93667D01*
X115829Y-94250D01*
X116146Y-94667D01*
X116652Y-94917D01*
X117095Y-95000D01*
G01X105633Y-65000D02*
Y-60000D01*
X107216D01*
X107723Y-60250D01*
X108039Y-60583D01*
X108166Y-61250D01*
X108039Y-61917D01*
X107659Y-62333D01*
X107216Y-62583D01*
X105633D01*
G01X107216D02*
X108166Y-65000D01*
G01X111871D02*
X111997Y-63917D01*
X112187Y-63000D01*
X112441Y-62167D01*
X112757Y-61250D01*
X113264Y-60000D01*
X110731D01*
G01X105633Y-55000D02*
Y-50000D01*
X107216D01*
X107723Y-50250D01*
X108039Y-50583D01*
X108166Y-51250D01*
X108039Y-51917D01*
X107659Y-52333D01*
X107216Y-52583D01*
X105633D01*
G01X107216D02*
X108166Y-55000D01*
G01X111997D02*
Y-50000D01*
X111238Y-51000D01*
G01Y-55000D02*
X112757D01*
G01X117095D02*
X117539Y-54917D01*
X118045Y-54667D01*
X118362Y-54250D01*
X118488Y-53667D01*
X118362Y-53083D01*
X117982Y-52583D01*
X117412Y-52333D01*
X116779D01*
X116399Y-52167D01*
X116082Y-51750D01*
X115956Y-51167D01*
X116146Y-50583D01*
X116589Y-50167D01*
X117095Y-50000D01*
X117602Y-50167D01*
X118045Y-50583D01*
X118235Y-51167D01*
X118109Y-51750D01*
X117792Y-52167D01*
X117412Y-52333D01*
X116779D01*
X116209Y-52583D01*
X115829Y-53083D01*
X115703Y-53667D01*
X115829Y-54250D01*
X116146Y-54667D01*
X116652Y-54917D01*
X117095Y-55000D01*
G01X160507Y-135000D02*
Y-138583D01*
X160760Y-139333D01*
X161266Y-139833D01*
X161899Y-140000D01*
X162533Y-139833D01*
X163039Y-139333D01*
X163292Y-138583D01*
Y-135000D01*
G01X166997Y-140000D02*
Y-135000D01*
X166238Y-136000D01*
G01Y-140000D02*
X167757D01*
G01X160507Y-35000D02*
Y-38583D01*
X160760Y-39333D01*
X161266Y-39833D01*
X161899Y-40000D01*
X162533Y-39833D01*
X163039Y-39333D01*
X163292Y-38583D01*
Y-35000D01*
G01X165794Y-35833D02*
X166174Y-35333D01*
X166618Y-35083D01*
X167124Y-35000D01*
X167757Y-35167D01*
X168201Y-35583D01*
X168327Y-36083D01*
X168264Y-36583D01*
X168011Y-37000D01*
X166744Y-37833D01*
X166174Y-38417D01*
X165794Y-39250D01*
X165668Y-40000D01*
X168327D01*
G01X186811Y-212736D02*
X163189D01*
G01Y-212933D02*
Y-142067D01*
G01X186811D02*
Y-212736D01*
G01X163189Y-142264D02*
X186811D01*
G01Y-112736D02*
X163189D01*
G01Y-112933D02*
Y-42067D01*
G01X186811D02*
Y-112736D01*
G01X163189Y-42264D02*
X186811D01*
G01X210417Y-171708D02*
X210167Y-172087D01*
X210000Y-172531D01*
Y-173037D01*
X210250Y-173607D01*
X210667Y-174050D01*
X211167Y-174367D01*
X212000Y-174620D01*
X212750Y-174683D01*
X213500Y-174557D01*
X214000Y-174367D01*
X214500Y-173987D01*
X214833Y-173544D01*
X215000Y-173101D01*
Y-172657D01*
X214833Y-172214D01*
X214583Y-171834D01*
X214250Y-171518D01*
G01X215000Y-168003D02*
X210000D01*
X211000Y-168762D01*
G01X215000D02*
Y-167243D01*
G01X205531Y-167500D02*
X209469D01*
G01X207917Y-66708D02*
X207667Y-67087D01*
X207500Y-67531D01*
Y-68037D01*
X207750Y-68607D01*
X208167Y-69050D01*
X208667Y-69367D01*
X209500Y-69620D01*
X210250Y-69683D01*
X211000Y-69557D01*
X211500Y-69367D01*
X212000Y-68987D01*
X212333Y-68544D01*
X212500Y-68101D01*
Y-67657D01*
X212333Y-67214D01*
X212083Y-66834D01*
X211750Y-66518D01*
G01X208333Y-64206D02*
X207833Y-63826D01*
X207583Y-63382D01*
X207500Y-62876D01*
X207667Y-62243D01*
X208083Y-61799D01*
X208583Y-61673D01*
X209083Y-61736D01*
X209500Y-61989D01*
X210333Y-63256D01*
X210917Y-63826D01*
X211750Y-64206D01*
X212500Y-64332D01*
Y-61673D01*
G01X203031Y-67500D02*
X206969D01*
G01X260507Y-10000D02*
Y-13583D01*
X260760Y-14333D01*
X261267Y-14833D01*
X261900Y-15000D01*
X262533Y-14833D01*
X263040Y-14333D01*
X263293Y-13583D01*
Y-10000D01*
G01X265607Y-14000D02*
X265987Y-14583D01*
X266493Y-14917D01*
X267063Y-15000D01*
X267570Y-14917D01*
X268077Y-14500D01*
X268393Y-14000D01*
X268457Y-13500D01*
X268330Y-12917D01*
X267887Y-12500D01*
X267443Y-12333D01*
X266873D01*
G01X267443D02*
X267823Y-12083D01*
X268140Y-11667D01*
X268267Y-11167D01*
X268140Y-10667D01*
X267823Y-10250D01*
X267253Y-10000D01*
X266683Y-10083D01*
X266113Y-10417D01*
G01X272500Y-7500D02*
X262500D01*
Y12500D01*
X272500D01*
Y-7500D01*
G01X271000Y-5000D02*
G03I-1000J0D01*
G01X268292Y24583D02*
X267913Y24833D01*
X267469Y25000D01*
X266963D01*
X266393Y24750D01*
X265950Y24333D01*
X265633Y23833D01*
X265380Y23000D01*
X265317Y22250D01*
X265443Y21500D01*
X265633Y21000D01*
X266013Y20500D01*
X266456Y20167D01*
X266899Y20000D01*
X267343D01*
X267786Y20167D01*
X268166Y20417D01*
X268482Y20750D01*
G01X270605Y21000D02*
X270984Y20417D01*
X271491Y20083D01*
X272061Y20000D01*
X272567Y20083D01*
X273074Y20500D01*
X273390Y21000D01*
X273454Y21500D01*
X273327Y22083D01*
X272884Y22500D01*
X272441Y22667D01*
X271871D01*
G01X272441D02*
X272821Y22917D01*
X273137Y23333D01*
X273264Y23833D01*
X273137Y24333D01*
X272821Y24750D01*
X272251Y25000D01*
X271681Y24917D01*
X271111Y24583D01*
G01X267500Y19469D02*
Y15531D01*
G01X320000Y-19557D02*
X315000D01*
X320000Y-16643D01*
X315000D01*
G01X320000Y-13000D02*
X319917Y-13380D01*
X319583Y-13760D01*
X319000Y-14013D01*
X318333Y-14140D01*
X317667Y-14013D01*
X317083Y-13760D01*
X316750Y-13380D01*
X316667Y-13000D01*
X316750Y-12620D01*
X317083Y-12240D01*
X317667Y-11987D01*
X318333Y-11923D01*
X319000Y-11987D01*
X319583Y-12240D01*
X319917Y-12620D01*
X320000Y-13000D01*
G01X315000Y-7900D02*
X320000D01*
G01X316667Y-8787D02*
Y-7013D01*
G01X320000Y1033D02*
X315000D01*
Y2553D01*
X315250Y3060D01*
X315833Y3440D01*
X316500Y3567D01*
X317167Y3440D01*
X317667Y3123D01*
X317917Y2553D01*
Y1033D01*
G01X315417Y8793D02*
X315167Y8413D01*
X315000Y7970D01*
Y7463D01*
X315250Y6893D01*
X315667Y6450D01*
X316167Y6133D01*
X317000Y5880D01*
X317750Y5817D01*
X318500Y5943D01*
X319000Y6133D01*
X319500Y6513D01*
X319833Y6957D01*
X320000Y7400D01*
Y7843D01*
X319833Y8287D01*
X319583Y8667D01*
X319250Y8983D01*
G01X315000Y11740D02*
Y13260D01*
G01Y12500D02*
X320000D01*
G01Y11740D02*
Y13260D01*
G01X317750Y16650D02*
Y18677D01*
X317167Y18487D01*
X316833Y18170D01*
X316667Y17727D01*
X316750Y17283D01*
X317000Y16903D01*
X317583Y16650D01*
X318083Y16523D01*
X318583D01*
X319083Y16650D01*
X319583Y16967D01*
X319917Y17347D01*
X320000Y17790D01*
X319833Y18233D01*
X319333Y18677D01*
G01X331000Y34367D02*
X330500Y34050D01*
X330167Y33670D01*
X330000Y33227D01*
X330167Y32721D01*
X330500Y32341D01*
X331000Y31961D01*
X331667Y31834D01*
X335000D01*
G01X330000Y28003D02*
X335000D01*
X334000Y28762D01*
G01X330000D02*
Y27243D01*
M02*
