G04 ================== begin FILE IDENTIFICATION RECORD ==================*
G04 Layout Name:  DIG_OUT_CARD.brd*
G04 Film Name:    SM_TOP*
G04 File Format:  Gerber RS274X*
G04 File Origin:  Cadence Allegro 17.2-S057*
G04 Origin Date:  Wed Aug 07 01:21:42 2019*
G04 *
G04 Layer:  VIA CLASS/SOLDERMASK_TOP*
G04 Layer:  PIN/SOLDERMASK_TOP*
G04 Layer:  PACKAGE GEOMETRY/SOLDERMASK_BOTTOM*
G04 Layer:  BOARD GEOMETRY/SOLDERMASK_TOP*
G04 *
G04 Offset:    (0.00 0.00)*
G04 Mirror:    No*
G04 Mode:      Positive*
G04 Rotation:  0*
G04 FullContactRelief:  No*
G04 UndefLineWidth:     0.00*
G04 ================== end FILE IDENTIFICATION RECORD ====================*
%FSLAX55Y55*MOIN*%
%IR0*IPPOS*OFA0.00000B0.00000*MIA0B0*SFA1.00000B1.00000*%
%ADD18R,.13201X.03358*%
%ADD17R,.17138X.03358*%
%ADD15R,.04528X.04528*%
%ADD12C,.07689*%
%ADD16R,.091X.031*%
%ADD10C,.14173*%
%ADD11C,.20287*%
%ADD13R,.05118X.07677*%
%ADD14R,.08476X.02965*%
G75*
%LPD*%
G75*
G36*
G01X338346Y-42087D02*
X358031D01*
X360000Y-40118D01*
Y-15709D01*
X358031Y-13740D01*
X338346D01*
Y-42087D01*
G37*
G36*
G01Y-6260D02*
X358031D01*
X360000Y-4291D01*
Y35866D01*
X358031Y37835D01*
X338346D01*
Y-6260D01*
G37*
G54D10*
X-10000Y-302165D03*
Y27835D03*
G54D11*
X16072Y-227217D03*
Y-42177D03*
G54D12*
X6072Y-186784D03*
Y-195799D03*
Y-159736D03*
Y-168752D03*
Y-177768D03*
Y-132689D03*
Y-141705D03*
Y-150721D03*
Y-96626D03*
Y-105642D03*
Y-114658D03*
Y-123673D03*
Y-78595D03*
Y-87610D03*
X16072Y-191311D03*
Y-200327D03*
X26072Y-186784D03*
Y-195799D03*
X16072Y-164264D03*
Y-173280D03*
Y-182295D03*
X26072Y-159736D03*
Y-168752D03*
Y-177768D03*
X16072Y-128201D03*
Y-137217D03*
Y-146232D03*
Y-155248D03*
X26072Y-132689D03*
Y-141705D03*
Y-150721D03*
X16072Y-101154D03*
Y-110169D03*
Y-119185D03*
X26072Y-96626D03*
Y-105642D03*
Y-114658D03*
Y-123673D03*
X16072Y-74106D03*
Y-83122D03*
Y-92138D03*
X26072Y-69579D03*
Y-78595D03*
Y-87610D03*
G54D13*
X70709Y-202500D03*
X59291D03*
X70709Y-192500D03*
X59291D03*
Y-182500D03*
X70709D03*
X59291Y-172500D03*
X70709D03*
X59291Y-162500D03*
X70709D03*
X59291Y-132500D03*
X70709D03*
X59291Y-142500D03*
X70709D03*
Y-152500D03*
X59291D03*
Y-122500D03*
X70709D03*
X59291Y-102500D03*
X70709D03*
X59291Y-112500D03*
X70709D03*
X59291Y-82500D03*
X70709D03*
X59291Y-92500D03*
X70709D03*
Y-72500D03*
X59291D03*
X70709Y-62500D03*
X59291D03*
X70709Y-52500D03*
X59291D03*
X89291Y-202500D03*
X100709D03*
X89291Y-192500D03*
X100709D03*
X89291Y-182500D03*
X100709D03*
X89291Y-162500D03*
X100709D03*
Y-172500D03*
X89291D03*
Y-152500D03*
X100709D03*
X89291Y-132500D03*
X100709D03*
Y-142500D03*
X89291D03*
Y-122500D03*
X100709D03*
Y-112500D03*
X89291D03*
X100709Y-102500D03*
X89291D03*
Y-72500D03*
X100709D03*
Y-82500D03*
X89291D03*
X100709Y-92500D03*
X89291D03*
Y-62500D03*
X100709D03*
X89291Y-52500D03*
X100709D03*
G54D14*
X156496Y-210000D03*
Y-205000D03*
Y-200000D03*
Y-195000D03*
Y-190000D03*
Y-185000D03*
Y-180000D03*
Y-175000D03*
Y-170000D03*
Y-165000D03*
Y-160000D03*
Y-155000D03*
Y-150000D03*
Y-145000D03*
Y-110000D03*
Y-105000D03*
Y-100000D03*
Y-95000D03*
Y-90000D03*
Y-85000D03*
Y-80000D03*
Y-75000D03*
Y-70000D03*
Y-65000D03*
Y-60000D03*
Y-55000D03*
Y-50000D03*
Y-45000D03*
X193504Y-190000D03*
Y-195000D03*
Y-200000D03*
Y-205000D03*
Y-210000D03*
Y-160000D03*
Y-165000D03*
Y-170000D03*
Y-175000D03*
Y-180000D03*
Y-185000D03*
Y-145000D03*
Y-150000D03*
Y-155000D03*
Y-100000D03*
Y-105000D03*
Y-110000D03*
Y-70000D03*
Y-75000D03*
Y-80000D03*
Y-85000D03*
Y-90000D03*
Y-95000D03*
Y-45000D03*
Y-50000D03*
Y-55000D03*
Y-60000D03*
Y-65000D03*
G54D15*
X207500Y-164350D03*
Y-170650D03*
X205000Y-70650D03*
Y-64350D03*
X270650Y17500D03*
X264350D03*
G54D16*
X256900Y-5000D03*
Y0D03*
Y5000D03*
Y10000D03*
X278100D03*
Y5000D03*
Y0D03*
Y-5000D03*
G54D17*
X346220Y-39528D03*
Y-35591D03*
Y-31654D03*
Y-27717D03*
Y-23780D03*
Y-19843D03*
Y-15906D03*
Y-4094D03*
Y-157D03*
Y3780D03*
Y7717D03*
Y11654D03*
Y15591D03*
Y19528D03*
Y23465D03*
Y27402D03*
Y31339D03*
G54D18*
X344252Y35276D03*
M02*
