G04 ================== begin FILE IDENTIFICATION RECORD ==================*
G04 Layout Name:  front_panel.brd*
G04 Film Name:    TOP*
G04 File Format:  Gerber RS274X*
G04 File Origin:  Cadence Allegro 17.2-S057*
G04 Origin Date:  Wed Aug 07 22:13:20 2019*
G04 *
G04 Layer:  ETCH/TOP*
G04 Layer:  PIN/TOP*
G04 Layer:  VIA CLASS/TOP*
G04 *
G04 Offset:    (0.00 0.00)*
G04 Mirror:    No*
G04 Mode:      Positive*
G04 Rotation:  0*
G04 FullContactRelief:  No*
G04 UndefLineWidth:     0.00*
G04 ================== end FILE IDENTIFICATION RECORD ====================*
%FSLAX25Y25*MOIN*%
%IR0*IPPOS*OFA0.00000B0.00000*MIA0B0*SFA1.00000B1.00000*%
%ADD10C,.31502*%
G75*
%LPD*%
G75*
G36*
G01X-13289Y-232791D02*
G02X-13543Y-233499I-255J-308D01*
G01X-45999D01*
Y233499D01*
X-13543D01*
G02X-13289Y232791I-1J-400D01*
G03X-20868Y216702I13290J-16090D01*
G01Y216700D01*
G03X20868I20868J0D01*
G01Y216702D01*
G03X13289Y232791I-20869J-1D01*
G02X13543Y233499I255J308D01*
G01X45999D01*
Y-233499D01*
X13543D01*
G02X13289Y-232791I1J400D01*
G03X20868Y-216702I-13290J16090D01*
G01Y-216700D01*
G03X-20868I-20868J0D01*
G01Y-216702D01*
G03X-13289Y-232791I20869J1D01*
G37*
%LPC*%
G75*
G36*
G01X-28448Y50315D02*
G02X-23945Y54818I4503J0D01*
G01X15755D01*
G02X20258Y50315I0J-4503D01*
G01Y5015D01*
G02X15755Y512I-4503J0D01*
G01X-23945D01*
G02X-28448Y5015I0J4503D01*
G01Y50315D01*
G37*
G36*
G01X-27626Y132705D02*
G02X-23124Y137208I4502J1D01*
G01X26076D01*
G02X30578Y132705I-1J-4503D01*
G01Y72705D01*
G02X26076Y68202I-4502J-1D01*
G01X-23124D01*
G02X-27626Y72705I1J4503D01*
G01Y132705D01*
G37*
G36*
G01X-26694Y-18936D02*
G02X-22192Y-14434I4502J0D01*
G01X-16392D01*
G02X-11890Y-18936I0J-4502D01*
G01Y-123136D01*
G02X-16392Y-127638I-4502J0D01*
G01X-22192D01*
G02X-26694Y-123136I0J4502D01*
G01Y-18936D01*
G37*
G54D10*
X0Y165500D03*
Y-164500D03*
M02*
