G04 ================== begin FILE IDENTIFICATION RECORD ==================*
G04 Layout Name:  DAQ_CONTROLLER.brd*
G04 Film Name:    BOTTOM*
G04 File Format:  Gerber RS274X*
G04 File Origin:  Cadence Allegro 17.2-S057*
G04 Origin Date:  Wed Aug 07 01:46:16 2019*
G04 *
G04 Layer:  ETCH/BOTTOM*
G04 Layer:  PIN/BOTTOM*
G04 Layer:  VIA CLASS/BOTTOM*
G04 *
G04 Offset:    (0.00 0.00)*
G04 Mirror:    No*
G04 Mode:      Positive*
G04 Rotation:  0*
G04 FullContactRelief:  No*
G04 UndefLineWidth:     0.00*
G04 ================== end FILE IDENTIFICATION RECORD ====================*
%FSLAX25Y25*MOIN*%
%IR0*IPPOS*OFA0.00000B0.00000*MIA0B0*SFA1.00000B1.00000*%
%ADD15C,.02*%
%ADD12C,.03*%
%ADD17C,.04*%
%ADD16C,.035*%
%ADD19C,.018*%
%ADD18R,.04X.04*%
%ADD13C,.05512*%
%ADD22C,.05906*%
%ADD21R,.02362X.02362*%
%ADD24R,.16535X.02756*%
%ADD11C,.06299*%
%ADD23R,.05906X.05906*%
%ADD20R,.03937X.03937*%
%ADD25R,.12598X.02756*%
%ADD14C,.10236*%
%ADD10C,.12598*%
%ADD26C,.012*%
%ADD27C,.024*%
%ADD28C,.016*%
%ADD29C,.004*%
%ADD30C,.006*%
%ADD31C,.008*%
G75*
%LPD*%
G75*
G36*
G01X325000Y30000D02*
X333246D01*
X333273Y29992D01*
G03X333661Y29938I385J1347D01*
G01X335000D01*
Y20000D01*
X325000D01*
Y30000D01*
G37*
G54D10*
X5000Y-133701D03*
Y-86299D03*
G54D20*
X190650Y-162500D03*
X184350D03*
X190650Y-155000D03*
X184350D03*
X196000Y-136650D03*
Y-130350D03*
X236850Y-79500D03*
X226850Y-67500D03*
X233150D03*
X226850Y-45000D03*
X233150D03*
X243150Y-79500D03*
X249350D03*
X255650D03*
G54D11*
X-8307Y-59862D03*
X-14291Y-49862D03*
X-8307Y-20059D03*
X-14291Y-10059D03*
X29961Y-47441D03*
Y-37441D03*
Y-27441D03*
Y-17441D03*
X39961Y-52441D03*
Y-42441D03*
Y-32441D03*
Y-22441D03*
G54D30*
G01X60000Y-7500D02*
X62500Y-10000D01*
Y-20000D01*
X87500Y-45000D01*
X90000D01*
G01X72500Y-70000D02*
Y-75000D01*
X82500Y-85000D01*
G01X137500Y-102500D02*
X136227Y-101227D01*
X135425D01*
X95000Y-60802D01*
Y-57312D01*
X93288Y-55600D01*
X86900D01*
X85000Y-57500D01*
G01X95000Y-45000D02*
Y-49105D01*
X105000Y-59105D01*
Y-69104D01*
X135896Y-100000D01*
X139112D01*
X140000Y-100888D01*
Y-102688D01*
G01X177500Y-170000D02*
X117500D01*
X107500Y-160000D01*
Y-117500D01*
X117850Y-107150D01*
Y-85350D01*
X103450Y-70950D01*
X95000D01*
X92500Y-68450D01*
Y-57500D01*
G01X97500Y-42500D02*
Y-49907D01*
X106200Y-58607D01*
Y-68606D01*
X135094Y-97500D01*
X140000D01*
G01X118100Y-157500D02*
Y-155600D01*
X116900Y-154400D01*
Y-138100D01*
X120000Y-135000D01*
X136604D01*
X139506Y-132098D01*
X178790D01*
X180888Y-130000D01*
X182688D01*
G01X182447Y-132489D02*
X180647D01*
X179838Y-133298D01*
X140004D01*
X137102Y-136200D01*
X121300D01*
X118100Y-139400D01*
Y-148288D01*
X119212Y-149400D01*
X119400D01*
X120000Y-150000D01*
G01Y-147500D02*
Y-142312D01*
X124812Y-137500D01*
X137500D01*
X140502Y-134498D01*
X183786D01*
X183816Y-134528D01*
X184941D01*
G01X115600Y-157500D02*
Y-136899D01*
X118799Y-133700D01*
X132198D01*
X140898Y-125000D01*
X190000D01*
G01X213947Y-127441D02*
Y-122953D01*
X212594Y-121600D01*
X140902D01*
X131202Y-131300D01*
X114104D01*
X110000Y-135404D01*
Y-147500D01*
G01X112500Y-145000D02*
Y-135000D01*
X115000Y-132500D01*
X131700D01*
X141400Y-122800D01*
X211106D01*
X212003Y-123697D01*
Y-125477D01*
X212025Y-125499D01*
X212047D01*
G01X112500Y-130100D02*
X130704D01*
X140404Y-120400D01*
X232800D01*
X234273Y-121873D01*
X234278D01*
X235390Y-122985D01*
Y-127441D01*
G01X110000Y-132500D02*
Y-127500D01*
X119500Y-118000D01*
X233801D01*
X240801Y-125000D01*
Y-132998D01*
X240059Y-133740D01*
G01X125000Y-165094D02*
Y-151398D01*
X124700Y-151098D01*
Y-142610D01*
X126805Y-140505D01*
X141995D01*
X144902Y-137598D01*
X182500D01*
G01X122500Y-167500D02*
Y-143112D01*
X126307Y-139305D01*
X141423D01*
X145000Y-135728D01*
X181682D01*
X181712Y-135698D01*
X183288D01*
X183318Y-135728D01*
X184941D01*
G01X127350Y-150000D02*
X129850Y-147500D01*
X177312D01*
X179315Y-145497D01*
X182291D01*
X183812Y-143976D01*
X184941D01*
G01X127350Y-145000D02*
X140000D01*
X142502Y-142498D01*
X182602D01*
G01X130000Y-152500D02*
X131273Y-153773D01*
Y-155173D01*
X133900Y-157800D01*
G01X131500Y-120000D02*
X139106D01*
X139906Y-119200D01*
X233298D01*
X234771Y-120673D01*
X234776D01*
X237401Y-123298D01*
Y-127441D01*
G01X177500Y-165181D02*
X150000D01*
G01X147500Y-113800D02*
X149300Y-115600D01*
X183288D01*
X183888Y-115000D01*
X234197D01*
X244430Y-125233D01*
Y-135817D01*
X242624Y-137623D01*
G01X142500Y-115000D02*
X144300Y-116800D01*
X234299D01*
X242530Y-125031D01*
Y-135029D01*
G01X142500Y-110000D02*
X144400Y-111900D01*
X180788D01*
X180888Y-111800D01*
X234393D01*
X246830Y-124237D01*
Y-138793D01*
X242976Y-142647D01*
X240059D01*
G01X162500Y-230000D02*
X172312D01*
X206712Y-195600D01*
X206900D01*
X217500Y-185000D01*
G01X162500Y-220000D02*
X169800D01*
X179900Y-209900D01*
Y-171712D01*
X180000Y-171612D01*
Y-162874D01*
G01X210000Y-5000D02*
Y-7500D01*
X158600Y-58900D01*
Y-102500D01*
G01X181800Y-172500D02*
X184493D01*
X184941Y-172052D01*
G01X182500Y-167496D02*
X184941D01*
G01X180103Y-147397D02*
X184941D01*
G01Y-139498D02*
X182302D01*
X181800Y-140000D01*
X180000D01*
Y-140188D01*
X179812D01*
G01X222547Y-10141D02*
X215754D01*
X173800Y-52095D01*
Y-103800D01*
X180000Y-110000D01*
G01X242483Y-140452D02*
X245630Y-137305D01*
Y-124735D01*
X234595Y-113700D01*
X182500D01*
G01X217500Y-12500D02*
X175000Y-55000D01*
Y-77312D01*
X200094Y-102406D01*
G01X220000Y-15000D02*
X217500D01*
X177500Y-55000D01*
Y-74444D01*
X188328Y-85272D01*
G01X252500Y-17500D02*
X218755D01*
X180000Y-56255D01*
Y-72500D01*
X202500Y-95000D01*
X208100D01*
G01X199907Y-125000D02*
X198634Y-126273D01*
Y-127441D01*
G01X200307D02*
X202395Y-125353D01*
G01X247500Y-25000D02*
X220000D01*
X196790Y-48210D01*
Y-66176D01*
X211400Y-80786D01*
Y-101400D01*
X212500Y-102500D01*
X237500D01*
X239494Y-100506D01*
X255882D01*
X262876Y-107500D01*
X266084D01*
X269300Y-110716D01*
Y-176111D01*
X276063Y-182874D01*
G01X213300Y-100000D02*
Y-80988D01*
X201590Y-69278D01*
Y-48410D01*
X222500Y-27500D01*
X250000D01*
G01X255000Y-25000D02*
X252500Y-22500D01*
X220000D01*
X195000Y-47500D01*
Y-66084D01*
X210000Y-81084D01*
Y-105000D01*
X215000Y-110000D01*
X265188D01*
X266900Y-111712D01*
Y-147298D01*
X260000Y-154198D01*
Y-165000D01*
X249528Y-175472D01*
X240059D01*
G01X205000Y-70000D02*
X207312D01*
X214812Y-62500D01*
X230000D01*
X232078Y-60422D01*
X234673D01*
G01X204240Y-57480D02*
X208060Y-61300D01*
X228701D01*
X232314Y-57687D01*
X233470D01*
X234673Y-56484D01*
G01X230736Y-52547D02*
X207953D01*
X206800Y-53700D01*
X205000D01*
G01X232971Y-185000D02*
X217971Y-200000D01*
X207500D01*
G01X237500Y-185000D02*
X220000Y-202500D01*
X207500D01*
G01X223524Y-185000D02*
X211024Y-197500D01*
X207500D01*
G01X211196Y-168902D02*
X212896Y-170602D01*
Y-182104D01*
X210000Y-185000D01*
G01X209548Y-125400D02*
Y-127441D01*
G01X215847Y-125324D02*
Y-127124D01*
X215530Y-127441D01*
G01X210000Y-70000D02*
X216300Y-63700D01*
X220472D01*
G01X212500Y-57500D02*
X215581Y-54419D01*
X232801D01*
X234673Y-52547D01*
G01X212500Y-47500D02*
X217500D01*
X217945Y-47055D01*
X220472D01*
G01X217535Y-49902D02*
X219335D01*
X220139Y-50706D01*
X232577D01*
X234673Y-48610D01*
G01X240059Y-180000D02*
X242500D01*
G01X263800Y-122500D02*
Y-148700D01*
X249897Y-162603D01*
X229552D01*
G01X260000Y-130000D02*
Y-147500D01*
X250000Y-157500D01*
X231506D01*
X229552Y-159454D01*
G01X256200Y-122500D02*
X254927Y-123773D01*
Y-142573D01*
X245504Y-151996D01*
X231252D01*
X229552Y-153696D01*
G01X250073Y-117393D02*
Y-119885D01*
X251900Y-121712D01*
Y-143100D01*
X244454Y-150546D01*
X230052D01*
X229552Y-151046D01*
G01X232363Y-147130D02*
X232630Y-147397D01*
X240095D01*
X242445Y-145047D01*
X243972D01*
X249900Y-139119D01*
Y-138993D01*
X250000Y-138893D01*
Y-122500D01*
G01X256827Y-135000D02*
Y-143172D01*
X246303Y-153696D01*
X232702D01*
G01X265000Y-112500D02*
X252278D01*
X248030Y-116748D01*
Y-139291D01*
X243474Y-143847D01*
X241806D01*
X239706Y-145947D01*
X234402D01*
X232702Y-144247D01*
G01X226173Y-124620D02*
Y-128270D01*
X229552Y-131649D01*
G01Y-134798D02*
X231500Y-132850D01*
Y-127324D01*
X229629Y-125453D01*
X228531D01*
G01X233490Y-123773D02*
Y-134010D01*
X229552Y-137948D01*
G01X233119Y-100000D02*
Y-95756D01*
X228428Y-91065D01*
Y-89528D01*
G01X242500Y-165000D02*
X247500Y-170000D01*
Y-172500D01*
G01X257500Y-160000D02*
X252500Y-165000D01*
G01X276063Y-190748D02*
X268100Y-182785D01*
Y-111214D01*
X265686Y-108800D01*
X261488D01*
X255094Y-102406D01*
G01X276063Y-175000D02*
X270500Y-169437D01*
Y-110218D01*
X266582Y-106300D01*
X263612D01*
X253468Y-96156D01*
X246344D01*
G01X244929Y-89528D02*
Y-90448D01*
X245181Y-90700D01*
Y-92500D01*
G01X297500Y-112500D02*
X279450Y-94450D01*
X272536D01*
X271986Y-95000D01*
X255000D01*
G01X257500Y-97500D02*
X267500D01*
X280600Y-110600D01*
X280788D01*
X281900Y-111712D01*
Y-111900D01*
X290000Y-120000D01*
G01X265000Y-2500D02*
Y-15000D01*
X255000Y-25000D01*
G01D02*
X260472Y-30472D01*
G01X252500Y-17500D02*
Y-2500D01*
G01X276063Y-167126D02*
X272210Y-163273D01*
Y-130289D01*
X277500Y-124999D01*
Y-112312D01*
X267331Y-102143D01*
X265115D01*
X262972Y-100000D01*
X260000D01*
G01X280000Y-112500D02*
X268445Y-100943D01*
X266603D01*
X265330Y-99670D01*
G01X275000Y-112500D02*
X266273Y-103773D01*
X263773D01*
X262500Y-102500D01*
G01X346220Y-118268D02*
X330768D01*
X303700Y-91200D01*
X273362D01*
X271690Y-89528D01*
X271654D01*
X269335Y-87209D01*
G01X302500Y-112500D02*
X282500Y-92500D01*
X260000D01*
G01X265398Y-71461D02*
X270118Y-76181D01*
X321181D01*
X331772Y-86772D01*
X346220D01*
G01X269335Y-79335D02*
X309335D01*
X332520Y-102520D01*
X346220D01*
G01X269335Y-71461D02*
X272855Y-74981D01*
X324981D01*
X332835Y-82835D01*
X346220D01*
G01Y-98583D02*
X331084D01*
X309936Y-77435D01*
X267298D01*
X265398Y-79335D01*
G01X265614Y-83056D02*
X267435Y-81235D01*
X306235D01*
X331457Y-106457D01*
X346220D01*
G01X261245Y-83488D02*
X263066Y-85309D01*
X270309D01*
X275000Y-90000D01*
X310000D01*
X330394Y-110394D01*
X346220D01*
G01X269335Y-63587D02*
X333913D01*
X334350Y-63150D01*
X346220D01*
G01X269335Y-67524D02*
X274780D01*
X275385Y-66919D01*
X326919D01*
X331024Y-71024D01*
X346220D01*
G01X265398Y-56413D02*
Y-58213D01*
X268872Y-61687D01*
X270123D01*
X270823Y-62387D01*
X333415D01*
X336589Y-59213D01*
X346220D01*
G01X265398Y-63587D02*
X267298Y-65487D01*
X330488D01*
X332088Y-67087D01*
X346220D01*
G01Y-78898D02*
X331398D01*
X320619Y-68119D01*
X275883D01*
X275278Y-68724D01*
X270823D01*
X270123Y-69424D01*
X267298D01*
X265398Y-67524D01*
G01X346220Y-4094D02*
X325906D01*
X292500Y-37500D01*
X272500D01*
X269335Y-40665D01*
G01X346220Y-27717D02*
X319783D01*
X300930Y-46570D01*
X267367D01*
X265398Y-48539D01*
G01X346220Y-39528D02*
X317972D01*
X305861Y-51639D01*
X271186D01*
X270123Y-50576D01*
X267298D01*
X265398Y-52476D01*
G01X279528Y-35000D02*
X284228D01*
X319071Y-157D01*
X346220D01*
G01Y-19843D02*
X333552D01*
X333495Y-19900D01*
X331505D01*
X331448Y-19843D01*
X317657D01*
X294598Y-42902D01*
X279528D01*
G01X346220Y-23780D02*
X318720D01*
X297898Y-44602D01*
X269335D01*
G01Y-48539D02*
X269784D01*
X271684Y-50439D01*
X302061D01*
X320846Y-31654D01*
X346220D01*
G01Y-51339D02*
X331160D01*
X328750Y-53749D01*
X270608D01*
X269335Y-52476D01*
G54D21*
X189000Y-131669D03*
Y-127731D03*
X192500Y-178031D03*
Y-181969D03*
X202531Y-165500D03*
X206469D03*
X202000Y-156969D03*
Y-153031D03*
X202531Y-144500D03*
X206469D03*
X223531Y-178500D03*
X210531Y-165500D03*
X214469D03*
X218531D03*
X222469D03*
X210531Y-144500D03*
X214469D03*
X218531D03*
X222469D03*
X223000Y-156969D03*
Y-153031D03*
X213031Y-71500D03*
X216969D03*
X218031Y-83500D03*
X221969D03*
X218031Y-56500D03*
X221969D03*
X227469Y-178500D03*
X226500Y-135531D03*
Y-139469D03*
X238031Y-60000D03*
X242500Y-91969D03*
X253500D03*
X242500Y-88031D03*
X253500D03*
X247500Y-56969D03*
X248031Y-67500D03*
X251969D03*
X241969Y-60000D03*
X252500Y-56969D03*
X258031Y-60000D03*
X247500Y-53031D03*
X252500D03*
X261969Y-60000D03*
X270531Y-59500D03*
X274469D03*
X284469Y-71500D03*
X280531D03*
X280969Y-83500D03*
X277031D03*
G54D12*
X4887Y-275000D03*
X5000Y-147500D03*
X12500Y-150000D03*
X30000Y-107500D03*
X32500Y-75000D03*
X49550Y-125000D03*
X45450Y-120000D03*
X49550Y-115000D03*
Y-120000D03*
X40000Y-115000D03*
X49550Y-100000D03*
X39550Y-95000D03*
X45000Y-72500D03*
X50000Y-35000D03*
Y-30000D03*
X57500Y-130000D03*
X60000Y-7500D03*
X77087Y-274587D03*
Y-162087D03*
X72500Y-117500D03*
X75152Y-114848D03*
X72500Y-110000D03*
X72421Y-102579D03*
X72500Y-97500D03*
X77500D03*
X82500D03*
X74550Y-67500D03*
X85450D03*
X85000Y-37500D03*
X83418Y-28733D03*
X100450Y-132500D03*
X90000D03*
X87500Y-117500D03*
X92500D03*
Y-102500D03*
Y-97500D03*
X87500D03*
X92500Y-74550D03*
X97500D03*
X102500D03*
X98793Y-84892D03*
X89423Y-80151D03*
X97500Y-67500D03*
X102500Y-60000D03*
Y-45000D03*
X90000D03*
X110000Y-215000D03*
Y-205000D03*
Y-185053D03*
X115000Y-106290D03*
X115450Y-102500D03*
X106969Y-90981D03*
X115450Y-97500D03*
X115000Y-72500D03*
X110000Y-85000D03*
X105000Y-42500D03*
Y-27500D03*
X119964Y-29964D03*
X107657Y5157D03*
Y24843D03*
X127500Y-222500D03*
Y-202500D03*
X126500Y-122500D03*
X122500Y-107050D03*
X130000Y-85000D03*
X135000Y-43700D03*
X127500Y-25000D03*
X122343Y5157D03*
Y24843D03*
X150000Y-25000D03*
X172500D03*
X162500Y-22500D03*
X160000Y-27500D03*
X170000Y-7500D03*
Y25000D03*
X167500Y37500D03*
X157500D03*
X185381Y-54269D03*
X200650Y-76032D03*
X194350D03*
X199190Y-54269D03*
X202500Y-20000D03*
X192500Y-12500D03*
X197500D03*
X192500Y7500D03*
X197500D03*
X202500Y1000D03*
X197500Y-2300D03*
X202500Y21000D03*
X192500Y28055D03*
X197500D03*
Y18673D03*
Y40000D03*
X223350Y-96032D03*
X229650D03*
X256468Y-176850D03*
Y-183150D03*
X252500Y-2500D03*
Y20000D03*
X273531Y-96850D03*
X265000Y-2500D03*
X267500Y22500D03*
Y17500D03*
X281468Y-103150D03*
X285382Y-85000D03*
X282882Y-57000D03*
X302500Y-102500D03*
X299619Y-85000D03*
X297119Y-57000D03*
X327598Y27402D03*
X327500Y22500D03*
X332638Y-157638D03*
X332500Y-115000D03*
X332854Y-94646D03*
X332539Y-74961D03*
X332776Y-55276D03*
X332500Y-35000D03*
Y-17000D03*
Y12500D03*
X332598Y27402D03*
X332500Y22500D03*
Y32500D03*
G54D31*
G01X115000Y-106290D02*
X48710D01*
X40000Y-115000D01*
G01X190650Y-162500D02*
Y-164252D01*
X189149Y-165753D01*
G01X184350Y-162500D02*
Y-164104D01*
X185999Y-165753D01*
G01X184350Y-155000D02*
Y-158445D01*
X185000Y-159095D01*
G01D02*
X193405D01*
X195000Y-157500D01*
Y-149197D01*
G01X189000Y-131669D02*
X185999Y-128668D01*
Y-128499D01*
G01X189149Y-178351D02*
X192180D01*
X192500Y-178031D01*
G01X189149Y-181501D02*
X192032D01*
X192500Y-181969D01*
G01X202531Y-165500D02*
Y-164969D01*
X204897Y-162603D01*
G01X202000Y-156969D02*
X204897Y-154072D01*
Y-153696D01*
G01X190650Y-155000D02*
Y-152194D01*
X192298Y-150546D01*
G01X202531Y-144500D02*
Y-145031D01*
X204897Y-147397D01*
G01X202000Y-153031D02*
X199263D01*
X198598Y-153696D01*
G01X195000Y-149197D02*
X240983D01*
X242590Y-147590D01*
G01X196000Y-130350D02*
X199000Y-133350D01*
Y-140830D01*
X195000Y-144830D01*
Y-149197D01*
G01X192581Y-131341D02*
Y-133231D01*
X196000Y-136650D01*
G01X189000Y-127731D02*
X191530D01*
X192298Y-128499D01*
G01X195000Y-125000D02*
Y-129350D01*
X196000Y-130350D01*
G01X223531Y-178500D02*
X221038D01*
X220645Y-178893D01*
G01X218531Y-165500D02*
Y-164180D01*
X216954Y-162603D01*
G01X210531Y-165500D02*
Y-163268D01*
X211196Y-162603D01*
G01X214469Y-165500D02*
Y-166417D01*
X216954Y-168902D01*
G01X206469Y-165500D02*
Y-167325D01*
X208046Y-168902D01*
G01X223228Y-168877D02*
X222469Y-168118D01*
Y-165500D01*
G01X223000Y-156969D02*
X220103Y-154072D01*
Y-153696D01*
G01X218531Y-144500D02*
Y-145825D01*
X220103Y-147397D01*
G01X210531Y-144500D02*
Y-146732D01*
X211196Y-147397D01*
G01X222469Y-144500D02*
Y-143464D01*
X220103Y-141098D01*
G01X214469Y-144500D02*
Y-143583D01*
X216954Y-141098D01*
G01X206469Y-144500D02*
Y-142675D01*
X208046Y-141098D01*
G01X223000Y-153031D02*
X223917D01*
X225902Y-151046D01*
X226402D01*
G01X226500Y-135531D02*
X223986D01*
X223253Y-134798D01*
G01X226500Y-139469D02*
X224882D01*
X223253Y-141098D01*
G01X218031Y-83500D02*
X220396Y-85865D01*
X221447D01*
X222791Y-87209D01*
G01X221969Y-83500D02*
X224600D01*
X224828Y-83272D01*
X226728D01*
G01X216969Y-71500D02*
X218930Y-73461D01*
X224728D01*
X226728Y-71461D01*
G01X222791D02*
Y-68490D01*
X223781Y-67500D01*
X226850D01*
G01X213031Y-71500D02*
X215212Y-69319D01*
X218565D01*
X220707Y-71461D01*
X222791D01*
G01X218031Y-56500D02*
X220212Y-58681D01*
X228397D01*
X230665Y-56413D01*
G01X221969Y-56500D02*
X224741D01*
X224828Y-56413D01*
X226728D01*
G01X227469Y-178500D02*
Y-180434D01*
X226402Y-181501D01*
G01X240059Y-89528D02*
X242500Y-91969D01*
G01X242476Y-75398D02*
X240952D01*
X236850Y-79500D01*
G01X238031Y-60000D02*
Y-63079D01*
X238539Y-63587D01*
G01X233150Y-67500D02*
X236615D01*
X236639Y-67524D01*
X238539D01*
G01Y-56413D02*
X239742Y-57616D01*
Y-57773D01*
X241969Y-60000D01*
G01X226850Y-45000D02*
X230389Y-48539D01*
X230665D01*
G01X233150Y-45000D02*
X235000D01*
X238539Y-48539D01*
G01X255941Y-89528D02*
X253500Y-91969D01*
G01X253587Y-75398D02*
X253452D01*
X249350Y-79500D01*
G01X242500Y-88031D02*
Y-85196D01*
X242476Y-85172D01*
Y-83272D01*
G01X253500Y-88031D02*
Y-85259D01*
X253587Y-85172D01*
Y-83272D01*
G01X255650Y-79500D02*
Y-77272D01*
X257524Y-75398D01*
G01X243150Y-79500D02*
X245181Y-77469D01*
Y-74166D01*
X242476Y-71461D01*
G01X248031Y-67500D02*
Y-69843D01*
X246413Y-71461D01*
G01X258031Y-60000D02*
Y-63080D01*
X257524Y-63587D01*
G01Y-52476D02*
X255000Y-55000D01*
X254469D01*
X252500Y-56969D01*
G01X247500D02*
X244932D01*
X244376Y-56413D01*
X242476D01*
G01X251969Y-67500D02*
Y-69843D01*
X253587Y-71461D01*
G01X261461Y-52476D02*
X259224Y-50239D01*
G01X255292D02*
X252500Y-53031D01*
G01X247500D02*
X244931D01*
X244376Y-52476D01*
X242476D01*
G01X273272Y-83272D02*
X276803D01*
X277031Y-83500D01*
G01X269335Y-56413D02*
Y-58304D01*
X270531Y-59500D01*
G01X280531Y-71500D02*
X278450Y-69419D01*
X276422D01*
X275817Y-70024D01*
X274709D01*
X273272Y-71461D01*
G01Y-56413D02*
Y-58303D01*
X274469Y-59500D01*
G01X261969Y-60000D02*
Y-63079D01*
X261461Y-63587D01*
G01X277209Y-87209D02*
X278553Y-85865D01*
X278604D01*
X280969Y-83500D01*
G01X284469Y-71500D02*
X284308D01*
X282127Y-73681D01*
X278935D01*
X277209Y-71955D01*
Y-71461D01*
G54D22*
X276063Y-198622D03*
Y-190748D03*
Y-182874D03*
Y-175000D03*
Y-167126D03*
Y-159252D03*
Y-151378D03*
X283937Y-190748D03*
Y-175000D03*
Y-182874D03*
Y-159252D03*
Y-167126D03*
Y-151378D03*
G54D13*
X15669Y-105079D03*
Y-114921D03*
X23543D03*
Y-105079D03*
G54D14*
X17008Y-65571D03*
Y-4350D03*
G54D23*
X283937Y-198622D03*
G54D24*
X346220Y-161575D03*
Y-153701D03*
Y-149764D03*
Y-145827D03*
Y-141890D03*
Y-137953D03*
Y-134016D03*
Y-130079D03*
Y-126142D03*
Y-122205D03*
Y-118268D03*
Y-114331D03*
Y-110394D03*
Y-106457D03*
Y-102520D03*
Y-98583D03*
Y-94646D03*
Y-86772D03*
Y-82835D03*
Y-78898D03*
Y-74961D03*
Y-71024D03*
Y-67087D03*
Y-63150D03*
Y-59213D03*
Y-55276D03*
Y-51339D03*
Y-47402D03*
Y-43465D03*
Y-39528D03*
Y-31654D03*
Y-27717D03*
Y-23780D03*
Y-19843D03*
Y-4094D03*
Y-15906D03*
Y-157D03*
Y3780D03*
Y7717D03*
Y11654D03*
Y15591D03*
Y19528D03*
Y23465D03*
Y27402D03*
Y31339D03*
Y35276D03*
G54D15*
X49650Y-95000D03*
X50081Y-22419D03*
X65000Y-55000D03*
X62500Y-52500D03*
X59650Y-45000D03*
X55000Y-47500D03*
X62500Y-40000D03*
X62513Y-42487D03*
X55000Y-32500D03*
X59500Y-30000D03*
X65012Y-32319D03*
X60000Y-20000D03*
X66850Y-18769D03*
X75000Y-85000D03*
X82500D03*
X75000Y-57488D03*
X85000Y-57500D03*
X72500Y-70000D03*
X70000Y-52500D03*
X73150Y-18769D03*
X90000Y-64988D03*
X92500Y-57500D03*
X95000Y-45000D03*
X97500Y-42500D03*
X118100Y-157500D03*
X120000Y-150000D03*
Y-147500D03*
X115600Y-157500D03*
X110000Y-147500D03*
X112500Y-145000D03*
Y-130100D03*
X110000Y-132500D03*
X125000Y-165094D03*
X122500Y-167500D03*
X130000Y-152500D03*
X133900Y-157800D03*
X131500Y-120000D03*
X137500Y-102500D03*
X132981Y-60531D03*
Y-64469D03*
X127500Y-47500D03*
X127457Y-42502D03*
X135000Y10000D03*
Y5000D03*
Y0D03*
Y15000D03*
X150000Y-165181D03*
X147500Y-113800D03*
X142500Y-115000D03*
Y-110000D03*
X140000Y-102688D03*
Y-97500D03*
X147500Y-12500D03*
X145000Y-15000D03*
X155000Y-5000D03*
X150000D03*
X140000Y-15000D03*
X145079Y2579D03*
X153232Y11768D03*
Y7500D03*
Y3232D03*
X145000Y9847D03*
Y15000D03*
Y30000D03*
X152500Y32500D03*
X170000Y-154036D03*
X158600Y-102500D03*
X160000Y-5000D03*
X169921Y2579D03*
X170000Y10000D03*
X157500Y3232D03*
X161768D03*
Y7500D03*
Y11768D03*
X157500D03*
Y7500D03*
X170000Y15000D03*
X162263Y20292D03*
X157500Y20000D03*
X181800Y-172500D03*
X177500Y-165181D03*
X182500Y-167496D03*
X177500Y-170000D03*
X180000Y-162874D03*
X180103Y-147397D03*
X188879Y-143976D03*
X182602Y-142498D03*
X179812Y-140188D03*
X182500Y-137598D03*
X182688Y-130000D03*
X182447Y-132489D03*
X188879Y-134528D03*
X182500Y-113700D03*
X180000Y-110000D03*
X188328Y-85272D03*
X197500Y-227500D03*
X199907Y-125000D03*
X202395Y-125353D03*
X192027Y-137677D03*
X190000Y-125000D03*
X200094Y-102406D03*
X205000Y-70000D03*
Y-53700D03*
X222500Y-205000D03*
X207500Y-200000D03*
Y-202500D03*
Y-197500D03*
X217500Y-185000D03*
X223524D03*
X210000D03*
X209548Y-125400D03*
X215847Y-125324D03*
X212047Y-125499D03*
X213300Y-100000D03*
X208100Y-95000D03*
X222791Y-87209D03*
Y-71461D03*
X210000Y-70000D03*
X212500Y-57500D03*
X222575Y-48755D03*
X212500Y-47500D03*
X217535Y-49902D03*
X222791Y-32791D03*
X220000Y-15000D03*
X210000Y-5000D03*
X217500Y-12500D03*
X222547Y-10141D03*
X225000Y-227500D03*
X237500Y-200000D03*
X232971Y-185000D03*
X237500D03*
X240000Y-175472D03*
X226173Y-124620D03*
X228531Y-125453D03*
X233490Y-123773D03*
X233119Y-100000D03*
X230665Y-83272D03*
X238755Y-83488D03*
X234602Y-75398D03*
X226728Y-83272D03*
X238539Y-71461D03*
X230665Y-56413D03*
X238539Y-63587D03*
X226728Y-71461D03*
Y-56413D03*
X238539Y-67524D03*
Y-56413D03*
Y-52476D03*
X230665Y-48539D03*
X238539Y-44602D03*
X226512Y-40881D03*
X238539Y-48539D03*
X234602Y-36728D03*
X242500Y-180000D03*
Y-165000D03*
X247500Y-172500D03*
X257500Y-160000D03*
X252500Y-165000D03*
X242590Y-147590D03*
X242624Y-137623D03*
X242530Y-135029D03*
X256827Y-135000D03*
X242483Y-140452D03*
X256200Y-122500D03*
X250073Y-117393D03*
X250000Y-122500D03*
X255094Y-102406D03*
X246344Y-96156D03*
X245181Y-92500D03*
X255000Y-95000D03*
X257500Y-97500D03*
X257308Y-83488D03*
X242476Y-75398D03*
X253587D03*
X242476Y-83272D03*
X246629Y-83488D03*
X253587Y-83272D03*
X257524Y-75398D03*
X242476Y-67524D03*
X246413Y-71461D03*
X257524D03*
Y-63587D03*
X242476Y-56413D03*
X257524Y-67524D03*
X242476Y-71461D03*
X253587D03*
X257524Y-56413D03*
X242476Y-63587D03*
Y-48539D03*
X253587D03*
X257524Y-52476D03*
X242476Y-40665D03*
X246413D03*
Y-44602D03*
X253587Y-40665D03*
X257524D03*
Y-44602D03*
Y-48539D03*
X242476Y-52476D03*
X246413Y-48539D03*
X242476Y-44602D03*
X253587D03*
X242692Y-32575D03*
X246413Y-36728D03*
X257524Y-32791D03*
Y-36728D03*
X247500Y-25000D03*
X250000Y-27500D03*
X252500Y-17500D03*
X260000Y-130000D03*
X263800Y-122500D03*
X275000D03*
X265000Y-112500D03*
X275000D03*
X260000Y-100000D03*
X265330Y-99670D03*
X262500Y-102500D03*
X260000Y-92500D03*
X269335Y-83272D03*
X265398Y-75398D03*
X261461D03*
X273272Y-83272D03*
X269335Y-79335D03*
Y-87209D03*
X265398Y-79335D03*
X265614Y-83056D03*
X261245Y-83488D03*
X261461Y-67524D03*
Y-56413D03*
X269335D03*
X273272Y-71461D03*
Y-56413D03*
X261461Y-71461D03*
Y-63587D03*
X269335D03*
Y-67524D03*
X265398Y-71461D03*
Y-56413D03*
Y-63587D03*
Y-67524D03*
X269335Y-71461D03*
X261461Y-48539D03*
X273272Y-40665D03*
X265398Y-44602D03*
X261461Y-52476D03*
X269335Y-40665D03*
X265398Y-48539D03*
Y-52476D03*
X261461Y-40665D03*
Y-44602D03*
X269335D03*
Y-48539D03*
Y-52476D03*
X261461Y-36728D03*
X265182Y-32575D03*
X280000Y-122500D03*
Y-112500D03*
X290000Y-120000D03*
X277209Y-87209D03*
Y-71461D03*
Y-48539D03*
Y-32791D03*
X305000Y-132500D03*
X300000D03*
X295000D03*
X300000Y-115000D03*
X295000D03*
X305000D03*
X302500Y-112500D03*
X297500D03*
G54D25*
X344252Y-157638D03*
Y-90709D03*
Y-35591D03*
G54D16*
X127350Y-150000D03*
Y-145000D03*
X204240Y-57480D03*
X192500Y-2277D03*
Y18723D03*
Y40000D03*
X217500Y20000D03*
G54D26*
G01X346220Y-15906D02*
X334094D01*
X333500Y-16500D01*
X333000D01*
X332500Y-17000D01*
G54D17*
X162500Y-230000D03*
X157500D03*
X162500Y-225000D03*
Y-220000D03*
Y-215000D03*
Y-210000D03*
X157500Y-225000D03*
Y-220000D03*
Y-215000D03*
G54D27*
G01X346220Y27402D02*
X332598D01*
G54D18*
X157500Y-210000D03*
G54D28*
G01X344252Y-157638D02*
X332638D01*
G01X346220Y-114331D02*
X333169D01*
X332500Y-115000D01*
G01X346220Y-94646D02*
X332854D01*
G01X344252Y-90709D02*
X336791D01*
X332854Y-94646D01*
G01X346220Y-74961D02*
X332539D01*
G01X346220Y-55276D02*
X332776D01*
G01X344252Y-35591D02*
X335891D01*
X335300Y-35000D01*
X332500D01*
G01X346220Y11654D02*
X336146D01*
X335300Y12500D01*
X332500D01*
G01X346220Y31339D02*
X333661D01*
X332500Y32500D01*
G01X346220Y35276D02*
X335276D01*
X332500Y32500D01*
G54D19*
X185999Y-181501D03*
X189149Y-178351D03*
Y-181501D03*
Y-165753D03*
X185999D03*
X185000Y-159095D03*
X185999Y-128499D03*
X204897Y-162603D03*
X198598Y-159454D03*
X204897D03*
X192298Y-172052D03*
X198598Y-168902D03*
Y-165753D03*
Y-162603D03*
X204897Y-168902D03*
X201747D03*
X204897Y-153696D03*
X192298Y-150546D03*
X204897Y-151046D03*
Y-147397D03*
X192298Y-141098D03*
X195448D03*
X198598Y-144247D03*
X192298Y-147397D03*
X198598Y-153696D03*
X204897Y-141098D03*
X198598Y-147397D03*
X204897Y-131649D03*
X192581Y-131341D03*
X204897Y-128499D03*
X201747D03*
X192298D03*
X204897Y-137948D03*
X195000Y-125000D03*
X220103Y-181501D03*
X220645Y-178893D03*
X211196Y-175202D03*
X208046Y-159454D03*
X220103Y-162603D03*
X216954D03*
Y-159454D03*
X211196Y-162603D03*
Y-159454D03*
X208046Y-162603D03*
X220103Y-159454D03*
X211196Y-168902D03*
X220103D03*
X216954D03*
X208046D03*
X223228Y-168877D03*
X208046Y-153696D03*
X211196D03*
X216954D03*
X220103D03*
Y-147397D03*
X216954Y-151046D03*
Y-147397D03*
X211196Y-151046D03*
Y-147397D03*
X208046D03*
Y-151046D03*
X220103D03*
Y-141098D03*
X216954D03*
X211196D03*
X208046D03*
X223253D03*
X220103Y-134798D03*
X216954D03*
X211196Y-131649D03*
Y-128499D03*
X223253Y-134798D03*
X223794Y-131649D03*
X208046Y-137948D03*
X220103D03*
X211196D03*
X239001Y-181501D03*
X229552D03*
X226402D03*
X232702Y-172052D03*
Y-159454D03*
X229552Y-162603D03*
X226402D03*
Y-159454D03*
X229552D03*
X226402Y-165753D03*
X235851Y-144247D03*
X229602Y-146897D03*
X229552Y-153696D03*
Y-151046D03*
X230052Y-144247D03*
X232363Y-147130D03*
X226402Y-151046D03*
Y-146897D03*
Y-144197D03*
X239001Y-144247D03*
X232702Y-153696D03*
Y-144247D03*
X239001Y-128499D03*
X229552Y-131649D03*
Y-134798D03*
Y-128499D03*
Y-137948D03*
X233243Y-137406D03*
X239001Y-134798D03*
X233907Y-63593D03*
X234673Y-60422D03*
Y-71390D03*
Y-56484D03*
X230736Y-52547D03*
X226392Y-49006D03*
X234673Y-48610D03*
Y-52547D03*
X249578Y-75327D03*
X265827Y-40236D03*
G54D29*
G01X184941Y-134528D02*
X188879D01*
G01X211196Y-137948D02*
X214075Y-135069D01*
Y-128214D01*
X213947Y-128086D01*
Y-127441D01*
G01X235390D02*
Y-135259D01*
X233243Y-137406D01*
G01X240059Y-133740D02*
X239001Y-134798D01*
G01X184941Y-135728D02*
X185727D01*
X187676Y-137677D01*
X192027D01*
G01X184941Y-143976D02*
X188879D01*
G01X237401Y-127441D02*
Y-135511D01*
X230265Y-142647D01*
X229389D01*
X228452Y-143584D01*
Y-146247D01*
X229102Y-146897D01*
X229602D01*
G01X240059Y-142647D02*
X231652D01*
X230052Y-144247D01*
G01X184941Y-172052D02*
X192298D01*
G01X184941Y-167496D02*
X197192D01*
X198598Y-168902D01*
G01X184941Y-147397D02*
X192298D01*
G01X195448Y-141098D02*
X193848Y-139498D01*
X184941D01*
G01X198634Y-127441D02*
Y-131569D01*
X200000Y-132935D01*
Y-141245D01*
X198598Y-142647D01*
Y-144247D01*
G01X204897Y-137948D02*
X202500Y-135551D01*
Y-134303D01*
X200000Y-131803D01*
Y-127748D01*
X200307Y-127441D01*
G01X240059Y-175472D02*
X240000D01*
G01X209548Y-127441D02*
Y-136446D01*
X208046Y-137948D01*
G01X215530Y-127441D02*
X214875Y-128096D01*
Y-134982D01*
X217841Y-137948D01*
X220103D01*
G01X220472Y-63700D02*
X220970D01*
X221077Y-63593D01*
X233907D01*
G01X220472Y-47055D02*
X223280D01*
X224099Y-47874D01*
X225260D01*
X226392Y-49006D01*
G01X226402Y-165753D02*
Y-168902D01*
X237401Y-179901D01*
X239664D01*
X239763Y-180000D01*
X240059D01*
G01X238755Y-83488D02*
Y-88224D01*
X240059Y-89528D01*
G01X228428D02*
Y-77635D01*
X234673Y-71390D01*
G01X257308Y-83488D02*
Y-88161D01*
X255941Y-89528D01*
G01X249578Y-75327D02*
X247181D01*
X246181Y-76327D01*
Y-81255D01*
X244929Y-82507D01*
Y-89528D01*
G01X259224Y-50239D02*
X255292D01*
G01X260472Y-30472D02*
X263482Y-33482D01*
Y-37891D01*
X265827Y-40236D01*
G01X261461Y-40665D02*
X262632Y-41836D01*
X266490D01*
X267427Y-40899D01*
Y-40072D01*
X272499Y-35000D01*
X279528D01*
G01Y-42902D02*
X263161D01*
X261461Y-44602D01*
M02*
