M48
INCH
T01C.01
T02C.015
T03C.028
T04C.03543
T05C.06299
T06C.09055
T07C.14173
T08C.05118
T09C.12795
;LEADER: 12 
;HEADER: 
;CODE  : ASCII 
;FILE  : DAQ_CONTROLLER-1-4.drl for  ... layers TOP and BOTTOM
;DESIGN: DAQ_CONTROLLER.brd
;T01 Holesize 1. = 10.000000 Tolerance = +0.000000/-0.000000 PLATED MILS Quantity = 385
;T02 Holesize 2. = 15.000000 Tolerance = +0.000000/-0.000000 PLATED MILS Quantity = 129
;T03 Holesize 3. = 28.000000 Tolerance = +0.000000/-0.000000 PLATED MILS Quantity = 10
;T04 Holesize 4. = 35.430000 Tolerance = +0.000000/-0.000000 PLATED MILS Quantity = 30
;T05 Holesize 5. = 62.990000 Tolerance = +0.000000/-0.000000 PLATED MILS Quantity = 2
;T06 Holesize 6. = 90.550000 Tolerance = +0.000000/-0.000000 PLATED MILS Quantity = 2
;T07 Holesize 7. = 141.730000 Tolerance = +0.000000/-0.000000 PLATED MILS Quantity = 2
;T08 Holesize 8. = 51.180000 Tolerance = +0.000000/-0.000000 NON_PLATED MILS Quantity = 2
;T09 Holesize 9. = 127.950000 Tolerance = +0.000000/-0.000000 NON_PLATED MILS Quantity = 2
%
G90
T01
X022255Y-001014
X018000Y-011000
X018250Y-011370
X024248Y-014045
X011250Y-014500
X021205Y-012550
X011000Y-014750
X019000Y-012500
X011560Y-015750
X018888Y-013453
X012000Y-014750
X018245Y-013249
X012000Y-015000
X018269Y-013000
X011810Y-015750
X024250Y-018000
X013390Y-015780
X013000Y-015250
X011000Y-013250
X011250Y-013010
X018260Y-014250
X018888Y-014398
X008250Y-008500
X007250Y-007000
X021750Y-001250
X020009Y-010241
X023349Y-012377
X021000Y-000500
X015860Y-010250
X029000Y-012000
X025750Y-009750
X029750Y-011250
X025500Y-009500
X030250Y-011250
X026000Y-009250
X024000Y-017547
X025250Y-001750
X020810Y-009500
X025000Y-002750
X021330Y-010000
X022000Y-001500
X018833Y-008527
X021585Y-012532
X018000Y-016287
X012250Y-016750
X019203Y-013768
X012500Y-016509
X018250Y-013760
X015750Y002000
X016226Y002029
X013500Y001500
X013500Y000000
X016000Y-000500
X027500Y-011250
X026250Y-010250
X026500Y-011250
X024518Y-009250
X028000Y-011250
X026533Y-009967
X025250Y-016500
X025750Y-016000
X019500Y-012500
X024259Y-014759
X024750Y-002500
X026000Y-010000
X024634Y-009616
X025509Y-010241
X014000Y-001500
X015000Y-000500
X014500Y000985
X013500Y000500
X021250Y-005750
X020240Y-012535
X020955Y-012540
X025683Y-013500
X026000Y-013000
X015250Y003250
X005008Y-002242
X012746Y-004250
X006251Y-004249
X006250Y-004000
X007000Y-005250
X005500Y-004750
X007500Y-008500
X030500Y-011500
X029500Y-011500
X030000Y-011500
X028000Y-012250
X027500Y-012250
X022500Y-022750
X026380Y-012250
X021000Y-018500
X025000Y-012250
X014250Y-011000
X025007Y-011739
X014250Y-011500
X024253Y-013503
X025620Y-012250
X013150Y-012000
X023312Y-010000
X009250Y-005750
X017750Y-017000
X018250Y-016750
X020750Y-019750
X022352Y-018500
X014000Y-009750
X009750Y-004250
X024750Y-017250
X024250Y-016500
X008500Y-005750
X013750Y-010250
X020750Y-020250
X023750Y-018500
X014750Y-011380
X024262Y-013762
X021750Y-018500
X009500Y-004500
X014000Y-010269
X020750Y-020000
X023297Y-018500
X015000Y-016518
X017750Y-016518
X018180Y-017250
X022853Y-012545
X020500Y-007000
X022617Y-012462
X021000Y-007000
X021754Y-004990
X018010Y-014740
X022639Y-004901
X021250Y-004750
X019991Y-012500
X020500Y-005370
X017981Y-014019
X014500Y003000
X017000Y001500
X017000Y001000
X013500Y001000
X014500Y001500
X016992Y000258
X015500Y-000500
X014508Y000258
X014500Y-001500
X014750Y-001250
X006000Y-002000
X006501Y-003232
X005950Y-003000
X005965Y-004500
X005500Y-003250
X012750Y-004750
X006500Y-005500
X007500Y-005749
X006250Y-005250
X009000Y-006499
X004965Y-009500
X029500Y-013250
R02X000500
X017000Y-015404
X023750Y-020000
X022250Y-020500
X019750Y-022750
X013298Y-006447
X013298Y-006053
X006685Y-001877
X007315Y-001877
X021120Y-013795
X022640Y-016575
X023900Y-013480
X023324Y-013741
X022955Y-013795
X022010Y-013795
X023270Y-014425
X018500Y-015910
X020490Y-013795
X020805Y-013795
X023270Y-015370
X022955Y-015945
X022955Y-012850
X019230Y-012850
X020175Y-012850
X020490Y-012850
X023900Y-014425
X022640Y-014420
X022640Y-014690
X022640Y-015105
X022325Y-014110
X020805Y-014110
X021120Y-014110
X021695Y-014110
X022010Y-014110
X019860Y-014740
X020490Y-014110
X022640Y-015945
X022640Y-016260
X022323Y-016888
X020805Y-016890
X021695Y-016890
X022010Y-016890
X020175Y-016890
X020490Y-016890
X019860Y-015370
X019860Y-016260
X019860Y-016575
X018600Y-016575
X022064Y-017889
X022010Y-018150
X018915Y-018150
X022955Y-016260
X021120Y-016890
X023236Y-014713
X023005Y-014425
X022955Y-015105
X022955Y-015370
X022960Y-014690
X019860Y-016890
X019230Y-017205
X022955Y-013480
X022955Y-013165
X019230Y-014740
X019860Y-014425
X019545Y-014110
X022379Y-013165
X022325Y-013480
X023900Y-012850
X021120Y-012850
X021120Y-013165
X021695Y-013480
X022010Y-013480
X019258Y-013134
X020490Y-013165
X018600Y-012850
X023585Y-014425
X022010Y-015105
X020805Y-015105
X020805Y-014740
X021120Y-014740
X021120Y-015105
X021695Y-014740
X021695Y-015105
X022010Y-014740
X019230Y-014110
X020490Y-014740
X020490Y-015105
X019230Y-015055
X023270Y-015945
X022010Y-015370
X021695Y-015370
X022010Y-015945
X020805Y-016260
X021120Y-015945
X021120Y-016260
X021695Y-015945
X021695Y-016260
X022010Y-016260
X021120Y-015370
X020805Y-015370
X020805Y-015945
X020490Y-015370
X020490Y-015945
X019860Y-015945
X020490Y-016260
X018915Y-016575
X023270Y-017205
X022640Y-018150
X022955Y-018150
X023900Y-018150
X021120Y-017520
X018915Y-017835
X018600Y-018150
X015750Y000750
X015750Y001177
X016177Y001177
R02Y-000427
X015750Y000323
X015323Y000323
X015323Y000750
X015323Y001177
X023467Y-005648
X026583Y-004024
X026124Y-008349
X026561Y-008306
X026540Y-007934
X026934Y-007146
X026540Y-006752
X026540Y-006359
X026540Y-005641
X026934Y-005248
R02Y000394
X026146Y-004460
X026146Y-004067
X024958Y-007533
X026934Y-008721
X026934Y-007934
X026540Y-007146
X026934Y-006752
X026934Y-006359
X026540Y-005248
X026540Y-004854
X026934Y-004067
X025359Y-004460
X024248Y-004460
X024248Y-006359
X024641Y-004854
X024248Y-005248
X025752Y-004854
X025752Y-005641
X023854Y-005641
X023854Y-004854
X025359Y-007146
X024248Y-007146
X025752Y-006752
X023854Y-006752
X026146Y-005248
X026146Y-006359
X026146Y-007146
X025752Y-007540
X023467Y-005255
X027327Y-005641
X022673Y-005641
X027327Y-007146
X022673Y-007146
X027327Y-008327
X025359Y-008327
X024663Y-008349
X024248Y-008327
X022673Y-008327
X023467Y-007139
X023467Y-006042
X023391Y-006359
X023467Y-004861
X023074Y-005255
X027721Y-003279
X026540Y-004460
X026518Y-003257
X026146Y-003673
X027327Y-004067
X025752Y-004460
R03Y000394
X025359Y-004067
X024641Y-004460
R02Y000394
X024248Y-004067
X024269Y-003257
X022651Y-004088
X023854Y-004460
X023460Y-003673
X022279Y-003279
X027721Y-004854
X026146Y-004854
X026934Y-005641
X026146Y-005641
X024248Y-005641
X025752Y-005248
X025359Y-004854
X024248Y-004854
X025752Y-006359
X023067Y-004854
X023854Y-005248
X023854Y-006359
X023067Y-005641
X022258Y-004876
X027721Y-007146
X026146Y-007540
X026146Y-006752
X026540Y-007540
X025752Y-007146
X024641Y-007146
X024248Y-006752
X025359Y-007540
X024248Y-007540
X023854Y-007146
X022279Y-007146
X023460Y-007540
X027721Y-008721
X026934Y-008327
X025731Y-008349
X023876Y-008349
X023067Y-008327
X022279Y-008721
T02
X012735Y-014500
X012735Y-015000
X011500Y-010629
X004000Y-011500
X020424Y-005748
X026500Y-000250
X025250Y-000250
X015750Y003750
X033250Y002250
X032750Y002250
X033260Y002740
X032760Y002740
X010766Y000516
X012234Y000516
X016000Y-002750
X016250Y-002250
X019750Y-000230
X019250Y-000228
X019750Y001867
X019250Y001872
X011000Y-008500
X011000Y-020500
X012750Y-020250
X025250Y002000
X026750Y001750
X011996Y-002996
X005000Y-003000
X005000Y-003500
X010250Y-006000
X011500Y-007250
X008942Y-008015
X009879Y-008489
X012650Y-012250
X009000Y-013250
X005750Y-013000
X019750Y004000
X019250Y004000
X009000Y-004500
X006000Y-000750
X021750Y002000
X020250Y000100
X019750Y-001250
X019750Y000750
X019750Y002806
X033250Y003250
X019250Y002806
X017000Y002500
X016750Y003750
X010766Y002484
X012234Y002484
X033250Y001250
X026750Y002250
X019250Y000750
X020250Y002100
X017000Y-000750
X033250Y-001700
X019250Y-001250
X020250Y-002000
X017250Y-002500
R02X-002250
X010500Y-002750
X008342Y-002873
X033250Y-003500
X013500Y-004370
X010500Y-004250
X010250Y-004500
X008500Y-003750
X033278Y-005528
X033254Y-007496
X009750Y-006750
X003250Y-007500
X004500Y-007250
X033285Y-009465
X013000Y-008500
X008750Y-009750
X008250Y-009750
X009250Y-009750
X007750Y-009750
X007250Y-009750
X033250Y-011500
X030250Y-010250
X009250Y-010250
X007242Y-010258
X007250Y-011000
X007515Y-011485
X003000Y-010750
X009250Y-011750
X008750Y-011750
X007250Y-011750
X001250Y-015000
X000500Y-014750
X033264Y-015764
X007709Y-016209
X011000Y-018505
X011000Y-021500
X012750Y-022250
X007709Y-027459
X000489Y-027500
X008545Y-006750
X007455Y-006750
X010697Y-009098
X009250Y-007455
R02X000500
X003955Y-009500
X004955Y-010000
X011545Y-009750
X011545Y-010250
X004955Y-012500
X010045Y-013250
X004545Y-012000
X004955Y-011500
X004955Y-012000
X012250Y-010705
X022335Y-009603
X022965Y-009603
X018538Y-005427
X019919Y-005427
X019435Y-007603
X020065Y-007603
X027353Y-009685
X028147Y-010315
X028288Y-005700
X029712Y-005700
X028538Y-008500
X029962Y-008500
X025647Y-018315
X025647Y-017685
T03
X015750Y-021000
X016250Y-021000
X015750Y-021500
X016250Y-021500
X015750Y-022000
X016250Y-022000
X015750Y-022500
X016250Y-022500
X015750Y-023000
X016250Y-023000
T04
X002354Y-011492
X002354Y-010508
X001567Y-010508
X001567Y-011492
X002996Y-001744
X003996Y-002244
X002996Y-002744
X003996Y-003244
X002996Y-003744
X003996Y-004244
X002996Y-004744
X003996Y-005244
X-000831Y-005986
X-001429Y-004986
X-000831Y-002006
X-001429Y-001006
X028394Y-019862
X027606Y-019862
X028394Y-019075
X027606Y-019075
X028394Y-018287
X027606Y-018287
X028394Y-017500
X027606Y-017500
X028394Y-016713
X027606Y-016713
X028394Y-015925
X027606Y-015925
X028394Y-015138
X027606Y-015138
T05
X001701Y-000435
X001701Y-006557
T06
X000500Y-008630
X000500Y-013370
T07
X-000980Y-030216
X-000980Y002784
T08
X009500Y-016500
X009500Y-025319
T09
X000500Y-001246
X000500Y-005746
M30
