G04 ================== begin FILE IDENTIFICATION RECORD ==================*
G04 Layout Name:  DAQ_CONTROLLER.brd*
G04 Film Name:    GND*
G04 File Format:  Gerber RS274X*
G04 File Origin:  Cadence Allegro 17.2-S057*
G04 Origin Date:  Wed Aug 07 01:46:16 2019*
G04 *
G04 Layer:  VIA CLASS/GND*
G04 Layer:  PIN/GND*
G04 Layer:  ETCH/GND*
G04 *
G04 Offset:    (0.00 0.00)*
G04 Mirror:    No*
G04 Mode:      Positive*
G04 Rotation:  0*
G04 FullContactRelief:  No*
G04 UndefLineWidth:     0.00*
G04 ================== end FILE IDENTIFICATION RECORD ====================*
%FSLAX25Y25*MOIN*%
%IR0*IPPOS*OFA0.00000B0.00000*MIA0B0*SFA1.00000B1.00000*%
%ADD15C,.02*%
%ADD12C,.03*%
%ADD17C,.04*%
%ADD16C,.035*%
%ADD19C,.018*%
%ADD18R,.04X.04*%
%ADD13C,.05512*%
%ADD20C,.05906*%
%ADD11C,.06299*%
%ADD21R,.05906X.05906*%
%ADD14C,.10236*%
%ADD10C,.12598*%
%ADD22C,.008*%
%ADD24C,.03004*%
%ADD32C,.04004*%
%ADD28C,.07302*%
%ADD33C,.04504*%
%ADD34C,.02804*%
%ADD25C,.0691*%
%ADD31C,.06722*%
%ADD27C,.06516*%
%ADD29C,.1124*%
%ADD26C,.13602*%
%ADD30C,.14398*%
%ADD23C,.27566*%
G75*
%LPD*%
G75*
G36*
G01X-28302Y56334D02*
X308302D01*
Y41835D01*
G03X313803Y36334I5501J0D01*
G01X348186D01*
Y-4759D01*
X330669D01*
G03Y-15241I0J-5241D01*
G01X348186D01*
Y-162633D01*
X313803D01*
G03X308302Y-168134I0J-5501D01*
G01Y-330664D01*
X-28302D01*
Y56334D01*
G37*
%LPC*%
G75*
G36*
G01X280482Y-201575D02*
Y-195669D01*
G02X280984Y-195168I502J-1D01*
G01X286890D01*
G02X287392Y-195669I1J-501D01*
G01Y-201575D01*
G02X286890Y-202076I-502J1D01*
G01X280984D01*
G02X280482Y-201575I-1J501D01*
G37*
G36*
G01X159500Y-207498D02*
G02X160002Y-208000I0J-502D01*
G01Y-208780D01*
X160313D01*
X160372Y-208685D01*
G02X162500Y-207498I2128J-1314D01*
G02X165002Y-210000I0J-2502D01*
G02X163770Y-212155I-2501J0D01*
G03Y-212845I204J-345D01*
G02Y-217155I-1269J-2155D01*
G03Y-217845I204J-345D01*
G02Y-222155I-1269J-2155D01*
G03Y-222845I204J-345D01*
G02Y-227155I-1269J-2155D01*
G03Y-227845I204J-345D01*
G02X165002Y-230000I-1269J-2155D01*
G02X162500Y-232502I-2502J0D01*
G02X160345Y-231270I0J2501D01*
G03X159655I-345J-204D01*
G02X157500Y-232502I-2155J1269D01*
G02X154998Y-230000I0J2502D01*
G02X156230Y-227845I2501J0D01*
G03Y-227155I-204J345D01*
G02Y-222845I1269J2155D01*
G03Y-222155I-204J345D01*
G02Y-217845I1269J2155D01*
G03Y-217155I-204J345D01*
G02X154998Y-215000I1269J2155D01*
G02X156185Y-212872I2501J0D01*
G01X156280Y-212813D01*
Y-212502D01*
X155500D01*
G02X154998Y-212000I0J502D01*
G01Y-208000D01*
G02X155500Y-207498I502J0D01*
G01X159500D01*
G37*
G36*
G01X206368Y-199013D02*
G03Y-198487I-302J263D01*
G02X205998Y-197500I1131J987D01*
G02X209002I1502J0D01*
G02X208632Y-198487I-1501J0D01*
G03Y-199013I302J-263D01*
G02Y-200987I-1131J-987D01*
G03Y-201513I302J-263D01*
G02X209002Y-202500I-1131J-987D01*
G02X205998I-1502J0D01*
G02X206368Y-201513I1501J0D01*
G03Y-200987I-302J263D01*
G02Y-199013I1131J987D01*
G37*
G36*
G01X219389Y-180294D02*
G03X219510Y-179715I-203J345D01*
G02X219243Y-178893I1135J823D01*
G02X222047I1402J0D01*
G02X221359Y-180100I-1403J0D01*
G03X221238Y-180679I203J-345D01*
G02X221505Y-181501I-1135J-823D01*
G02X218701I-1402J0D01*
G02X219389Y-180294I1403J0D01*
G37*
G36*
G01X117113Y-158632D02*
G03X116587I-263J-302D01*
G02X115600Y-159002I-987J1131D01*
G02Y-155998I0J1502D01*
G02X116587Y-156368I0J-1501D01*
G03X117113I263J302D01*
G02X118100Y-155998I987J-1131D01*
G02Y-159002I0J-1502D01*
G02X117113Y-158632I0J1501D01*
G37*
G36*
G01X128498Y-152535D02*
G03X127986Y-152160I-400J-9D01*
G02X127350Y-152252I-637J2160D01*
G02X129602Y-150000I0J2252D01*
G02X129544Y-150509I-2252J-1D01*
G03X129947Y-150999I390J-90D01*
G02X130000Y-150998I55J-1501D01*
G02Y-154002I0J-1502D01*
G02X128498Y-152535I0J1502D01*
G37*
G36*
G01X118868Y-149013D02*
G03Y-148487I-302J263D01*
G02X118498Y-147500I1131J987D01*
G02X121502I1502J0D01*
G02X121132Y-148487I-1501J0D01*
G03Y-149013I302J-263D01*
G02X121502Y-150000I-1131J-987D01*
G02X118498I-1502J0D01*
G02X118868Y-149013I1501J0D01*
G37*
G36*
G01X241490Y-136639D02*
G03X241470Y-136093I-302J262D01*
G02X241028Y-135029I1060J1064D01*
G02X244032I1502J0D01*
G02X243664Y-136013I-1502J1D01*
G03X243684Y-136559I302J-262D01*
G02X244126Y-137623I-1060J-1064D01*
G02X243570Y-138790I-1503J0D01*
G03X243540Y-139385I251J-311D01*
G02X243985Y-140452I-1057J-1067D01*
G02X240981I-1502J0D01*
G02X241537Y-139285I1503J0D01*
G03X241567Y-138690I-251J311D01*
G02X241122Y-137623I1057J1067D01*
G02X241490Y-136639I1502J-1D01*
G37*
G36*
G01X181416Y-131397D02*
G03X181466Y-130874I-275J290D01*
G02X181186Y-130000I1222J873D01*
G02X184190I1502J0D01*
G02X183719Y-131092I-1501J0D01*
G03X183669Y-131615I275J-290D01*
G02X183949Y-132489I-1222J-873D01*
G02X180945I-1502J0D01*
G02X181416Y-131397I1501J0D01*
G37*
G36*
G01X211015Y-126591D02*
G03X210490Y-126570I-275J-291D01*
G02X209548Y-126902I-942J1170D01*
G02Y-123898I0J1502D01*
G02X210580Y-124308I1J-1502D01*
G03X211105Y-124329I275J291D01*
G02X212047Y-123997I942J-1170D01*
G02Y-127001I0J-1502D01*
G02X211015Y-126591I-1J1502D01*
G37*
G36*
G01X138928Y-103740D02*
G03X138402Y-103701I-285J-280D01*
G02X137500Y-104002I-902J1201D01*
G02Y-100998I0J1502D01*
G02X138572Y-101448I0J-1502D01*
G03X139098Y-101487I285J280D01*
G02X140000Y-101186I902J-1201D01*
G02Y-104190I0J-1502D01*
G02X138928Y-103740I0J1502D01*
G37*
G36*
G01X61371Y-41511D02*
G03X61369Y-40988I-304J260D01*
G02X60998Y-40000I1130J988D01*
G02X64002I1502J0D01*
G02X63642Y-40976I-1503J0D01*
G03X63644Y-41499I304J-260D01*
G02X64015Y-42487I-1130J-988D01*
G02X61011I-1502J0D01*
G02X61371Y-41511I1503J0D01*
G37*
G36*
G01X218878Y-168220D02*
G02X220103Y-167500I1225J-682D01*
G02X221313Y-168194I0J-1402D01*
G03X222007Y-168188I345J202D01*
G02X223228Y-167475I1221J-689D01*
G02Y-170279I0J-1402D01*
G02X222018Y-169585I0J1402D01*
G03X221324Y-169591I-345J-202D01*
G02X220103Y-170304I-1221J689D01*
G02X218878Y-169584I0J1402D01*
G03X218179I-350J-194D01*
G02X216954Y-170304I-1225J682D01*
G02Y-167500I0J1402D01*
G02X218179Y-168220I0J-1402D01*
G03X218878I350J194D01*
G37*
G36*
G01X178557Y-163291D02*
G02X178498Y-162874I1444J417D01*
G02X180000Y-164376I1502J0D01*
G02X179469Y-164279I0J1502D01*
G03X178943Y-164764I-142J-374D01*
G02X179002Y-165181I-1444J-417D01*
G02X177500Y-163679I-1502J0D01*
G02X178031Y-163776I0J-1502D01*
G03X178557Y-163291I142J374D01*
G37*
G36*
G01X197917Y-163828D02*
G02X197196Y-162603I680J1225D01*
G02X200000I1402J0D01*
G02X199279Y-163828I-1401J0D01*
G03Y-164528I194J-350D01*
G02X200000Y-165753I-680J-1225D01*
G02X199280Y-166978I-1402J0D01*
G03Y-167677I194J-350D01*
G02X199823Y-168220I-682J-1225D01*
G03X200522I350J194D01*
G02X201747Y-167500I1225J-682D01*
G02X202972Y-168221I0J-1401D01*
G03X203672I350J194D01*
G02X204897Y-167500I1225J-680D01*
G02X206122Y-168220I0J-1402D01*
G03X206821I350J194D01*
G02X208046Y-167500I1225J-682D01*
G02X209271Y-168221I0J-1401D01*
G03X209971I350J194D01*
G02X211196Y-167500I1225J-680D01*
G02Y-170304I0J-1402D01*
G02X209971Y-169583I0J1401D01*
G03X209271I-350J-194D01*
G02X208046Y-170304I-1225J680D01*
G02X206821Y-169584I0J1402D01*
G03X206122I-350J-194D01*
G02X204897Y-170304I-1225J682D01*
G02X203672Y-169583I0J1401D01*
G03X202972I-350J-194D01*
G02X201747Y-170304I-1225J680D01*
G02X200522Y-169584I0J1402D01*
G03X199823I-350J-194D01*
G02X198598Y-170304I-1225J682D01*
G02X197196Y-168902I0J1402D01*
G02X197916Y-167677I1402J0D01*
G03Y-166978I-194J350D01*
G02X197196Y-165753I682J1225D01*
G02X197917Y-164528I1401J0D01*
G03Y-163828I-194J350D01*
G37*
G36*
G01X225720Y-160679D02*
G02X225000Y-159454I682J1225D01*
G02X226402Y-158052I1402J0D01*
G02X227627Y-158773I0J-1401D01*
G03X228327I350J194D01*
G02X229552Y-158052I1225J-680D01*
G02X230954Y-159454I0J-1402D01*
G02X230234Y-160679I-1402J0D01*
G03Y-161378I194J-350D01*
G02X230954Y-162603I-682J-1225D01*
G02X229552Y-164005I-1402J0D01*
G02X228327Y-163284I0J1401D01*
G03X227627I-350J-194D01*
G02X227083Y-163828I-1225J681D01*
G03Y-164528I194J-350D01*
G02X227804Y-165753I-680J-1225D01*
G02X225000I-1402J0D01*
G02X225721Y-164528I1401J0D01*
G03Y-163828I-194J350D01*
G02X225000Y-162603I680J1225D01*
G02X225720Y-161378I1402J0D01*
G03Y-160679I-194J349D01*
G37*
G36*
G01X227627Y-151727D02*
G02X226402Y-152448I-1225J680D01*
G02Y-149644I0J1402D01*
G02X227627Y-150365I0J-1401D01*
G03X228327I350J194D01*
G02X229552Y-149644I1225J-680D01*
G02X230954Y-151046I0J-1402D01*
G02X230502Y-152077I-1402J0D01*
G03Y-152665I271J-294D01*
G02X230777Y-153015I-951J-1030D01*
G03X231477I350J194D01*
G02X232702Y-152294I1225J-680D01*
G02Y-155098I0J-1402D01*
G02X231477Y-154377I0J1401D01*
G03X230777I-350J-194D01*
G02X229552Y-155098I-1225J680D01*
G02X228150Y-153696I0J1402D01*
G02X228602Y-152665I1402J0D01*
G03Y-152077I-271J294D01*
G02X228327Y-151727I951J1030D01*
G03X227627I-350J-194D01*
G37*
G36*
G01X197917Y-145472D02*
G02X197196Y-144247I680J1225D01*
G02X200000I1402J0D01*
G02X199279Y-145472I-1401J0D01*
G03Y-146172I194J-350D01*
G02X200000Y-147397I-680J-1225D01*
G02X197196I-1402J0D01*
G02X197917Y-146172I1401J0D01*
G03Y-145472I-194J350D01*
G37*
G36*
G01X225473Y-145247D02*
G02X225000Y-144197I929J1050D01*
G02X227804I1402J0D01*
G02X227331Y-145247I-1402J0D01*
G03Y-145847I265J-300D01*
G02X227647Y-146252I-929J-1050D01*
G03X228357I355J184D01*
G02X228856Y-145710I1245J-645D01*
G03X228956Y-145122I-213J339D01*
G02X228650Y-144247I1096J874D01*
G02X230052Y-142845I1402J0D01*
G02X231083Y-143297I0J-1402D01*
G03X231671I294J271D01*
G02X232702Y-142845I1031J-950D01*
G02X234104Y-144247I0J-1402D01*
G02X233395Y-145466I-1402J0D01*
G03X233320Y-146105I198J-347D01*
G02X233765Y-147130I-958J-1025D01*
G02X232363Y-148532I-1402J0D01*
G02X231214Y-147933I0J1402D01*
G03X230601Y-147881I-328J-229D01*
G02X229602Y-148299I-999J985D01*
G02X228357Y-147542I0J1402D01*
G03X227647I-355J-184D01*
G02X226402Y-148299I-1245J645D01*
G02X225000Y-146897I0J1402D01*
G02X225473Y-145847I1402J0D01*
G03Y-145247I-265J300D01*
G37*
G36*
G01X206821Y-137266D02*
G02X208046Y-136546I1225J-682D01*
G02X209271Y-137267I0J-1401D01*
G03X209971I350J194D01*
G02X211196Y-136546I1225J-680D01*
G02X212598Y-137948I0J-1402D01*
G02X211877Y-139173I-1401J0D01*
G03Y-139873I194J-350D01*
G02X212598Y-141098I-680J-1225D01*
G02X211196Y-142500I-1402J0D01*
G02X209971Y-141779I0J1401D01*
G03X209271I-350J-194D01*
G02X208046Y-142500I-1225J680D01*
G02X206821Y-141780I0J1402D01*
G03X206122I-350J-194D01*
G02X204897Y-142500I-1225J682D01*
G02X203495Y-141098I0J1402D01*
G02X204216Y-139873I1401J0D01*
G03Y-139173I-194J350D01*
G02X203495Y-137948I680J1225D01*
G02X204897Y-136546I1402J0D01*
G02X206122Y-137266I0J-1402D01*
G03X206821I350J194D01*
G37*
G36*
G01X219422Y-139173D02*
G02X218701Y-137948I680J1225D01*
G02X221505I1402J0D01*
G02X220784Y-139173I-1401J0D01*
G03Y-139873I194J-350D01*
G02X221328Y-140417I-681J-1225D01*
G03X222028I350J194D01*
G02X223253Y-139696I1225J-680D01*
G02Y-142500I0J-1402D01*
G02X222028Y-141779I0J1401D01*
G03X221328I-350J-194D01*
G02X220103Y-142500I-1225J680D01*
G02X218878Y-141780I0J1402D01*
G03X218179I-350J-194D01*
G02X216954Y-142500I-1225J682D01*
G02Y-139696I0J1402D01*
G02X218179Y-140416I0J-1402D01*
G03X218878I350J194D01*
G02X219422Y-139873I1224J-683D01*
G03Y-139173I-194J350D01*
G37*
G36*
G01X200731Y-126256D02*
G02X199907Y-126502I-824J1257D01*
G02Y-123498I0J1502D01*
G02X201048Y-124023I0J-1502D01*
G03X201571Y-124097I304J260D01*
G02X202395Y-123851I824J-1257D01*
G02X203897Y-125353I0J-1502D01*
G02X202843Y-126787I-1503J0D01*
G03X202692Y-127464I119J-382D01*
G02X202972Y-127818I-945J-1035D01*
G03X203672I350J194D01*
G02X204897Y-127097I1225J-680D01*
G02Y-129901I0J-1402D01*
G02X203672Y-129180I0J1401D01*
G03X202972I-350J-194D01*
G02X201747Y-129901I-1225J680D01*
G02X200345Y-128499I0J1402D01*
G02X201288Y-127174I1402J0D01*
G03X201417Y-126493I-132J378D01*
G02X201254Y-126330I977J1140D01*
G03X200731Y-126256I-304J-260D01*
G37*
G36*
G01X226727Y-126016D02*
G02X226173Y-126122I-554J1395D01*
G02Y-123118I0J1502D01*
G02X227481Y-123882I0J-1502D01*
G03X227977Y-124057I348J197D01*
G02X228531Y-123951I554J-1395D01*
G02X230033Y-125453I0J-1502D01*
G02X229638Y-126468I-1502J0D01*
G03X229849Y-127129I295J-270D01*
G02X230954Y-128499I-297J-1370D01*
G02X230233Y-129724I-1401J0D01*
G03Y-130424I194J-350D01*
G02X230954Y-131649I-680J-1225D01*
G02X230234Y-132874I-1402J0D01*
G03Y-133573I194J-349D01*
G02X230954Y-134798I-682J-1225D01*
G02X230233Y-136023I-1401J0D01*
G03Y-136723I194J-350D01*
G02X230954Y-137948I-680J-1225D01*
G02X228150I-1402J0D01*
G02X228871Y-136723I1401J0D01*
G03Y-136023I-194J350D01*
G02X228150Y-134798I680J1225D01*
G02X228870Y-133573I1402J0D01*
G03Y-132874I-194J350D01*
G02X228150Y-131649I682J1225D01*
G02X228871Y-130424I1401J0D01*
G03Y-129724I-194J350D01*
G02X228150Y-128499I680J1225D01*
G02X228489Y-127584I1402J1D01*
G03X228259Y-126930I-303J261D01*
G02X227223Y-126191I272J1477D01*
G03X226727Y-126016I-348J-197D01*
G37*
G36*
G01X203849Y-54665D02*
G02X203498Y-53700I1151J965D01*
G02X206502I1502J0D01*
G02X205689Y-55035I-1503J0D01*
G03X205626Y-55705I184J-355D01*
G02X206492Y-57480I-1386J-1775D01*
G02X201988I-2252J0D01*
G02X203647Y-55307I2253J0D01*
G03X203849Y-54665I-105J386D01*
G37*
G54D24*
X269335Y-79335D03*
X145000Y9847D03*
X150000Y-5000D03*
X253587Y-83272D03*
X135000Y0D03*
X162263Y20292D03*
X157500Y20000D03*
X160000Y-5000D03*
X135000Y15000D03*
X127457Y-42502D03*
X257524Y-48539D03*
X132981Y-64469D03*
X253587Y-44602D03*
X273272Y-71461D03*
X66850Y-18769D03*
X257524Y-56413D03*
X82500Y-85000D03*
X242476Y-83272D03*
Y-71461D03*
X72500Y-70000D03*
X261461Y-52476D03*
X273272Y-56413D03*
X246413Y-48539D03*
X242476Y-44602D03*
X242590Y-147590D03*
X253587Y-71461D03*
X246629Y-83488D03*
X257524Y-75398D03*
X261461Y-63587D03*
X238539Y-56413D03*
Y-67524D03*
X242476Y-63587D03*
X226728Y-83272D03*
Y-71461D03*
Y-56413D03*
X233490Y-123773D03*
X257524Y-67524D03*
X232971Y-185000D03*
X182500Y-167496D03*
X215847Y-125324D03*
X242476Y-52476D03*
X273272Y-83272D03*
X261461Y-71461D03*
X238539Y-48539D03*
X269335Y-71461D03*
X265398D03*
X265614Y-83056D03*
X269335Y-67524D03*
X265398D03*
Y-63587D03*
X269335D03*
X265398Y-56413D03*
Y-52476D03*
X269335D03*
X265398Y-48539D03*
X269335D03*
Y-44602D03*
X261461Y-40665D03*
Y-44602D03*
X269335Y-40665D03*
X261245Y-83488D03*
X265398Y-79335D03*
X269335Y-87209D03*
X223524Y-185000D03*
X192027Y-137677D03*
X182500Y-137598D03*
X188879Y-143976D03*
X177500Y-170000D03*
X237500Y-185000D03*
X182602Y-142498D03*
X188879Y-134528D03*
X190000Y-125000D03*
X210000Y-185000D03*
X181800Y-172500D03*
X179812Y-140188D03*
X180103Y-147397D03*
X217500Y-185000D03*
X246344Y-96156D03*
X217535Y-49902D03*
X85000Y-57500D03*
X212500Y-47500D03*
X70000Y-52500D03*
X212500Y-57500D03*
X263800Y-122500D03*
X210000Y-70000D03*
X205000D03*
X50081Y-22419D03*
X188328Y-85272D03*
X200094Y-102406D03*
X242500Y-180000D03*
X260000Y-100000D03*
Y-92500D03*
X257500Y-97500D03*
X260000Y-130000D03*
X255000Y-95000D03*
X125000Y-165094D03*
X250073Y-117393D03*
X158600Y-102500D03*
X256827Y-135000D03*
X250000Y-122500D03*
X256200D03*
X180000Y-110000D03*
X265000Y-112500D03*
X210000Y-5000D03*
X208100Y-95000D03*
X217500Y-12500D03*
X255094Y-102406D03*
X220000Y-15000D03*
X182500Y-113700D03*
X252500Y-17500D03*
X250000Y-27500D03*
X75000Y-85000D03*
X233119Y-100000D03*
X213300D03*
X245181Y-92500D03*
X247500Y-172500D03*
X222547Y-10141D03*
X55000Y-47500D03*
X242500Y-165000D03*
X275000Y-112500D03*
X240000Y-175472D03*
X257500Y-160000D03*
X252500Y-165000D03*
X290000Y-120000D03*
X247500Y-25000D03*
X302500Y-112500D03*
X142500Y-110000D03*
X112500Y-145000D03*
X297500Y-112500D03*
X150000Y-165181D03*
X131500Y-120000D03*
X142500Y-115000D03*
X110000Y-147500D03*
X147500Y-113800D03*
X295000Y-115000D03*
X140000Y-97500D03*
X97500Y-42500D03*
X95000Y-45000D03*
X110000Y-132500D03*
X92500Y-57500D03*
X262500Y-102500D03*
X265330Y-99670D03*
X133900Y-157800D03*
X112500Y-130100D03*
X305000Y-115000D03*
X122500Y-167500D03*
X225000Y-227500D03*
X275000Y-122500D03*
X280000Y-112500D03*
X300000Y-115000D03*
X280000Y-122500D03*
X152500Y32500D03*
X140000Y-15000D03*
X135000Y5000D03*
G54D32*
X327598Y27402D03*
X157500Y37500D03*
X162500Y-22500D03*
X160000Y-27500D03*
X115000Y-106290D03*
X90000Y-45000D03*
X60000Y-7500D03*
X122500Y-107050D03*
X85450Y-67500D03*
X115450Y-97500D03*
X39550Y-95000D03*
X49550Y-120000D03*
X40000Y-115000D03*
X285382Y-85000D03*
X194350Y-76032D03*
X282882Y-57000D03*
X265000Y-2500D03*
X102500Y-60000D03*
X185381Y-54269D03*
X273531Y-96850D03*
X122343Y5157D03*
X89423Y-80151D03*
X90000Y-132500D03*
X50000Y-30000D03*
X223350Y-96032D03*
X50000Y-35000D03*
X57500Y-130000D03*
X98793Y-84892D03*
X119964Y-29964D03*
X115000Y-72500D03*
X110000Y-85000D03*
X252500Y-2500D03*
X126500Y-122500D03*
X267500Y17500D03*
X256468Y-183150D03*
X332598Y27402D03*
X327500Y22500D03*
X332500D03*
X107657Y5157D03*
X110000Y-205000D03*
X127500Y-202500D03*
X252500Y20000D03*
X197500Y40000D03*
Y18673D03*
Y-2300D03*
G54D28*
X-14291Y-49862D03*
X-8307Y-59862D03*
X39961Y-22441D03*
X29961Y-17441D03*
X39961Y-32441D03*
Y-42441D03*
X29961Y-27441D03*
Y-37441D03*
X-8307Y-20059D03*
X-14291Y-10059D03*
X39961Y-52441D03*
X29961Y-47441D03*
G54D33*
X192500Y40000D03*
Y-2277D03*
Y18723D03*
X127350Y-145000D03*
G54D34*
X195448Y-141098D03*
X239001Y-134798D03*
X249578Y-75327D03*
X192298Y-147397D03*
Y-172052D03*
Y-128499D03*
X185999Y-165753D03*
X198598Y-153696D03*
X189149Y-181501D03*
X239001Y-144247D03*
X185000Y-159095D03*
X233243Y-137406D03*
X234673Y-52547D03*
Y-71390D03*
X226392Y-49006D03*
X195000Y-125000D03*
X230736Y-52547D03*
X234673Y-48610D03*
Y-56484D03*
X233907Y-63593D03*
X234673Y-60422D03*
X265827Y-40236D03*
G54D25*
X276063Y-198622D03*
Y-190748D03*
Y-175000D03*
Y-167126D03*
Y-182874D03*
X283937Y-151378D03*
X276063D03*
X283937Y-167126D03*
Y-175000D03*
Y-182874D03*
Y-190748D03*
Y-159252D03*
X276063D03*
G54D31*
X95000Y-253189D03*
Y-165000D03*
G54D27*
X15669Y-114921D03*
X23543Y-105079D03*
X15669D03*
X23543Y-114921D03*
G54D29*
X17008Y-65571D03*
Y-4350D03*
G54D26*
X5000Y-133701D03*
Y-86299D03*
G54D30*
Y-12461D03*
Y-57461D03*
G54D23*
X-9803Y27835D03*
Y-302165D03*
%LPD*%
G75*
G54D10*
X5000Y-133701D03*
Y-86299D03*
G54D11*
X-8307Y-59862D03*
X-14291Y-49862D03*
X-8307Y-20059D03*
X-14291Y-10059D03*
X29961Y-47441D03*
Y-37441D03*
Y-27441D03*
Y-17441D03*
X39961Y-52441D03*
Y-42441D03*
Y-32441D03*
Y-22441D03*
G54D20*
X276063Y-198622D03*
Y-190748D03*
Y-182874D03*
Y-175000D03*
Y-167126D03*
Y-159252D03*
Y-151378D03*
X283937Y-190748D03*
Y-175000D03*
Y-182874D03*
Y-159252D03*
Y-167126D03*
Y-151378D03*
G54D21*
Y-198622D03*
G54D12*
X4887Y-275000D03*
X5000Y-147500D03*
X12500Y-150000D03*
X30000Y-107500D03*
X32500Y-75000D03*
X49550Y-125000D03*
X45450Y-120000D03*
X49550Y-115000D03*
Y-120000D03*
X40000Y-115000D03*
X49550Y-100000D03*
X39550Y-95000D03*
X45000Y-72500D03*
X50000Y-35000D03*
Y-30000D03*
X57500Y-130000D03*
X60000Y-7500D03*
X77087Y-274587D03*
Y-162087D03*
X72500Y-117500D03*
X75152Y-114848D03*
X72500Y-110000D03*
X72421Y-102579D03*
X72500Y-97500D03*
X77500D03*
X82500D03*
X74550Y-67500D03*
X85450D03*
X85000Y-37500D03*
X83418Y-28733D03*
X100450Y-132500D03*
X90000D03*
X87500Y-117500D03*
X92500D03*
Y-102500D03*
Y-97500D03*
X87500D03*
X92500Y-74550D03*
X97500D03*
X102500D03*
X98793Y-84892D03*
X89423Y-80151D03*
X97500Y-67500D03*
X102500Y-60000D03*
Y-45000D03*
X90000D03*
X110000Y-215000D03*
Y-205000D03*
Y-185053D03*
X115000Y-106290D03*
X115450Y-102500D03*
X106969Y-90981D03*
X115450Y-97500D03*
X115000Y-72500D03*
X110000Y-85000D03*
X105000Y-42500D03*
Y-27500D03*
X119964Y-29964D03*
X107657Y5157D03*
Y24843D03*
X127500Y-222500D03*
Y-202500D03*
X126500Y-122500D03*
X122500Y-107050D03*
X130000Y-85000D03*
X135000Y-43700D03*
X127500Y-25000D03*
X122343Y5157D03*
Y24843D03*
X150000Y-25000D03*
X172500D03*
X162500Y-22500D03*
X160000Y-27500D03*
X170000Y-7500D03*
Y25000D03*
X167500Y37500D03*
X157500D03*
X185381Y-54269D03*
X200650Y-76032D03*
X194350D03*
X199190Y-54269D03*
X202500Y-20000D03*
X192500Y-12500D03*
X197500D03*
X192500Y7500D03*
X197500D03*
X202500Y1000D03*
X197500Y-2300D03*
X202500Y21000D03*
X192500Y28055D03*
X197500D03*
Y18673D03*
Y40000D03*
X223350Y-96032D03*
X229650D03*
X256468Y-176850D03*
Y-183150D03*
X252500Y-2500D03*
Y20000D03*
X273531Y-96850D03*
X265000Y-2500D03*
X267500Y22500D03*
Y17500D03*
X281468Y-103150D03*
X285382Y-85000D03*
X282882Y-57000D03*
X302500Y-102500D03*
X299619Y-85000D03*
X297119Y-57000D03*
X327598Y27402D03*
X327500Y22500D03*
X332638Y-157638D03*
X332500Y-115000D03*
X332854Y-94646D03*
X332539Y-74961D03*
X332776Y-55276D03*
X332500Y-35000D03*
Y-17000D03*
Y12500D03*
X332598Y27402D03*
X332500Y22500D03*
Y32500D03*
G54D22*
G01X-18143Y-49862D02*
X-14291D01*
G01X-2001Y-133701D02*
X5000D01*
G01X-2001Y-86299D02*
X5000D01*
G01X-14291Y-53714D02*
Y-49862D01*
G01D02*
Y-46010D01*
G01Y-49862D02*
X-10439D01*
G01X-8307Y-23911D02*
Y-20059D01*
G01D02*
Y-16207D01*
G01X-12159Y-20059D02*
X-8307D01*
G01D02*
X-4455D01*
G01X5000Y-140702D02*
Y-133701D01*
G01D02*
Y-126700D01*
G01Y-133701D02*
X12001D01*
G01X15669Y-118379D02*
Y-114921D01*
G01D02*
Y-111463D01*
G01X12211Y-114921D02*
X15669D01*
G01D02*
X19127D01*
G01X5000Y-93300D02*
Y-86299D01*
G01D02*
Y-79298D01*
G01Y-86299D02*
X12001D01*
G01X11188Y-65571D02*
X17008D01*
G01X11188Y-4350D02*
X17008D01*
G01Y-71391D02*
Y-65571D01*
G01D02*
Y-59751D01*
G01Y-65571D02*
X22828D01*
G01X17008Y-10170D02*
Y-4350D01*
G01D02*
Y1470D01*
G01Y-4350D02*
X22828D01*
G01X39961Y-56293D02*
Y-52441D01*
G01D02*
Y-48589D01*
G01X36109Y-52441D02*
X39961D01*
G01D02*
X43813D01*
G01X157500Y-232702D02*
Y-230000D01*
G01X154798D02*
X157500D01*
G01X154798Y-220000D02*
X157500D01*
G01X154798Y-215000D02*
X157500D01*
G01X283937Y-194403D02*
Y-190748D01*
G01D02*
Y-187093D01*
G01X280282Y-190748D02*
X283937D01*
G01D02*
X287592D01*
G01X283937Y-186529D02*
Y-182874D01*
G01D02*
Y-179219D01*
G01X280282Y-182874D02*
X283937D01*
G01D02*
X287592D01*
G01X283937Y-178655D02*
Y-175000D01*
G01Y-170781D02*
Y-167126D01*
G01D02*
Y-163471D01*
G01X280282Y-167126D02*
X283937D01*
G01D02*
X287592D01*
G01X283937Y-162907D02*
Y-159252D01*
G01D02*
Y-155597D01*
G01X280282Y-159252D02*
X283937D01*
G01D02*
X287592D01*
G01X283937Y-175000D02*
Y-171345D01*
G01X280282Y-175000D02*
X283937D01*
G01D02*
X287592D01*
G01X283937Y-155033D02*
Y-151378D01*
G01D02*
Y-147723D01*
G01X280282Y-151378D02*
X283937D01*
G01D02*
X287592D01*
G54D13*
X15669Y-105079D03*
Y-114921D03*
X23543D03*
Y-105079D03*
G54D14*
X17008Y-65571D03*
Y-4350D03*
G54D15*
X49650Y-95000D03*
X50081Y-22419D03*
X65000Y-55000D03*
X62500Y-52500D03*
X59650Y-45000D03*
X55000Y-47500D03*
X62500Y-40000D03*
X62513Y-42487D03*
X55000Y-32500D03*
X59500Y-30000D03*
X65012Y-32319D03*
X60000Y-20000D03*
X66850Y-18769D03*
X75000Y-85000D03*
X82500D03*
X75000Y-57488D03*
X85000Y-57500D03*
X72500Y-70000D03*
X70000Y-52500D03*
X73150Y-18769D03*
X90000Y-64988D03*
X92500Y-57500D03*
X95000Y-45000D03*
X97500Y-42500D03*
X118100Y-157500D03*
X120000Y-150000D03*
Y-147500D03*
X115600Y-157500D03*
X110000Y-147500D03*
X112500Y-145000D03*
Y-130100D03*
X110000Y-132500D03*
X125000Y-165094D03*
X122500Y-167500D03*
X130000Y-152500D03*
X133900Y-157800D03*
X131500Y-120000D03*
X137500Y-102500D03*
X132981Y-60531D03*
Y-64469D03*
X127500Y-47500D03*
X127457Y-42502D03*
X135000Y10000D03*
Y5000D03*
Y0D03*
Y15000D03*
X150000Y-165181D03*
X147500Y-113800D03*
X142500Y-115000D03*
Y-110000D03*
X140000Y-102688D03*
Y-97500D03*
X147500Y-12500D03*
X145000Y-15000D03*
X155000Y-5000D03*
X150000D03*
X140000Y-15000D03*
X145079Y2579D03*
X153232Y11768D03*
Y7500D03*
Y3232D03*
X145000Y9847D03*
Y15000D03*
Y30000D03*
X152500Y32500D03*
X170000Y-154036D03*
X158600Y-102500D03*
X160000Y-5000D03*
X169921Y2579D03*
X170000Y10000D03*
X157500Y3232D03*
X161768D03*
Y7500D03*
Y11768D03*
X157500D03*
Y7500D03*
X170000Y15000D03*
X162263Y20292D03*
X157500Y20000D03*
X181800Y-172500D03*
X177500Y-165181D03*
X182500Y-167496D03*
X177500Y-170000D03*
X180000Y-162874D03*
X180103Y-147397D03*
X188879Y-143976D03*
X182602Y-142498D03*
X179812Y-140188D03*
X182500Y-137598D03*
X182688Y-130000D03*
X182447Y-132489D03*
X188879Y-134528D03*
X182500Y-113700D03*
X180000Y-110000D03*
X188328Y-85272D03*
X197500Y-227500D03*
X199907Y-125000D03*
X202395Y-125353D03*
X192027Y-137677D03*
X190000Y-125000D03*
X200094Y-102406D03*
X205000Y-70000D03*
Y-53700D03*
X222500Y-205000D03*
X207500Y-200000D03*
Y-202500D03*
Y-197500D03*
X217500Y-185000D03*
X223524D03*
X210000D03*
X209548Y-125400D03*
X215847Y-125324D03*
X212047Y-125499D03*
X213300Y-100000D03*
X208100Y-95000D03*
X222791Y-87209D03*
Y-71461D03*
X210000Y-70000D03*
X212500Y-57500D03*
X222575Y-48755D03*
X212500Y-47500D03*
X217535Y-49902D03*
X222791Y-32791D03*
X220000Y-15000D03*
X210000Y-5000D03*
X217500Y-12500D03*
X222547Y-10141D03*
X225000Y-227500D03*
X237500Y-200000D03*
X232971Y-185000D03*
X237500D03*
X240000Y-175472D03*
X226173Y-124620D03*
X228531Y-125453D03*
X233490Y-123773D03*
X233119Y-100000D03*
X230665Y-83272D03*
X238755Y-83488D03*
X234602Y-75398D03*
X226728Y-83272D03*
X238539Y-71461D03*
X230665Y-56413D03*
X238539Y-63587D03*
X226728Y-71461D03*
Y-56413D03*
X238539Y-67524D03*
Y-56413D03*
Y-52476D03*
X230665Y-48539D03*
X238539Y-44602D03*
X226512Y-40881D03*
X238539Y-48539D03*
X234602Y-36728D03*
X242500Y-180000D03*
Y-165000D03*
X247500Y-172500D03*
X257500Y-160000D03*
X252500Y-165000D03*
X242590Y-147590D03*
X242624Y-137623D03*
X242530Y-135029D03*
X256827Y-135000D03*
X242483Y-140452D03*
X256200Y-122500D03*
X250073Y-117393D03*
X250000Y-122500D03*
X255094Y-102406D03*
X246344Y-96156D03*
X245181Y-92500D03*
X255000Y-95000D03*
X257500Y-97500D03*
X257308Y-83488D03*
X242476Y-75398D03*
X253587D03*
X242476Y-83272D03*
X246629Y-83488D03*
X253587Y-83272D03*
X257524Y-75398D03*
X242476Y-67524D03*
X246413Y-71461D03*
X257524D03*
Y-63587D03*
X242476Y-56413D03*
X257524Y-67524D03*
X242476Y-71461D03*
X253587D03*
X257524Y-56413D03*
X242476Y-63587D03*
Y-48539D03*
X253587D03*
X257524Y-52476D03*
X242476Y-40665D03*
X246413D03*
Y-44602D03*
X253587Y-40665D03*
X257524D03*
Y-44602D03*
Y-48539D03*
X242476Y-52476D03*
X246413Y-48539D03*
X242476Y-44602D03*
X253587D03*
X242692Y-32575D03*
X246413Y-36728D03*
X257524Y-32791D03*
Y-36728D03*
X247500Y-25000D03*
X250000Y-27500D03*
X252500Y-17500D03*
X260000Y-130000D03*
X263800Y-122500D03*
X275000D03*
X265000Y-112500D03*
X275000D03*
X260000Y-100000D03*
X265330Y-99670D03*
X262500Y-102500D03*
X260000Y-92500D03*
X269335Y-83272D03*
X265398Y-75398D03*
X261461D03*
X273272Y-83272D03*
X269335Y-79335D03*
Y-87209D03*
X265398Y-79335D03*
X265614Y-83056D03*
X261245Y-83488D03*
X261461Y-67524D03*
Y-56413D03*
X269335D03*
X273272Y-71461D03*
Y-56413D03*
X261461Y-71461D03*
Y-63587D03*
X269335D03*
Y-67524D03*
X265398Y-71461D03*
Y-56413D03*
Y-63587D03*
Y-67524D03*
X269335Y-71461D03*
X261461Y-48539D03*
X273272Y-40665D03*
X265398Y-44602D03*
X261461Y-52476D03*
X269335Y-40665D03*
X265398Y-48539D03*
Y-52476D03*
X261461Y-40665D03*
Y-44602D03*
X269335D03*
Y-48539D03*
Y-52476D03*
X261461Y-36728D03*
X265182Y-32575D03*
X280000Y-122500D03*
Y-112500D03*
X290000Y-120000D03*
X277209Y-87209D03*
Y-71461D03*
Y-48539D03*
Y-32791D03*
X305000Y-132500D03*
X300000D03*
X295000D03*
X300000Y-115000D03*
X295000D03*
X305000D03*
X302500Y-112500D03*
X297500D03*
G54D16*
X127350Y-150000D03*
Y-145000D03*
X204240Y-57480D03*
X192500Y-2277D03*
Y18723D03*
Y40000D03*
X217500Y20000D03*
G54D17*
X162500Y-230000D03*
X157500D03*
X162500Y-225000D03*
Y-220000D03*
Y-215000D03*
Y-210000D03*
X157500Y-225000D03*
Y-220000D03*
Y-215000D03*
G54D18*
Y-210000D03*
G54D19*
X185999Y-181501D03*
X189149Y-178351D03*
Y-181501D03*
Y-165753D03*
X185999D03*
X185000Y-159095D03*
X185999Y-128499D03*
X204897Y-162603D03*
X198598Y-159454D03*
X204897D03*
X192298Y-172052D03*
X198598Y-168902D03*
Y-165753D03*
Y-162603D03*
X204897Y-168902D03*
X201747D03*
X204897Y-153696D03*
X192298Y-150546D03*
X204897Y-151046D03*
Y-147397D03*
X192298Y-141098D03*
X195448D03*
X198598Y-144247D03*
X192298Y-147397D03*
X198598Y-153696D03*
X204897Y-141098D03*
X198598Y-147397D03*
X204897Y-131649D03*
X192581Y-131341D03*
X204897Y-128499D03*
X201747D03*
X192298D03*
X204897Y-137948D03*
X195000Y-125000D03*
X220103Y-181501D03*
X220645Y-178893D03*
X211196Y-175202D03*
X208046Y-159454D03*
X220103Y-162603D03*
X216954D03*
Y-159454D03*
X211196Y-162603D03*
Y-159454D03*
X208046Y-162603D03*
X220103Y-159454D03*
X211196Y-168902D03*
X220103D03*
X216954D03*
X208046D03*
X223228Y-168877D03*
X208046Y-153696D03*
X211196D03*
X216954D03*
X220103D03*
Y-147397D03*
X216954Y-151046D03*
Y-147397D03*
X211196Y-151046D03*
Y-147397D03*
X208046D03*
Y-151046D03*
X220103D03*
Y-141098D03*
X216954D03*
X211196D03*
X208046D03*
X223253D03*
X220103Y-134798D03*
X216954D03*
X211196Y-131649D03*
Y-128499D03*
X223253Y-134798D03*
X223794Y-131649D03*
X208046Y-137948D03*
X220103D03*
X211196D03*
X239001Y-181501D03*
X229552D03*
X226402D03*
X232702Y-172052D03*
Y-159454D03*
X229552Y-162603D03*
X226402D03*
Y-159454D03*
X229552D03*
X226402Y-165753D03*
X235851Y-144247D03*
X229602Y-146897D03*
X229552Y-153696D03*
Y-151046D03*
X230052Y-144247D03*
X232363Y-147130D03*
X226402Y-151046D03*
Y-146897D03*
Y-144197D03*
X239001Y-144247D03*
X232702Y-153696D03*
Y-144247D03*
X239001Y-128499D03*
X229552Y-131649D03*
Y-134798D03*
Y-128499D03*
Y-137948D03*
X233243Y-137406D03*
X239001Y-134798D03*
X233907Y-63593D03*
X234673Y-60422D03*
Y-71390D03*
Y-56484D03*
X230736Y-52547D03*
X226392Y-49006D03*
X234673Y-48610D03*
Y-52547D03*
X249578Y-75327D03*
X265827Y-40236D03*
M02*
