G04 ================== begin FILE IDENTIFICATION RECORD ==================*
G04 Layout Name:  DAQ_CONTROLLER.brd*
G04 Film Name:    PASTE_TOP*
G04 File Format:  Gerber RS274X*
G04 File Origin:  Cadence Allegro 17.2-059*
G04 Origin Date:  Mon Sep 23 08:21:08 2019*
G04 *
G04 Layer:  VIA CLASS/PASTEMASK_TOP*
G04 Layer:  PIN/PASTEMASK_TOP*
G04 Layer:  PACKAGE GEOMETRY/PASTEMASK_TOP*
G04 *
G04 Offset:    (0.00 0.00)*
G04 Mirror:    No*
G04 Mode:      Positive*
G04 Rotation:  0*
G04 FullContactRelief:  No*
G04 UndefLineWidth:     0.00*
G04 ================== end FILE IDENTIFICATION RECORD ====================*
%FSLAX25Y25*MOIN*%
%IR0*IPPOS*OFA0.00000B0.00000*MIA0B0*SFA1.00000B1.00000*%
%ADD29R,.0315X.1063*%
%ADD28C,.01181*%
%ADD30C,.01575*%
%ADD13R,.02362X.02362*%
%ADD17R,.03937X.03937*%
%ADD26R,.00906X.01969*%
%AMMACRO15*
4,1,5,.0374,-.02165,
-.0374,-.02165,
-.0374,.02165,
.02559,.02165,
.0374,.00984,
.0374,-.02165,
0.0*
%
%ADD15MACRO15*%
%ADD27R,.01969X.00906*%
%ADD10R,.07874X.07874*%
%ADD22R,.06299X.12598*%
%AMMACRO25*
4,1,4,.06008,-.06008,
.06008,-.02528,
.02528,-.02528,
.02528,-.06008,
.06008,-.06008,
0.0*
4,1,4,.0174,-.06008,
.0174,-.02528,
-.0174,-.02528,
-.0174,-.06008,
.0174,-.06008,
0.0*
4,1,4,-.02528,-.06008,
-.02528,-.02528,
-.06008,-.02528,
-.06008,-.06008,
-.02528,-.06008,
0.0*
4,1,4,-.02528,-.0174,
-.02528,.0174,
-.06008,.0174,
-.06008,-.0174,
-.02528,-.0174,
0.0*
4,1,4,-.02528,.02528,
-.02528,.06008,
-.06008,.06008,
-.06008,.02528,
-.02528,.02528,
0.0*
4,1,4,.0174,.02528,
.0174,.06008,
-.0174,.06008,
-.0174,.02528,
.0174,.02528,
0.0*
4,1,4,.06008,.02528,
.06008,.06008,
.02528,.06008,
.02528,.02528,
.06008,.02528,
0.0*
4,1,4,.06008,-.0174,
.06008,.0174,
.02528,.0174,
.02528,-.0174,
.06008,-.0174,
0.0*
4,1,4,.0174,-.0174,
.0174,.0174,
-.0174,.0174,
-.0174,-.0174,
.0174,-.0174,
0.0*
%
%ADD25MACRO25*%
%ADD31R,.085X.025*%
%ADD12R,.04331X.02362*%
%ADD14R,.0748X.04331*%
%ADD21R,.04724X.05906*%
%ADD19R,.07874X.04331*%
%ADD18R,.01181X.06299*%
%ADD16R,.06299X.01181*%
%ADD11R,.04331X.07874*%
%ADD23R,.07087X.04528*%
%AMMACRO24*
4,1,5,-.02362,-.02953,
-.02362,.01969,
-.01378,.02953,
.02362,.02953,
.02362,-.02953,
-.02362,-.02953,
0.0*
%
%ADD24MACRO24*%
%ADD20R,.04528X.07087*%
%LPD*%
G75*
G54D10*
X3661Y-268937D03*
Y-154764D03*
X77087Y-268937D03*
Y-154764D03*
G54D20*
X114291Y-90000D03*
X125709D03*
X144291Y-25000D03*
X155709D03*
X166791D03*
X173209Y37500D03*
X161791D03*
X178209Y-25000D03*
G54D11*
X13307Y-156339D03*
X23543D03*
X58780D03*
G54D21*
X116063Y-57579D03*
Y-67421D03*
X123937Y-57579D03*
G54D12*
X34882Y-111240D03*
Y-107500D03*
Y-103760D03*
X45118Y-107500D03*
Y-111240D03*
Y-103760D03*
X85118Y-77500D03*
Y-73760D03*
Y-81240D03*
X74882D03*
Y-77500D03*
Y-73760D03*
G54D30*
X240157Y-85591D03*
X236220D03*
X232283D03*
X228346D03*
X224409D03*
X240157Y-81654D03*
X236220D03*
X232283D03*
X228346D03*
X224409D03*
X240157Y-77717D03*
X236220D03*
X232283D03*
X228346D03*
X224409D03*
X240157Y-73780D03*
X236220D03*
X232283D03*
X228346D03*
X224409D03*
X240157Y-69843D03*
X236220D03*
X232283D03*
X228346D03*
X224409D03*
X240157Y-65906D03*
X236220D03*
X232283D03*
X228346D03*
X224409D03*
X240157Y-61969D03*
X236220D03*
X232283D03*
X228346D03*
X224409D03*
X240157Y-58031D03*
X236220D03*
X232283D03*
X228346D03*
X224409D03*
X240157Y-54094D03*
X236220D03*
X232283D03*
X228346D03*
X224409D03*
X240157Y-50157D03*
X236220D03*
X232283D03*
X228346D03*
X224409D03*
X240157Y-46220D03*
X236220D03*
X232283D03*
X228346D03*
X224409D03*
X240157Y-42283D03*
X236220D03*
X232283D03*
X228346D03*
X224409D03*
X240157Y-38346D03*
X236220D03*
X232283D03*
X228346D03*
X224409D03*
X240157Y-34409D03*
X236220D03*
X232283D03*
X228346D03*
X224409D03*
X255906Y-85591D03*
X251969D03*
X248031D03*
X244094D03*
X255906Y-81654D03*
X251969D03*
X248031D03*
X244094D03*
X255906Y-77717D03*
X251969D03*
X248031D03*
X244094D03*
X255906Y-73780D03*
X251969D03*
X248031D03*
X244094D03*
X255906Y-69843D03*
X251969D03*
X248031D03*
X244094D03*
X255906Y-65906D03*
X251969D03*
X248031D03*
X244094D03*
X255906Y-61969D03*
X251969D03*
X248031D03*
X244094D03*
X255906Y-58031D03*
X251969D03*
X248031D03*
X244094D03*
X255906Y-54094D03*
X251969D03*
X248031D03*
X244094D03*
X255906Y-50157D03*
X251969D03*
X248031D03*
X244094D03*
X255906Y-46220D03*
X251969D03*
X248031D03*
X244094D03*
X255906Y-42283D03*
X251969D03*
X248031D03*
X244094D03*
X255906Y-38346D03*
X251969D03*
X248031D03*
X244094D03*
X255906Y-34409D03*
X251969D03*
X248031D03*
X244094D03*
X275591Y-85591D03*
X271654D03*
X267717D03*
X263780D03*
X259843D03*
X275591Y-81654D03*
X271654D03*
X267717D03*
X263780D03*
X259843D03*
X275591Y-77717D03*
X271654D03*
X267717D03*
X263780D03*
X259843D03*
X275591Y-73780D03*
X271654D03*
X267717D03*
X263780D03*
X259843D03*
X275591Y-69843D03*
X271654D03*
X267717D03*
X263780D03*
X259843D03*
X275591Y-65906D03*
X271654D03*
X267717D03*
X263780D03*
X259843D03*
X275591Y-61969D03*
X271654D03*
X267717D03*
X263780D03*
X259843D03*
X275591Y-58031D03*
X271654D03*
X267717D03*
X263780D03*
X259843D03*
X275591Y-54094D03*
X271654D03*
X267717D03*
X263780D03*
X259843D03*
X275591Y-50157D03*
X271654D03*
X267717D03*
X263780D03*
X259843D03*
X275591Y-46220D03*
X271654D03*
X267717D03*
X263780D03*
X259843D03*
X275591Y-42283D03*
X271654D03*
X267717D03*
X263780D03*
X259843D03*
X275591Y-38346D03*
X271654D03*
X267717D03*
X263780D03*
X259843D03*
X275591Y-34409D03*
X271654D03*
X267717D03*
X263780D03*
X259843D03*
G54D31*
X239400Y7500D03*
Y12500D03*
Y17500D03*
Y22500D03*
X260600Y12500D03*
Y7500D03*
Y22500D03*
Y17500D03*
G54D22*
X115000Y5157D03*
Y24843D03*
G54D13*
X32500Y-81969D03*
Y-78031D03*
X41969Y-120000D03*
X38031D03*
X46969Y-95000D03*
X43031D03*
X48031Y-72500D03*
X51969D03*
X53031Y-125000D03*
X56969D03*
X53031Y-115000D03*
X56969D03*
Y-120000D03*
X53031D03*
Y-110000D03*
X56969D03*
X67500Y-89469D03*
X53031Y-95000D03*
X56969D03*
X53031Y-100000D03*
X56969D03*
X53031Y-105000D03*
X56969D03*
X67500Y-85531D03*
Y-79469D03*
Y-75531D03*
X68031Y-55000D03*
X53031Y-62500D03*
X56969D03*
Y-45000D03*
X53031D03*
X65531Y-50000D03*
X69469D03*
Y-45000D03*
X65531D03*
X69469Y-40000D03*
X65531D03*
X53031Y-50000D03*
X56969D03*
Y-40000D03*
X53031D03*
X56969Y-20000D03*
X53031D03*
X56969Y-35000D03*
X53031D03*
X56969Y-30000D03*
X53031D03*
X65531Y-35000D03*
X69469D03*
X53031Y-25000D03*
X56969D03*
X53031Y-7500D03*
X56969D03*
Y-15000D03*
X53031D03*
X78031Y-67500D03*
X81969D03*
X71969Y-55000D03*
X77500Y-56969D03*
Y-53031D03*
X96969Y-132500D03*
X93031D03*
X103031Y-87500D03*
X92500Y-78031D03*
Y-81969D03*
X97500Y-78031D03*
Y-81969D03*
X102500Y-78031D03*
Y-81969D03*
X97500Y-64469D03*
Y-60531D03*
X92500D03*
Y-64469D03*
X87500D03*
Y-60531D03*
X111969Y-107500D03*
X108031D03*
X111969Y-102500D03*
X108031D03*
Y-97500D03*
X111969D03*
X106969Y-87500D03*
X120531Y-47500D03*
Y-42500D03*
Y-25000D03*
X122500Y-124469D03*
Y-120531D03*
Y-110531D03*
Y-114469D03*
X130000Y-64469D03*
Y-60531D03*
X124469Y-47500D03*
Y-42500D03*
Y-25000D03*
X138031Y10000D03*
Y0D03*
Y5000D03*
Y15000D03*
X145000Y-11969D03*
Y-8031D03*
X140000D03*
Y-11969D03*
X141969Y10000D03*
Y0D03*
Y5000D03*
Y15000D03*
X147500Y29469D03*
Y25531D03*
X152500D03*
Y29469D03*
X154469Y35000D03*
X150531D03*
X176969Y-162500D03*
X173031D03*
X221969Y-227500D03*
X218031D03*
X219469Y-205000D03*
X215531D03*
X237500Y-193031D03*
Y-196969D03*
X251969Y30000D03*
X248031D03*
X275000Y-119469D03*
Y-115531D03*
X280000Y-119469D03*
Y-115531D03*
X291969Y-97500D03*
X288031D03*
X305000Y-125531D03*
Y-129469D03*
X300000Y-125531D03*
Y-129469D03*
X295000Y-125531D03*
Y-129469D03*
X305000Y-118031D03*
Y-121969D03*
X300000Y-118031D03*
Y-121969D03*
X295000Y-118031D03*
Y-121969D03*
G54D23*
X127500Y-218209D03*
Y-206791D03*
X135000Y-39291D03*
Y-50709D03*
X195000Y-18209D03*
Y-6791D03*
Y2791D03*
Y14209D03*
Y23791D03*
Y35209D03*
G54D14*
X42618Y-78071D03*
X57382D03*
Y-86929D03*
X215118Y-190571D03*
X229882Y-199429D03*
Y-190571D03*
G54D24*
X123937Y-67421D03*
G54D15*
X42618Y-86929D03*
X215118Y-199429D03*
G54D16*
X65768Y-118327D03*
Y-116358D03*
Y-114390D03*
Y-112421D03*
Y-110453D03*
Y-108484D03*
Y-106516D03*
Y-104547D03*
Y-102579D03*
Y-100610D03*
Y-98642D03*
Y-96673D03*
X78268Y-45827D03*
Y-43858D03*
Y-41890D03*
Y-39921D03*
Y-37953D03*
Y-35984D03*
Y-34016D03*
Y-32047D03*
Y-30079D03*
Y-28110D03*
Y-26142D03*
Y-24173D03*
X99232Y-106516D03*
Y-108484D03*
Y-110453D03*
Y-112421D03*
Y-114390D03*
Y-116358D03*
Y-118327D03*
Y-96673D03*
Y-98642D03*
Y-100610D03*
Y-102579D03*
Y-104547D03*
X111732Y-37953D03*
Y-39921D03*
Y-41890D03*
Y-43858D03*
Y-45827D03*
Y-24173D03*
Y-26142D03*
Y-28110D03*
Y-30079D03*
Y-32047D03*
Y-34016D03*
Y-35984D03*
G54D25*
X157500Y7500D03*
G54D26*
X154547Y-1752D03*
X152579D03*
X150610D03*
Y16752D03*
X152579D03*
X154547D03*
X164390Y-1752D03*
X162421D03*
X160453D03*
X158484D03*
X156516D03*
Y16752D03*
X158484D03*
X160453D03*
X162421D03*
X164390D03*
G54D17*
X66850Y-15000D03*
X73150D03*
X115650Y-122500D03*
X109350D03*
X115650Y-115000D03*
X109350D03*
X151850Y-12500D03*
Y-17500D03*
X171850Y-157500D03*
X158150Y-12500D03*
X170650D03*
X164350D03*
Y-17500D03*
X170650D03*
X158150D03*
X165650Y25000D03*
X159350D03*
Y30000D03*
X165650D03*
X178150Y-157500D03*
X189350Y-55000D03*
X201850Y-227500D03*
X200650Y-80000D03*
X194350D03*
X195650Y-55000D03*
X202500Y-15650D03*
Y-9350D03*
Y5350D03*
Y11650D03*
Y25350D03*
Y31650D03*
X208150Y-227500D03*
X223350Y-100000D03*
X229650D03*
X252500Y-176850D03*
Y-183150D03*
X277500Y-103150D03*
Y-96850D03*
X289350Y-85000D03*
X293150Y-57000D03*
X286850D03*
X297500Y-96850D03*
Y-103150D03*
X295650Y-85000D03*
G54D18*
X85453Y-124232D03*
X83484D03*
X81516D03*
X79547D03*
X77579D03*
X75610D03*
X73642D03*
X71673D03*
Y-90768D03*
X73642D03*
X75610D03*
X77579D03*
X79547D03*
X81516D03*
X83484D03*
X85453D03*
X86142Y-51732D03*
X84173D03*
Y-18268D03*
X86142D03*
X93327Y-124232D03*
X91358D03*
X89390D03*
X87421D03*
Y-90768D03*
X89390D03*
X91358D03*
X93327D03*
X101890Y-51732D03*
X99921D03*
X97953D03*
X95984D03*
X94016D03*
X92047D03*
X90079D03*
X88110D03*
Y-18268D03*
X90079D03*
X92047D03*
X94016D03*
X95984D03*
X97953D03*
X99921D03*
X101890D03*
X105827Y-51732D03*
X103858D03*
Y-18268D03*
X105827D03*
G54D27*
X148248Y610D03*
Y2579D03*
Y4547D03*
Y6516D03*
Y8484D03*
Y10453D03*
Y12421D03*
Y14390D03*
X166752Y12421D03*
Y10453D03*
Y8484D03*
Y6516D03*
Y4547D03*
Y2579D03*
Y610D03*
Y14390D03*
G54D19*
X103661Y-245610D03*
Y-235768D03*
Y-225925D03*
Y-216083D03*
Y-206240D03*
Y-196398D03*
Y-186555D03*
Y-177008D03*
Y-170315D03*
G54D28*
X187303Y-177047D03*
Y-180197D03*
Y-161299D03*
Y-164449D03*
Y-167598D03*
Y-170748D03*
Y-173898D03*
Y-142402D03*
Y-145551D03*
Y-148701D03*
Y-151850D03*
Y-155000D03*
Y-158150D03*
Y-129803D03*
Y-132953D03*
Y-136102D03*
Y-139252D03*
X206201Y-177047D03*
Y-180197D03*
X203051Y-177047D03*
Y-180197D03*
X199902Y-177047D03*
Y-180197D03*
X196752Y-177047D03*
Y-180197D03*
X193602Y-177047D03*
Y-180197D03*
X190453Y-177047D03*
Y-180197D03*
X206201Y-161299D03*
Y-167598D03*
Y-170748D03*
Y-173898D03*
X203051Y-167598D03*
Y-170748D03*
Y-173898D03*
X199902Y-161299D03*
Y-164449D03*
Y-167598D03*
Y-170748D03*
Y-173898D03*
X196752Y-161299D03*
Y-164449D03*
Y-167598D03*
Y-170748D03*
Y-173898D03*
X193602Y-161299D03*
Y-164449D03*
Y-167598D03*
Y-170748D03*
Y-173898D03*
X190453Y-161299D03*
Y-164449D03*
Y-167598D03*
Y-170748D03*
Y-173898D03*
X206201Y-142402D03*
Y-148701D03*
Y-151850D03*
Y-155000D03*
Y-158150D03*
X203051Y-142402D03*
X199902D03*
Y-145551D03*
Y-148701D03*
Y-151850D03*
Y-155000D03*
Y-158150D03*
X196752Y-142402D03*
Y-145551D03*
Y-148701D03*
Y-151850D03*
Y-155000D03*
Y-158150D03*
X193602Y-142402D03*
Y-145551D03*
Y-148701D03*
Y-151850D03*
Y-155000D03*
Y-158150D03*
X190453Y-142402D03*
Y-145551D03*
Y-148701D03*
Y-151850D03*
Y-155000D03*
Y-158150D03*
X206201Y-129803D03*
Y-132953D03*
Y-136102D03*
Y-139252D03*
X203051Y-129803D03*
Y-132953D03*
Y-136102D03*
Y-139252D03*
X199902Y-129803D03*
Y-132953D03*
Y-136102D03*
Y-139252D03*
X196752Y-129803D03*
Y-132953D03*
Y-136102D03*
Y-139252D03*
X193602Y-129803D03*
Y-132953D03*
Y-136102D03*
Y-139252D03*
X190453Y-129803D03*
Y-132953D03*
Y-136102D03*
Y-139252D03*
X221949Y-177047D03*
Y-180197D03*
X218799Y-177047D03*
Y-180197D03*
X215650Y-177047D03*
Y-180197D03*
X212500Y-177047D03*
Y-180197D03*
X209350Y-177047D03*
Y-180197D03*
X221949Y-167598D03*
Y-170748D03*
Y-173898D03*
X218799Y-161299D03*
Y-167598D03*
Y-170748D03*
Y-173898D03*
X215650Y-161299D03*
Y-167598D03*
Y-170748D03*
Y-173898D03*
X212500Y-161299D03*
Y-167598D03*
Y-170748D03*
Y-173898D03*
X209350Y-161299D03*
Y-167598D03*
Y-170748D03*
Y-173898D03*
X221949Y-142402D03*
X218799D03*
Y-148701D03*
Y-151850D03*
Y-155000D03*
Y-158150D03*
X215650Y-142402D03*
Y-148701D03*
Y-151850D03*
Y-155000D03*
Y-158150D03*
X212500Y-142402D03*
Y-148701D03*
Y-151850D03*
Y-155000D03*
Y-158150D03*
X209350Y-142402D03*
Y-148701D03*
Y-151850D03*
Y-155000D03*
Y-158150D03*
X221949Y-129803D03*
Y-132953D03*
Y-136102D03*
Y-139252D03*
X218799Y-129803D03*
Y-132953D03*
Y-136102D03*
Y-139252D03*
X215650Y-129803D03*
Y-132953D03*
Y-136102D03*
Y-139252D03*
X212500Y-129803D03*
Y-132953D03*
Y-136102D03*
Y-139252D03*
X209350Y-129803D03*
Y-132953D03*
Y-136102D03*
Y-139252D03*
X237697Y-177047D03*
Y-180197D03*
X234547Y-177047D03*
Y-180197D03*
X231398Y-177047D03*
Y-180197D03*
X228248Y-177047D03*
Y-180197D03*
X225098Y-177047D03*
Y-180197D03*
X237697Y-161299D03*
Y-164449D03*
Y-167598D03*
Y-170748D03*
Y-173898D03*
X234547Y-161299D03*
Y-164449D03*
Y-167598D03*
Y-170748D03*
Y-173898D03*
X231398Y-161299D03*
Y-164449D03*
Y-167598D03*
Y-170748D03*
Y-173898D03*
X228248Y-161299D03*
Y-164449D03*
Y-167598D03*
Y-170748D03*
Y-173898D03*
X225098Y-161299D03*
Y-164449D03*
Y-167598D03*
Y-170748D03*
Y-173898D03*
X237697Y-142402D03*
Y-145551D03*
Y-148701D03*
Y-151850D03*
Y-155000D03*
Y-158150D03*
X234547Y-142402D03*
Y-145551D03*
Y-148701D03*
Y-151850D03*
Y-155000D03*
Y-158150D03*
X231398Y-142402D03*
Y-145551D03*
Y-148701D03*
Y-151850D03*
Y-155000D03*
Y-158150D03*
X228248Y-142402D03*
Y-145551D03*
Y-148701D03*
Y-151850D03*
Y-155000D03*
Y-158150D03*
X225098Y-142402D03*
Y-145551D03*
Y-148701D03*
Y-151850D03*
Y-155000D03*
Y-158150D03*
X237697Y-129803D03*
Y-132953D03*
Y-136102D03*
Y-139252D03*
X234547Y-129803D03*
Y-132953D03*
Y-136102D03*
Y-139252D03*
X231398Y-129803D03*
Y-132953D03*
Y-136102D03*
Y-139252D03*
X228248Y-129803D03*
Y-132953D03*
Y-136102D03*
Y-139252D03*
X225098Y-129803D03*
Y-132953D03*
Y-136102D03*
Y-139252D03*
G54D29*
X186831Y-7500D03*
X178169D03*
X186831Y8500D03*
X178169D03*
X186831Y23500D03*
X178169D03*
M02*
