G04 ================== begin FILE IDENTIFICATION RECORD ==================*
G04 Layout Name:  DAQ_CONTROLLER.brd*
G04 Film Name:    SILK_BOT*
G04 File Format:  Gerber RS274X*
G04 File Origin:  Cadence Allegro 17.2-S057*
G04 Origin Date:  Wed Aug 07 01:46:16 2019*
G04 *
G04 Layer:  MANUFACTURING/AUTOSILK_BOTTOM*
G04 *
G04 Offset:    (0.00 0.00)*
G04 Mirror:    No*
G04 Mode:      Positive*
G04 Rotation:  0*
G04 FullContactRelief:  No*
G04 UndefLineWidth:     5.00*
G04 ================== end FILE IDENTIFICATION RECORD ====================*
%FSLAX25Y25*MOIN*%
%IR0*IPPOS*OFA0.00000B0.00000*MIA0B0*SFA1.00000B1.00000*%
%ADD10C,.005*%
G75*
%LPD*%
G75*
G54D10*
G01X191833Y-164975D02*
X192083Y-164810D01*
X192375Y-164700D01*
X192708D01*
X193083Y-164865D01*
X193375Y-165140D01*
X193583Y-165470D01*
X193750Y-166020D01*
X193792Y-166515D01*
X193708Y-167010D01*
X193583Y-167340D01*
X193333Y-167670D01*
X193042Y-167890D01*
X192750Y-168000D01*
X192458D01*
X192167Y-167890D01*
X191917Y-167725D01*
X191708Y-167505D01*
G01X190967Y-167340D02*
X190717Y-167725D01*
X190383Y-167945D01*
X190008Y-168000D01*
X189675Y-167945D01*
X189342Y-167670D01*
X189133Y-167340D01*
X189092Y-167010D01*
X189175Y-166625D01*
X189467Y-166350D01*
X189758Y-166240D01*
X190133D01*
G01X189758D02*
X189508Y-166075D01*
X189300Y-165800D01*
X189217Y-165470D01*
X189300Y-165140D01*
X189508Y-164865D01*
X189883Y-164700D01*
X190258Y-164755D01*
X190633Y-164975D01*
G01X188142Y-165250D02*
X187892Y-164920D01*
X187600Y-164755D01*
X187267Y-164700D01*
X186850Y-164810D01*
X186558Y-165085D01*
X186475Y-165415D01*
X186517Y-165745D01*
X186683Y-166020D01*
X187517Y-166570D01*
X187892Y-166955D01*
X188142Y-167505D01*
X188225Y-168000D01*
X186475D01*
G01X187500Y-164469D02*
Y-160531D01*
G01X187833Y-148975D02*
X188083Y-148810D01*
X188375Y-148700D01*
X188708D01*
X189083Y-148865D01*
X189375Y-149140D01*
X189583Y-149470D01*
X189750Y-150020D01*
X189792Y-150515D01*
X189708Y-151010D01*
X189583Y-151340D01*
X189333Y-151670D01*
X189042Y-151890D01*
X188750Y-152000D01*
X188458D01*
X188167Y-151890D01*
X187917Y-151725D01*
X187708Y-151505D01*
G01X186967Y-151340D02*
X186717Y-151725D01*
X186383Y-151945D01*
X186008Y-152000D01*
X185675Y-151945D01*
X185342Y-151670D01*
X185133Y-151340D01*
X185092Y-151010D01*
X185175Y-150625D01*
X185467Y-150350D01*
X185758Y-150240D01*
X186133D01*
G01X185758D02*
X185508Y-150075D01*
X185300Y-149800D01*
X185217Y-149470D01*
X185300Y-149140D01*
X185508Y-148865D01*
X185883Y-148700D01*
X186258Y-148755D01*
X186633Y-148975D01*
G01X184267Y-151340D02*
X184017Y-151725D01*
X183683Y-151945D01*
X183308Y-152000D01*
X182975Y-151945D01*
X182642Y-151670D01*
X182433Y-151340D01*
X182392Y-151010D01*
X182475Y-150625D01*
X182767Y-150350D01*
X183058Y-150240D01*
X183433D01*
G01X183058D02*
X182808Y-150075D01*
X182600Y-149800D01*
X182517Y-149470D01*
X182600Y-149140D01*
X182808Y-148865D01*
X183183Y-148700D01*
X183558Y-148755D01*
X183933Y-148975D01*
G01X187500Y-156969D02*
Y-153031D01*
G01X186725Y-131733D02*
X186890Y-131983D01*
X187000Y-132275D01*
Y-132608D01*
X186835Y-132983D01*
X186560Y-133275D01*
X186230Y-133483D01*
X185680Y-133650D01*
X185185Y-133692D01*
X184690Y-133608D01*
X184360Y-133483D01*
X184030Y-133233D01*
X183810Y-132942D01*
X183700Y-132650D01*
Y-132358D01*
X183810Y-132067D01*
X183975Y-131817D01*
X184195Y-131608D01*
G01X183700Y-129950D02*
X187000D01*
X186340Y-130450D01*
G01X183700D02*
Y-129450D01*
G01X184360Y-128167D02*
X183975Y-127917D01*
X183755Y-127583D01*
X183700Y-127208D01*
X183755Y-126875D01*
X184030Y-126542D01*
X184360Y-126333D01*
X184690Y-126292D01*
X185075Y-126375D01*
X185350Y-126667D01*
X185460Y-126958D01*
Y-127333D01*
G01Y-126958D02*
X185625Y-126708D01*
X185900Y-126500D01*
X186230Y-126417D01*
X186560Y-126500D01*
X186835Y-126708D01*
X187000Y-127083D01*
X186945Y-127458D01*
X186725Y-127833D01*
G01X187819Y-129700D02*
X190181D01*
G01X198025Y-181833D02*
X198190Y-182083D01*
X198300Y-182375D01*
Y-182708D01*
X198135Y-183083D01*
X197860Y-183375D01*
X197530Y-183583D01*
X196980Y-183750D01*
X196485Y-183792D01*
X195990Y-183708D01*
X195660Y-183583D01*
X195330Y-183333D01*
X195110Y-183042D01*
X195000Y-182750D01*
Y-182458D01*
X195110Y-182167D01*
X195275Y-181917D01*
X195495Y-181708D01*
G01X197750Y-180842D02*
X198080Y-180592D01*
X198245Y-180300D01*
X198300Y-179967D01*
X198190Y-179550D01*
X197915Y-179258D01*
X197585Y-179175D01*
X197255Y-179217D01*
X196980Y-179383D01*
X196430Y-180217D01*
X196045Y-180592D01*
X195495Y-180842D01*
X195000Y-180925D01*
Y-179175D01*
G01X198300Y-177350D02*
X198190Y-177683D01*
X197915Y-177933D01*
X197585Y-178100D01*
X197145Y-178225D01*
X196650Y-178267D01*
X196155Y-178225D01*
X195715Y-178100D01*
X195385Y-177933D01*
X195110Y-177683D01*
X195000Y-177350D01*
X195110Y-177017D01*
X195385Y-176767D01*
X195715Y-176600D01*
X196155Y-176475D01*
X196650Y-176433D01*
X197145Y-176475D01*
X197585Y-176600D01*
X197915Y-176767D01*
X198190Y-177017D01*
X198300Y-177350D01*
G01X193681Y-180000D02*
X191319D01*
G01X200025Y-156833D02*
X200190Y-157083D01*
X200300Y-157375D01*
Y-157708D01*
X200135Y-158083D01*
X199860Y-158375D01*
X199530Y-158583D01*
X198980Y-158750D01*
X198485Y-158792D01*
X197990Y-158708D01*
X197660Y-158583D01*
X197330Y-158333D01*
X197110Y-158042D01*
X197000Y-157750D01*
Y-157458D01*
X197110Y-157167D01*
X197275Y-156917D01*
X197495Y-156708D01*
G01X197000Y-155050D02*
X200300D01*
X199640Y-155550D01*
G01X197000D02*
Y-154550D01*
G01X199750Y-153142D02*
X200080Y-152892D01*
X200245Y-152600D01*
X200300Y-152267D01*
X200190Y-151850D01*
X199915Y-151558D01*
X199585Y-151475D01*
X199255Y-151517D01*
X198980Y-151683D01*
X198430Y-152517D01*
X198045Y-152892D01*
X197495Y-153142D01*
X197000Y-153225D01*
Y-151475D01*
G01X201833Y-167975D02*
X202083Y-167810D01*
X202375Y-167700D01*
X202708D01*
X203083Y-167865D01*
X203375Y-168140D01*
X203583Y-168470D01*
X203750Y-169020D01*
X203792Y-169515D01*
X203708Y-170010D01*
X203583Y-170340D01*
X203333Y-170670D01*
X203042Y-170890D01*
X202750Y-171000D01*
X202458D01*
X202167Y-170890D01*
X201917Y-170725D01*
X201708Y-170505D01*
G01X200050Y-171000D02*
Y-167700D01*
X200550Y-168360D01*
G01Y-171000D02*
X199550D01*
G01X197433D02*
X197350Y-170285D01*
X197225Y-169680D01*
X197058Y-169130D01*
X196850Y-168525D01*
X196517Y-167700D01*
X198183D01*
G01X204500Y-164319D02*
Y-166681D01*
G01X200819Y-155000D02*
X203181D01*
G01X204833Y-139975D02*
X205083Y-139810D01*
X205375Y-139700D01*
X205708D01*
X206083Y-139865D01*
X206375Y-140140D01*
X206583Y-140470D01*
X206750Y-141020D01*
X206792Y-141515D01*
X206708Y-142010D01*
X206583Y-142340D01*
X206333Y-142670D01*
X206042Y-142890D01*
X205750Y-143000D01*
X205458D01*
X205167Y-142890D01*
X204917Y-142725D01*
X204708Y-142505D01*
G01X203050Y-143000D02*
Y-139700D01*
X203550Y-140360D01*
G01Y-143000D02*
X202550D01*
G01X201142Y-141625D02*
X200850Y-141240D01*
X200600Y-141020D01*
X200267Y-140910D01*
X199975Y-141020D01*
X199767Y-141240D01*
X199600Y-141570D01*
X199558Y-141955D01*
X199600Y-142285D01*
X199767Y-142615D01*
X200017Y-142890D01*
X200308Y-143000D01*
X200642Y-142890D01*
X200933Y-142560D01*
X201100Y-142065D01*
X201142Y-141515D01*
X201058Y-140800D01*
X200933Y-140415D01*
X200725Y-140030D01*
X200433Y-139755D01*
X200142Y-139700D01*
X199850Y-139810D01*
X199642Y-140085D01*
G01X204500Y-143319D02*
Y-145681D01*
G01X201725Y-134733D02*
X201890Y-134983D01*
X202000Y-135275D01*
Y-135608D01*
X201835Y-135983D01*
X201560Y-136275D01*
X201230Y-136483D01*
X200680Y-136650D01*
X200185Y-136692D01*
X199690Y-136608D01*
X199360Y-136483D01*
X199030Y-136233D01*
X198810Y-135942D01*
X198700Y-135650D01*
Y-135358D01*
X198810Y-135067D01*
X198975Y-134817D01*
X199195Y-134608D01*
G01X199360Y-133867D02*
X198975Y-133617D01*
X198755Y-133283D01*
X198700Y-132908D01*
X198755Y-132575D01*
X199030Y-132242D01*
X199360Y-132033D01*
X199690Y-131992D01*
X200075Y-132075D01*
X200350Y-132367D01*
X200460Y-132658D01*
Y-133033D01*
G01Y-132658D02*
X200625Y-132408D01*
X200900Y-132200D01*
X201230Y-132117D01*
X201560Y-132200D01*
X201835Y-132408D01*
X202000Y-132783D01*
X201945Y-133158D01*
X201725Y-133533D01*
G01X198700Y-129750D02*
X202000D01*
X199635Y-131292D01*
Y-129208D01*
G01X194031Y-133500D02*
X197969D01*
G01X213833Y-167975D02*
X214083Y-167810D01*
X214375Y-167700D01*
X214708D01*
X215083Y-167865D01*
X215375Y-168140D01*
X215583Y-168470D01*
X215750Y-169020D01*
X215792Y-169515D01*
X215708Y-170010D01*
X215583Y-170340D01*
X215333Y-170670D01*
X215042Y-170890D01*
X214750Y-171000D01*
X214458D01*
X214167Y-170890D01*
X213917Y-170725D01*
X213708Y-170505D01*
G01X212050Y-171000D02*
Y-167700D01*
X212550Y-168360D01*
G01Y-171000D02*
X211550D01*
G01X209350D02*
X209058Y-170945D01*
X208725Y-170780D01*
X208517Y-170505D01*
X208433Y-170120D01*
X208517Y-169735D01*
X208767Y-169405D01*
X209142Y-169240D01*
X209558D01*
X209808Y-169130D01*
X210017Y-168855D01*
X210100Y-168470D01*
X209975Y-168085D01*
X209683Y-167810D01*
X209350Y-167700D01*
X209017Y-167810D01*
X208725Y-168085D01*
X208600Y-168470D01*
X208683Y-168855D01*
X208892Y-169130D01*
X209142Y-169240D01*
X209558D01*
X209933Y-169405D01*
X210183Y-169735D01*
X210267Y-170120D01*
X210183Y-170505D01*
X209975Y-170780D01*
X209642Y-170945D01*
X209350Y-171000D01*
G01X212500Y-164319D02*
Y-166681D01*
G01X225833Y-167975D02*
X226083Y-167810D01*
X226375Y-167700D01*
X226708D01*
X227083Y-167865D01*
X227375Y-168140D01*
X227583Y-168470D01*
X227750Y-169020D01*
X227792Y-169515D01*
X227708Y-170010D01*
X227583Y-170340D01*
X227333Y-170670D01*
X227042Y-170890D01*
X226750Y-171000D01*
X226458D01*
X226167Y-170890D01*
X225917Y-170725D01*
X225708Y-170505D01*
G01X224050Y-171000D02*
Y-167700D01*
X224550Y-168360D01*
G01Y-171000D02*
X223550D01*
G01X222058Y-170615D02*
X221767Y-170890D01*
X221433Y-171000D01*
X221100Y-170890D01*
X220808Y-170560D01*
X220600Y-170065D01*
X220517Y-169570D01*
Y-168965D01*
X220600Y-168470D01*
X220808Y-168030D01*
X221058Y-167810D01*
X221350Y-167700D01*
X221683Y-167810D01*
X221933Y-168030D01*
X222100Y-168360D01*
X222183Y-168800D01*
X222100Y-169185D01*
X221892Y-169570D01*
X221642Y-169790D01*
X221350Y-169845D01*
X221017Y-169735D01*
X220767Y-169460D01*
X220517Y-168965D01*
G01X220500Y-164319D02*
Y-166681D01*
G01X213833Y-146975D02*
X214083Y-146810D01*
X214375Y-146700D01*
X214708D01*
X215083Y-146865D01*
X215375Y-147140D01*
X215583Y-147470D01*
X215750Y-148020D01*
X215792Y-148515D01*
X215708Y-149010D01*
X215583Y-149340D01*
X215333Y-149670D01*
X215042Y-149890D01*
X214750Y-150000D01*
X214458D01*
X214167Y-149890D01*
X213917Y-149725D01*
X213708Y-149505D01*
G01X212050Y-150000D02*
Y-146700D01*
X212550Y-147360D01*
G01Y-150000D02*
X211550D01*
G01X209350Y-146700D02*
X209683Y-146810D01*
X209933Y-147085D01*
X210100Y-147415D01*
X210225Y-147855D01*
X210267Y-148350D01*
X210225Y-148845D01*
X210100Y-149285D01*
X209933Y-149615D01*
X209683Y-149890D01*
X209350Y-150000D01*
X209017Y-149890D01*
X208767Y-149615D01*
X208600Y-149285D01*
X208475Y-148845D01*
X208433Y-148350D01*
X208475Y-147855D01*
X208600Y-147415D01*
X208767Y-147085D01*
X209017Y-146810D01*
X209350Y-146700D01*
G01X212500Y-143319D02*
Y-145681D01*
G01X222833Y-139975D02*
X223083Y-139810D01*
X223375Y-139700D01*
X223708D01*
X224083Y-139865D01*
X224375Y-140140D01*
X224583Y-140470D01*
X224750Y-141020D01*
X224792Y-141515D01*
X224708Y-142010D01*
X224583Y-142340D01*
X224333Y-142670D01*
X224042Y-142890D01*
X223750Y-143000D01*
X223458D01*
X223167Y-142890D01*
X222917Y-142725D01*
X222708Y-142505D01*
G01X221050Y-143000D02*
Y-139700D01*
X221550Y-140360D01*
G01Y-143000D02*
X220550D01*
G01X218350D02*
Y-139700D01*
X218850Y-140360D01*
G01Y-143000D02*
X217850D01*
G01X220500Y-143319D02*
Y-145681D01*
G01X221819Y-155000D02*
X224181D01*
G01X215000Y-70319D02*
Y-72681D01*
G01X221833Y-77975D02*
X222083Y-77810D01*
X222375Y-77700D01*
X222708D01*
X223083Y-77865D01*
X223375Y-78140D01*
X223583Y-78470D01*
X223750Y-79020D01*
X223792Y-79515D01*
X223708Y-80010D01*
X223583Y-80340D01*
X223333Y-80670D01*
X223042Y-80890D01*
X222750Y-81000D01*
X222458D01*
X222167Y-80890D01*
X221917Y-80725D01*
X221708Y-80505D01*
G01X219550Y-81000D02*
Y-77700D01*
X221092Y-80065D01*
X219008D01*
G01X218058Y-80615D02*
X217767Y-80890D01*
X217433Y-81000D01*
X217100Y-80890D01*
X216808Y-80560D01*
X216600Y-80065D01*
X216517Y-79570D01*
Y-78965D01*
X216600Y-78470D01*
X216808Y-78030D01*
X217058Y-77810D01*
X217350Y-77700D01*
X217683Y-77810D01*
X217933Y-78030D01*
X218100Y-78360D01*
X218183Y-78800D01*
X218100Y-79185D01*
X217892Y-79570D01*
X217642Y-79790D01*
X217350Y-79845D01*
X217017Y-79735D01*
X216767Y-79460D01*
X216517Y-78965D01*
G01X220000Y-82319D02*
Y-84681D01*
G01Y-55319D02*
Y-57681D01*
G01X216833Y-65975D02*
X217083Y-65810D01*
X217375Y-65700D01*
X217708D01*
X218083Y-65865D01*
X218375Y-66140D01*
X218583Y-66470D01*
X218750Y-67020D01*
X218792Y-67515D01*
X218708Y-68010D01*
X218583Y-68340D01*
X218333Y-68670D01*
X218042Y-68890D01*
X217750Y-69000D01*
X217458D01*
X217167Y-68890D01*
X216917Y-68725D01*
X216708Y-68505D01*
G01X214550Y-69000D02*
Y-65700D01*
X216092Y-68065D01*
X214008D01*
G01X212350Y-69000D02*
X212058Y-68945D01*
X211725Y-68780D01*
X211517Y-68505D01*
X211433Y-68120D01*
X211517Y-67735D01*
X211767Y-67405D01*
X212142Y-67240D01*
X212558D01*
X212808Y-67130D01*
X213017Y-66855D01*
X213100Y-66470D01*
X212975Y-66085D01*
X212683Y-65810D01*
X212350Y-65700D01*
X212017Y-65810D01*
X211725Y-66085D01*
X211600Y-66470D01*
X211683Y-66855D01*
X211892Y-67130D01*
X212142Y-67240D01*
X212558D01*
X212933Y-67405D01*
X213183Y-67735D01*
X213267Y-68120D01*
X213183Y-68505D01*
X212975Y-68780D01*
X212642Y-68945D01*
X212350Y-69000D01*
G01X220833Y-50975D02*
X221083Y-50810D01*
X221375Y-50700D01*
X221708D01*
X222083Y-50865D01*
X222375Y-51140D01*
X222583Y-51470D01*
X222750Y-52020D01*
X222792Y-52515D01*
X222708Y-53010D01*
X222583Y-53340D01*
X222333Y-53670D01*
X222042Y-53890D01*
X221750Y-54000D01*
X221458D01*
X221167Y-53890D01*
X220917Y-53725D01*
X220708Y-53505D01*
G01X218550Y-54000D02*
Y-50700D01*
X220092Y-53065D01*
X218008D01*
G01X216433Y-54000D02*
X216350Y-53285D01*
X216225Y-52680D01*
X216058Y-52130D01*
X215850Y-51525D01*
X215517Y-50700D01*
X217183D01*
G01X233833Y-176975D02*
X234083Y-176810D01*
X234375Y-176700D01*
X234708D01*
X235083Y-176865D01*
X235375Y-177140D01*
X235583Y-177470D01*
X235750Y-178020D01*
X235792Y-178515D01*
X235708Y-179010D01*
X235583Y-179340D01*
X235333Y-179670D01*
X235042Y-179890D01*
X234750Y-180000D01*
X234458D01*
X234167Y-179890D01*
X233917Y-179725D01*
X233708Y-179505D01*
G01X232842Y-177250D02*
X232592Y-176920D01*
X232300Y-176755D01*
X231967Y-176700D01*
X231550Y-176810D01*
X231258Y-177085D01*
X231175Y-177415D01*
X231217Y-177745D01*
X231383Y-178020D01*
X232217Y-178570D01*
X232592Y-178955D01*
X232842Y-179505D01*
X232925Y-180000D01*
X231175D01*
G01X229350D02*
Y-176700D01*
X229850Y-177360D01*
G01Y-180000D02*
X228850D01*
G01X225500Y-179681D02*
Y-177319D01*
G01X228025Y-154833D02*
X228190Y-155083D01*
X228300Y-155375D01*
Y-155708D01*
X228135Y-156083D01*
X227860Y-156375D01*
X227530Y-156583D01*
X226980Y-156750D01*
X226485Y-156792D01*
X225990Y-156708D01*
X225660Y-156583D01*
X225330Y-156333D01*
X225110Y-156042D01*
X225000Y-155750D01*
Y-155458D01*
X225110Y-155167D01*
X225275Y-154917D01*
X225495Y-154708D01*
G01X225000Y-153050D02*
X228300D01*
X227640Y-153550D01*
G01X225000D02*
Y-152550D01*
G01X225495Y-151267D02*
X225220Y-151017D01*
X225055Y-150725D01*
X225000Y-150350D01*
X225110Y-149975D01*
X225330Y-149683D01*
X225715Y-149475D01*
X226155Y-149433D01*
X226595Y-149517D01*
X226870Y-149725D01*
X227090Y-150017D01*
X227145Y-150308D01*
X227090Y-150600D01*
X226870Y-150975D01*
X228300Y-150850D01*
Y-149725D01*
G01X231025Y-137833D02*
X231190Y-138083D01*
X231300Y-138375D01*
Y-138708D01*
X231135Y-139083D01*
X230860Y-139375D01*
X230530Y-139583D01*
X229980Y-139750D01*
X229485Y-139792D01*
X228990Y-139708D01*
X228660Y-139583D01*
X228330Y-139333D01*
X228110Y-139042D01*
X228000Y-138750D01*
Y-138458D01*
X228110Y-138167D01*
X228275Y-137917D01*
X228495Y-137708D01*
G01X228000Y-136050D02*
X231300D01*
X230640Y-136550D01*
G01X228000D02*
Y-135550D01*
G01Y-132850D02*
X231300D01*
X228935Y-134392D01*
Y-132308D01*
G01X227681Y-137500D02*
X225319D01*
G01X239725Y-91733D02*
X239890Y-91983D01*
X240000Y-92275D01*
Y-92608D01*
X239835Y-92983D01*
X239560Y-93275D01*
X239230Y-93483D01*
X238680Y-93650D01*
X238185Y-93692D01*
X237690Y-93608D01*
X237360Y-93483D01*
X237030Y-93233D01*
X236810Y-92942D01*
X236700Y-92650D01*
Y-92358D01*
X236810Y-92067D01*
X236975Y-91817D01*
X237195Y-91608D01*
G01X237360Y-90867D02*
X236975Y-90617D01*
X236755Y-90283D01*
X236700Y-89908D01*
X236755Y-89575D01*
X237030Y-89242D01*
X237360Y-89033D01*
X237690Y-88992D01*
X238075Y-89075D01*
X238350Y-89367D01*
X238460Y-89658D01*
Y-90033D01*
G01Y-89658D02*
X238625Y-89408D01*
X238900Y-89200D01*
X239230Y-89117D01*
X239560Y-89200D01*
X239835Y-89408D01*
X240000Y-89783D01*
X239945Y-90158D01*
X239725Y-90533D01*
G01X237195Y-88167D02*
X236920Y-87917D01*
X236755Y-87625D01*
X236700Y-87250D01*
X236810Y-86875D01*
X237030Y-86583D01*
X237415Y-86375D01*
X237855Y-86333D01*
X238295Y-86417D01*
X238570Y-86625D01*
X238790Y-86917D01*
X238845Y-87208D01*
X238790Y-87500D01*
X238570Y-87875D01*
X240000Y-87750D01*
Y-86625D01*
G01X241833Y-73975D02*
X242083Y-73810D01*
X242375Y-73700D01*
X242708D01*
X243083Y-73865D01*
X243375Y-74140D01*
X243583Y-74470D01*
X243750Y-75020D01*
X243792Y-75515D01*
X243708Y-76010D01*
X243583Y-76340D01*
X243333Y-76670D01*
X243042Y-76890D01*
X242750Y-77000D01*
X242458D01*
X242167Y-76890D01*
X241917Y-76725D01*
X241708Y-76505D01*
G01X240842Y-74250D02*
X240592Y-73920D01*
X240300Y-73755D01*
X239967Y-73700D01*
X239550Y-73810D01*
X239258Y-74085D01*
X239175Y-74415D01*
X239217Y-74745D01*
X239383Y-75020D01*
X240217Y-75570D01*
X240592Y-75955D01*
X240842Y-76505D01*
X240925Y-77000D01*
X239175D01*
G01X237350D02*
X237058Y-76945D01*
X236725Y-76780D01*
X236517Y-76505D01*
X236433Y-76120D01*
X236517Y-75735D01*
X236767Y-75405D01*
X237142Y-75240D01*
X237558D01*
X237808Y-75130D01*
X238017Y-74855D01*
X238100Y-74470D01*
X237975Y-74085D01*
X237683Y-73810D01*
X237350Y-73700D01*
X237017Y-73810D01*
X236725Y-74085D01*
X236600Y-74470D01*
X236683Y-74855D01*
X236892Y-75130D01*
X237142Y-75240D01*
X237558D01*
X237933Y-75405D01*
X238183Y-75735D01*
X238267Y-76120D01*
X238183Y-76505D01*
X237975Y-76780D01*
X237642Y-76945D01*
X237350Y-77000D01*
G01X240000Y-77531D02*
Y-81469D01*
G01X230833Y-61975D02*
X231083Y-61810D01*
X231375Y-61700D01*
X231708D01*
X232083Y-61865D01*
X232375Y-62140D01*
X232583Y-62470D01*
X232750Y-63020D01*
X232792Y-63515D01*
X232708Y-64010D01*
X232583Y-64340D01*
X232333Y-64670D01*
X232042Y-64890D01*
X231750Y-65000D01*
X231458D01*
X231167Y-64890D01*
X230917Y-64725D01*
X230708Y-64505D01*
G01X229842Y-62250D02*
X229592Y-61920D01*
X229300Y-61755D01*
X228967Y-61700D01*
X228550Y-61810D01*
X228258Y-62085D01*
X228175Y-62415D01*
X228217Y-62745D01*
X228383Y-63020D01*
X229217Y-63570D01*
X229592Y-63955D01*
X229842Y-64505D01*
X229925Y-65000D01*
X228175D01*
G01X227267Y-64505D02*
X227017Y-64780D01*
X226725Y-64945D01*
X226350Y-65000D01*
X225975Y-64890D01*
X225683Y-64670D01*
X225475Y-64285D01*
X225433Y-63845D01*
X225517Y-63405D01*
X225725Y-63130D01*
X226017Y-62910D01*
X226308Y-62855D01*
X226600Y-62910D01*
X226975Y-63130D01*
X226850Y-61700D01*
X225725D01*
G01X230000Y-65531D02*
Y-69469D01*
G01X238620Y-55597D02*
X238870Y-55432D01*
X239162Y-55322D01*
X239495D01*
X239870Y-55487D01*
X240162Y-55762D01*
X240370Y-56092D01*
X240537Y-56642D01*
X240579Y-57137D01*
X240495Y-57632D01*
X240370Y-57962D01*
X240120Y-58292D01*
X239829Y-58512D01*
X239537Y-58622D01*
X239245D01*
X238954Y-58512D01*
X238704Y-58347D01*
X238495Y-58127D01*
G01X237629Y-55872D02*
X237379Y-55542D01*
X237087Y-55377D01*
X236754Y-55322D01*
X236337Y-55432D01*
X236045Y-55707D01*
X235962Y-56037D01*
X236004Y-56367D01*
X236170Y-56642D01*
X237004Y-57192D01*
X237379Y-57577D01*
X237629Y-58127D01*
X237712Y-58622D01*
X235962D01*
G01X234220D02*
X234137Y-57907D01*
X234012Y-57302D01*
X233845Y-56752D01*
X233637Y-56147D01*
X233304Y-55322D01*
X234970D01*
G01X240000Y-58819D02*
Y-61181D01*
G01X232951Y-39219D02*
X233201Y-39054D01*
X233493Y-38944D01*
X233826D01*
X234201Y-39109D01*
X234493Y-39384D01*
X234701Y-39714D01*
X234868Y-40264D01*
X234910Y-40759D01*
X234826Y-41254D01*
X234701Y-41584D01*
X234451Y-41914D01*
X234160Y-42134D01*
X233868Y-42244D01*
X233576D01*
X233285Y-42134D01*
X233035Y-41969D01*
X232826Y-41749D01*
G01X231960Y-39494D02*
X231710Y-39164D01*
X231418Y-38999D01*
X231085Y-38944D01*
X230668Y-39054D01*
X230376Y-39329D01*
X230293Y-39659D01*
X230335Y-39989D01*
X230501Y-40264D01*
X231335Y-40814D01*
X231710Y-41199D01*
X231960Y-41749D01*
X232043Y-42244D01*
X230293D01*
G01X229260Y-40869D02*
X228968Y-40484D01*
X228718Y-40264D01*
X228385Y-40154D01*
X228093Y-40264D01*
X227885Y-40484D01*
X227718Y-40814D01*
X227676Y-41199D01*
X227718Y-41529D01*
X227885Y-41859D01*
X228135Y-42134D01*
X228426Y-42244D01*
X228760Y-42134D01*
X229051Y-41804D01*
X229218Y-41309D01*
X229260Y-40759D01*
X229176Y-40044D01*
X229051Y-39659D01*
X228843Y-39274D01*
X228551Y-38999D01*
X228260Y-38944D01*
X227968Y-39054D01*
X227760Y-39329D01*
G01X230000Y-43031D02*
Y-46969D01*
G01X241319Y-90000D02*
X243681D01*
G01X258725Y-91733D02*
X258890Y-91983D01*
X259000Y-92275D01*
Y-92608D01*
X258835Y-92983D01*
X258560Y-93275D01*
X258230Y-93483D01*
X257680Y-93650D01*
X257185Y-93692D01*
X256690Y-93608D01*
X256360Y-93483D01*
X256030Y-93233D01*
X255810Y-92942D01*
X255700Y-92650D01*
Y-92358D01*
X255810Y-92067D01*
X255975Y-91817D01*
X256195Y-91608D01*
G01X256360Y-90867D02*
X255975Y-90617D01*
X255755Y-90283D01*
X255700Y-89908D01*
X255755Y-89575D01*
X256030Y-89242D01*
X256360Y-89033D01*
X256690Y-88992D01*
X257075Y-89075D01*
X257350Y-89367D01*
X257460Y-89658D01*
Y-90033D01*
G01Y-89658D02*
X257625Y-89408D01*
X257900Y-89200D01*
X258230Y-89117D01*
X258560Y-89200D01*
X258835Y-89408D01*
X259000Y-89783D01*
X258945Y-90158D01*
X258725Y-90533D01*
G01X257075Y-88042D02*
X257460Y-87750D01*
X257680Y-87500D01*
X257790Y-87167D01*
X257680Y-86875D01*
X257460Y-86667D01*
X257130Y-86500D01*
X256745Y-86458D01*
X256415Y-86500D01*
X256085Y-86667D01*
X255810Y-86917D01*
X255700Y-87208D01*
X255810Y-87542D01*
X256140Y-87833D01*
X256635Y-88000D01*
X257185Y-88042D01*
X257900Y-87958D01*
X258285Y-87833D01*
X258670Y-87625D01*
X258945Y-87333D01*
X259000Y-87042D01*
X258890Y-86750D01*
X258615Y-86542D01*
G01X252319Y-90000D02*
X254681D01*
G01X255451Y-73719D02*
X255701Y-73554D01*
X255993Y-73444D01*
X256326D01*
X256701Y-73609D01*
X256993Y-73884D01*
X257201Y-74214D01*
X257368Y-74764D01*
X257410Y-75259D01*
X257326Y-75754D01*
X257201Y-76084D01*
X256951Y-76414D01*
X256660Y-76634D01*
X256368Y-76744D01*
X256076D01*
X255785Y-76634D01*
X255535Y-76469D01*
X255326Y-76249D01*
G01X254585Y-76084D02*
X254335Y-76469D01*
X254001Y-76689D01*
X253626Y-76744D01*
X253293Y-76689D01*
X252960Y-76414D01*
X252751Y-76084D01*
X252710Y-75754D01*
X252793Y-75369D01*
X253085Y-75094D01*
X253376Y-74984D01*
X253751D01*
G01X253376D02*
X253126Y-74819D01*
X252918Y-74544D01*
X252835Y-74214D01*
X252918Y-73884D01*
X253126Y-73609D01*
X253501Y-73444D01*
X253876Y-73499D01*
X254251Y-73719D01*
G01X250968Y-76744D02*
Y-73444D01*
X251468Y-74104D01*
G01Y-76744D02*
X250468D01*
G01X252500Y-77531D02*
Y-81469D01*
G01X251833Y-61975D02*
X252083Y-61810D01*
X252375Y-61700D01*
X252708D01*
X253083Y-61865D01*
X253375Y-62140D01*
X253583Y-62470D01*
X253750Y-63020D01*
X253792Y-63515D01*
X253708Y-64010D01*
X253583Y-64340D01*
X253333Y-64670D01*
X253042Y-64890D01*
X252750Y-65000D01*
X252458D01*
X252167Y-64890D01*
X251917Y-64725D01*
X251708Y-64505D01*
G01X250842Y-62250D02*
X250592Y-61920D01*
X250300Y-61755D01*
X249967Y-61700D01*
X249550Y-61810D01*
X249258Y-62085D01*
X249175Y-62415D01*
X249217Y-62745D01*
X249383Y-63020D01*
X250217Y-63570D01*
X250592Y-63955D01*
X250842Y-64505D01*
X250925Y-65000D01*
X249175D01*
G01X246850D02*
Y-61700D01*
X248392Y-64065D01*
X246308D01*
G01X250000Y-66319D02*
Y-68681D01*
G01X261833Y-54975D02*
X262083Y-54810D01*
X262375Y-54700D01*
X262708D01*
X263083Y-54865D01*
X263375Y-55140D01*
X263583Y-55470D01*
X263750Y-56020D01*
X263792Y-56515D01*
X263708Y-57010D01*
X263583Y-57340D01*
X263333Y-57670D01*
X263042Y-57890D01*
X262750Y-58000D01*
X262458D01*
X262167Y-57890D01*
X261917Y-57725D01*
X261708Y-57505D01*
G01X260967Y-57340D02*
X260717Y-57725D01*
X260383Y-57945D01*
X260008Y-58000D01*
X259675Y-57945D01*
X259342Y-57670D01*
X259133Y-57340D01*
X259092Y-57010D01*
X259175Y-56625D01*
X259467Y-56350D01*
X259758Y-56240D01*
X260133D01*
G01X259758D02*
X259508Y-56075D01*
X259300Y-55800D01*
X259217Y-55470D01*
X259300Y-55140D01*
X259508Y-54865D01*
X259883Y-54700D01*
X260258Y-54755D01*
X260633Y-54975D01*
G01X257350Y-54700D02*
X257683Y-54810D01*
X257933Y-55085D01*
X258100Y-55415D01*
X258225Y-55855D01*
X258267Y-56350D01*
X258225Y-56845D01*
X258100Y-57285D01*
X257933Y-57615D01*
X257683Y-57890D01*
X257350Y-58000D01*
X257017Y-57890D01*
X256767Y-57615D01*
X256600Y-57285D01*
X256475Y-56845D01*
X256433Y-56350D01*
X256475Y-55855D01*
X256600Y-55415D01*
X256767Y-55085D01*
X257017Y-54810D01*
X257350Y-54700D01*
G01X247025Y-48833D02*
X247190Y-49083D01*
X247300Y-49375D01*
Y-49708D01*
X247135Y-50083D01*
X246860Y-50375D01*
X246530Y-50583D01*
X245980Y-50750D01*
X245485Y-50792D01*
X244990Y-50708D01*
X244660Y-50583D01*
X244330Y-50333D01*
X244110Y-50042D01*
X244000Y-49750D01*
Y-49458D01*
X244110Y-49167D01*
X244275Y-48917D01*
X244495Y-48708D01*
G01X246750Y-47842D02*
X247080Y-47592D01*
X247245Y-47300D01*
X247300Y-46967D01*
X247190Y-46550D01*
X246915Y-46258D01*
X246585Y-46175D01*
X246255Y-46217D01*
X245980Y-46383D01*
X245430Y-47217D01*
X245045Y-47592D01*
X244495Y-47842D01*
X244000Y-47925D01*
Y-46175D01*
G01X244660Y-45267D02*
X244275Y-45017D01*
X244055Y-44683D01*
X244000Y-44308D01*
X244055Y-43975D01*
X244330Y-43642D01*
X244660Y-43433D01*
X244990Y-43392D01*
X245375Y-43475D01*
X245650Y-43767D01*
X245760Y-44058D01*
Y-44433D01*
G01Y-44058D02*
X245925Y-43808D01*
X246200Y-43600D01*
X246530Y-43517D01*
X246860Y-43600D01*
X247135Y-43808D01*
X247300Y-44183D01*
X247245Y-44558D01*
X247025Y-44933D01*
G01X246319Y-55000D02*
X248681D01*
G01X256725Y-49733D02*
X256890Y-49983D01*
X257000Y-50275D01*
Y-50608D01*
X256835Y-50983D01*
X256560Y-51275D01*
X256230Y-51483D01*
X255680Y-51650D01*
X255185Y-51692D01*
X254690Y-51608D01*
X254360Y-51483D01*
X254030Y-51233D01*
X253810Y-50942D01*
X253700Y-50650D01*
Y-50358D01*
X253810Y-50067D01*
X253975Y-49817D01*
X254195Y-49608D01*
G01X256450Y-48742D02*
X256780Y-48492D01*
X256945Y-48200D01*
X257000Y-47867D01*
X256890Y-47450D01*
X256615Y-47158D01*
X256285Y-47075D01*
X255955Y-47117D01*
X255680Y-47283D01*
X255130Y-48117D01*
X254745Y-48492D01*
X254195Y-48742D01*
X253700Y-48825D01*
Y-47075D01*
G01X254085Y-45958D02*
X253810Y-45667D01*
X253700Y-45333D01*
X253810Y-45000D01*
X254140Y-44708D01*
X254635Y-44500D01*
X255130Y-44417D01*
X255735D01*
X256230Y-44500D01*
X256670Y-44708D01*
X256890Y-44958D01*
X257000Y-45250D01*
X256890Y-45583D01*
X256670Y-45833D01*
X256340Y-46000D01*
X255900Y-46083D01*
X255515Y-46000D01*
X255130Y-45792D01*
X254910Y-45542D01*
X254855Y-45250D01*
X254965Y-44917D01*
X255240Y-44667D01*
X255735Y-44417D01*
G01X251319Y-55000D02*
X253681D01*
G01X260000Y-58819D02*
Y-61181D01*
G01X273833Y-61975D02*
X274083Y-61810D01*
X274375Y-61700D01*
X274708D01*
X275083Y-61865D01*
X275375Y-62140D01*
X275583Y-62470D01*
X275750Y-63020D01*
X275792Y-63515D01*
X275708Y-64010D01*
X275583Y-64340D01*
X275333Y-64670D01*
X275042Y-64890D01*
X274750Y-65000D01*
X274458D01*
X274167Y-64890D01*
X273917Y-64725D01*
X273708Y-64505D01*
G01X271550Y-65000D02*
Y-61700D01*
X273092Y-64065D01*
X271008D01*
G01X269350Y-65000D02*
Y-61700D01*
X269850Y-62360D01*
G01Y-65000D02*
X268850D01*
G01X272500Y-58319D02*
Y-60681D01*
G01X282500Y-72681D02*
Y-70319D01*
G01X280733Y-78275D02*
X280983Y-78110D01*
X281275Y-78000D01*
X281608D01*
X281983Y-78165D01*
X282275Y-78440D01*
X282483Y-78770D01*
X282650Y-79320D01*
X282692Y-79815D01*
X282608Y-80310D01*
X282483Y-80640D01*
X282233Y-80970D01*
X281942Y-81190D01*
X281650Y-81300D01*
X281358D01*
X281067Y-81190D01*
X280817Y-81025D01*
X280608Y-80805D01*
G01X278450Y-81300D02*
Y-78000D01*
X279992Y-80365D01*
X277908D01*
G01X277167Y-80640D02*
X276917Y-81025D01*
X276583Y-81245D01*
X276208Y-81300D01*
X275875Y-81245D01*
X275542Y-80970D01*
X275333Y-80640D01*
X275292Y-80310D01*
X275375Y-79925D01*
X275667Y-79650D01*
X275958Y-79540D01*
X276333D01*
G01X275958D02*
X275708Y-79375D01*
X275500Y-79100D01*
X275417Y-78770D01*
X275500Y-78440D01*
X275708Y-78165D01*
X276083Y-78000D01*
X276458Y-78055D01*
X276833Y-78275D01*
G01X279000Y-84681D02*
Y-82319D01*
G01X283833Y-65975D02*
X284083Y-65810D01*
X284375Y-65700D01*
X284708D01*
X285083Y-65865D01*
X285375Y-66140D01*
X285583Y-66470D01*
X285750Y-67020D01*
X285792Y-67515D01*
X285708Y-68010D01*
X285583Y-68340D01*
X285333Y-68670D01*
X285042Y-68890D01*
X284750Y-69000D01*
X284458D01*
X284167Y-68890D01*
X283917Y-68725D01*
X283708Y-68505D01*
G01X281550Y-69000D02*
Y-65700D01*
X283092Y-68065D01*
X281008D01*
G01X280142Y-66250D02*
X279892Y-65920D01*
X279600Y-65755D01*
X279267Y-65700D01*
X278850Y-65810D01*
X278558Y-66085D01*
X278475Y-66415D01*
X278517Y-66745D01*
X278683Y-67020D01*
X279517Y-67570D01*
X279892Y-67955D01*
X280142Y-68505D01*
X280225Y-69000D01*
X278475D01*
G01X330583Y33660D02*
X330375Y33330D01*
X330125Y33110D01*
X329833Y33000D01*
X329500Y33110D01*
X329250Y33330D01*
X329000Y33660D01*
X328917Y34100D01*
Y36300D01*
G01X327050Y33000D02*
Y36300D01*
X327550Y35640D01*
G01Y33000D02*
X326550D01*
M02*
