G04 ================== begin FILE IDENTIFICATION RECORD ==================*
G04 Layout Name:  DAQ_CONTROLLER.brd*
G04 Film Name:    SM_TOP*
G04 File Format:  Gerber RS274X*
G04 File Origin:  Cadence Allegro 17.2-S057*
G04 Origin Date:  Wed Aug 07 01:46:16 2019*
G04 *
G04 Layer:  VIA CLASS/SOLDERMASK_TOP*
G04 Layer:  PIN/SOLDERMASK_TOP*
G04 Layer:  PACKAGE GEOMETRY/SOLDERMASK_BOTTOM*
G04 Layer:  BOARD GEOMETRY/SOLDERMASK_TOP*
G04 *
G04 Offset:    (0.00 0.00)*
G04 Mirror:    No*
G04 Mode:      Positive*
G04 Rotation:  0*
G04 FullContactRelief:  No*
G04 UndefLineWidth:     0.00*
G04 ================== end FILE IDENTIFICATION RECORD ====================*
%FSLAX25Y25*MOIN*%
%IR0*IPPOS*OFA0.00000B0.00000*MIA0B0*SFA1.00000B1.00000*%
%ADD31C,.041*%
%AMMACRO32*
4,1,5,-.02661,-.03252,
-.02661,.02091,
-.015,.03252,
.02661,.03252,
.02661,-.03252,
-.02661,-.03252,
0.0*
%
%ADD32MACRO32*%
%ADD38C,.01142*%
%ADD36C,.046*%
%ADD45R,.13201X.03358*%
%ADD16C,.06114*%
%ADD39R,.03752X.11232*%
%ADD37R,.046X.046*%
%ADD12C,.06902*%
%ADD42C,.06508*%
%ADD29R,.06898X.13201*%
%ADD25C,.06693*%
%ADD44R,.17138X.03358*%
%ADD40C,.01969*%
%ADD43R,.06508X.06508*%
%ADD23R,.04528X.04528*%
%ADD19R,.02965X.02965*%
%ADD14R,.08476X.08476*%
%ADD41R,.091X.031*%
%ADD11C,.13201*%
%AMMACRO21*
4,1,5,.02677,.0248,
.04055,.01102,
.04055,-.0248,
-.04055,-.0248,
-.04055,.0248,
.02677,.0248,
0.0*
%
%ADD21MACRO21*%
%ADD13C,.1437*%
%ADD10C,.14173*%
%ADD34R,.01508X.02571*%
%ADD35R,.02571X.01508*%
%ADD17C,.10839*%
%ADD20R,.08071X.04921*%
%ADD33R,.12807X.12807*%
%ADD28R,.05327X.06508*%
%ADD30R,.07677X.05118*%
%ADD27R,.05118X.07677*%
%ADD18R,.04929X.02961*%
%ADD26R,.08476X.04933*%
%ADD15R,.04933X.08476*%
%ADD24R,.01781X.06899*%
%ADD22R,.06899X.01781*%
G75*
%LPD*%
G75*
G36*
G01X338346Y-164134D02*
X358031D01*
X360000Y-162165D01*
Y-15709D01*
X358031Y-13740D01*
X338346D01*
Y-164134D01*
G37*
G36*
G01Y-6260D02*
X358031D01*
X360000Y-4291D01*
Y35866D01*
X358031Y37835D01*
X338346D01*
Y-6260D01*
G37*
G54D10*
X-9803Y-302165D03*
Y27835D03*
G54D20*
X42618Y-78071D03*
X57382D03*
Y-86929D03*
X215118Y-190571D03*
X229882Y-199429D03*
Y-190571D03*
G54D11*
X5000Y-133701D03*
Y-86299D03*
G54D30*
X127500Y-218209D03*
Y-206791D03*
X135000Y-39291D03*
Y-50709D03*
X195000Y-18209D03*
Y-6791D03*
Y2791D03*
Y14209D03*
Y23791D03*
Y35209D03*
G54D21*
X42618Y-86929D03*
X215118Y-199429D03*
G54D12*
X-8307Y-59862D03*
X-14291Y-49862D03*
X-8307Y-20059D03*
X-14291Y-10059D03*
X29961Y-47441D03*
Y-37441D03*
Y-27441D03*
Y-17441D03*
X39961Y-52441D03*
Y-42441D03*
Y-32441D03*
Y-22441D03*
G54D22*
X65768Y-118327D03*
Y-116358D03*
Y-114390D03*
Y-112421D03*
Y-110453D03*
Y-108484D03*
Y-106516D03*
Y-104547D03*
Y-102579D03*
Y-100610D03*
Y-98642D03*
Y-96673D03*
X78268Y-45827D03*
Y-43858D03*
Y-41890D03*
Y-39921D03*
Y-37953D03*
Y-35984D03*
Y-34016D03*
Y-32047D03*
Y-30079D03*
Y-28110D03*
Y-26142D03*
Y-24173D03*
X99232Y-106516D03*
Y-108484D03*
Y-110453D03*
Y-112421D03*
Y-114390D03*
Y-116358D03*
Y-118327D03*
Y-96673D03*
Y-98642D03*
Y-100610D03*
Y-102579D03*
Y-104547D03*
X111732Y-37953D03*
Y-39921D03*
Y-41890D03*
Y-43858D03*
Y-45827D03*
Y-24173D03*
Y-26142D03*
Y-28110D03*
Y-30079D03*
Y-32047D03*
Y-34016D03*
Y-35984D03*
G54D13*
X5000Y-57461D03*
Y-12461D03*
G54D40*
X240157Y-85591D03*
X236220D03*
X232283D03*
X228346D03*
X224409D03*
X240157Y-81654D03*
X236220D03*
X232283D03*
X228346D03*
X224409D03*
X240157Y-77717D03*
X236220D03*
X232283D03*
X228346D03*
X224409D03*
X240157Y-73780D03*
X236220D03*
X232283D03*
X228346D03*
X224409D03*
X240157Y-69843D03*
X236220D03*
X232283D03*
X228346D03*
X224409D03*
X240157Y-65906D03*
X236220D03*
X232283D03*
X228346D03*
X224409D03*
X240157Y-61969D03*
X236220D03*
X232283D03*
X228346D03*
X224409D03*
X240157Y-58031D03*
X236220D03*
X232283D03*
X228346D03*
X224409D03*
X240157Y-54094D03*
X236220D03*
X232283D03*
X228346D03*
X224409D03*
X240157Y-50157D03*
X236220D03*
X232283D03*
X228346D03*
X224409D03*
X240157Y-46220D03*
X236220D03*
X232283D03*
X228346D03*
X224409D03*
X240157Y-42283D03*
X236220D03*
X232283D03*
X228346D03*
X224409D03*
X240157Y-38346D03*
X236220D03*
X232283D03*
X228346D03*
X224409D03*
X240157Y-34409D03*
X236220D03*
X232283D03*
X228346D03*
X224409D03*
X255906Y-85591D03*
X251969D03*
X248031D03*
X244094D03*
X255906Y-81654D03*
X251969D03*
X248031D03*
X244094D03*
X255906Y-77717D03*
X251969D03*
X248031D03*
X244094D03*
X255906Y-73780D03*
X251969D03*
X248031D03*
X244094D03*
X255906Y-69843D03*
X251969D03*
X248031D03*
X244094D03*
X255906Y-65906D03*
X251969D03*
X248031D03*
X244094D03*
X255906Y-61969D03*
X251969D03*
X248031D03*
X244094D03*
X255906Y-58031D03*
X251969D03*
X248031D03*
X244094D03*
X255906Y-54094D03*
X251969D03*
X248031D03*
X244094D03*
X255906Y-50157D03*
X251969D03*
X248031D03*
X244094D03*
X255906Y-46220D03*
X251969D03*
X248031D03*
X244094D03*
X255906Y-42283D03*
X251969D03*
X248031D03*
X244094D03*
X255906Y-38346D03*
X251969D03*
X248031D03*
X244094D03*
X255906Y-34409D03*
X251969D03*
X248031D03*
X244094D03*
X275591Y-85591D03*
X271654D03*
X267717D03*
X263780D03*
X259843D03*
X275591Y-81654D03*
X271654D03*
X267717D03*
X263780D03*
X259843D03*
X275591Y-77717D03*
X271654D03*
X267717D03*
X263780D03*
X259843D03*
X275591Y-73780D03*
X271654D03*
X267717D03*
X263780D03*
X259843D03*
X275591Y-69843D03*
X271654D03*
X267717D03*
X263780D03*
X259843D03*
X275591Y-65906D03*
X271654D03*
X267717D03*
X263780D03*
X259843D03*
X275591Y-61969D03*
X271654D03*
X267717D03*
X263780D03*
X259843D03*
X275591Y-58031D03*
X271654D03*
X267717D03*
X263780D03*
X259843D03*
X275591Y-54094D03*
X271654D03*
X267717D03*
X263780D03*
X259843D03*
X275591Y-50157D03*
X271654D03*
X267717D03*
X263780D03*
X259843D03*
X275591Y-46220D03*
X271654D03*
X267717D03*
X263780D03*
X259843D03*
X275591Y-42283D03*
X271654D03*
X267717D03*
X263780D03*
X259843D03*
X275591Y-38346D03*
X271654D03*
X267717D03*
X263780D03*
X259843D03*
X275591Y-34409D03*
X271654D03*
X267717D03*
X263780D03*
X259843D03*
G54D31*
X127350Y-150000D03*
Y-145000D03*
X204240Y-57480D03*
X192500Y-2277D03*
Y18723D03*
Y40000D03*
X217500Y20000D03*
G54D41*
X239400Y7500D03*
Y12500D03*
Y17500D03*
Y22500D03*
X260600Y12500D03*
Y7500D03*
Y22500D03*
Y17500D03*
G54D14*
X3661Y-268937D03*
Y-154764D03*
X77087Y-268937D03*
Y-154764D03*
G54D23*
X66850Y-15000D03*
X73150D03*
X115650Y-122500D03*
X109350D03*
X115650Y-115000D03*
X109350D03*
X151850Y-12500D03*
Y-17500D03*
X171850Y-157500D03*
X158150Y-12500D03*
X170650D03*
X164350D03*
Y-17500D03*
X170650D03*
X158150D03*
X165650Y25000D03*
X159350D03*
Y30000D03*
X165650D03*
X178150Y-157500D03*
X189350Y-55000D03*
X201850Y-227500D03*
X200650Y-80000D03*
X194350D03*
X195650Y-55000D03*
X202500Y-15650D03*
Y-9350D03*
Y5350D03*
Y11650D03*
Y25350D03*
Y31650D03*
X208150Y-227500D03*
X223350Y-100000D03*
X229650D03*
X252500Y-176850D03*
Y-183150D03*
X277500Y-103150D03*
Y-96850D03*
X289350Y-85000D03*
X293150Y-57000D03*
X286850D03*
X297500Y-96850D03*
Y-103150D03*
X295650Y-85000D03*
G54D32*
X123937Y-67421D03*
G54D24*
X85453Y-124232D03*
X83484D03*
X81516D03*
X79547D03*
X77579D03*
X75610D03*
X73642D03*
X71673D03*
Y-90768D03*
X73642D03*
X75610D03*
X77579D03*
X79547D03*
X81516D03*
X83484D03*
X85453D03*
X86142Y-51732D03*
X84173D03*
Y-18268D03*
X86142D03*
X93327Y-124232D03*
X91358D03*
X89390D03*
X87421D03*
Y-90768D03*
X89390D03*
X91358D03*
X93327D03*
X101890Y-51732D03*
X99921D03*
X97953D03*
X95984D03*
X94016D03*
X92047D03*
X90079D03*
X88110D03*
Y-18268D03*
X90079D03*
X92047D03*
X94016D03*
X95984D03*
X97953D03*
X99921D03*
X101890D03*
X105827Y-51732D03*
X103858D03*
Y-18268D03*
X105827D03*
G54D15*
X13307Y-156339D03*
X23543D03*
X58780D03*
G54D33*
X157500Y7500D03*
G54D42*
X276063Y-198622D03*
Y-190748D03*
Y-182874D03*
Y-175000D03*
Y-167126D03*
Y-159252D03*
Y-151378D03*
X283937Y-190748D03*
Y-175000D03*
Y-182874D03*
Y-159252D03*
Y-167126D03*
Y-151378D03*
G54D34*
X154547Y-1752D03*
X152579D03*
X150610D03*
Y16752D03*
X152579D03*
X154547D03*
X164390Y-1752D03*
X162421D03*
X160453D03*
X158484D03*
X156516D03*
Y16752D03*
X158484D03*
X160453D03*
X162421D03*
X164390D03*
G54D43*
X283937Y-198622D03*
G54D25*
X95000Y-253189D03*
Y-165000D03*
G54D16*
X15669Y-105079D03*
Y-114921D03*
X23543D03*
Y-105079D03*
G54D26*
X103661Y-245610D03*
Y-235768D03*
Y-225925D03*
Y-216083D03*
Y-206240D03*
Y-196398D03*
Y-186555D03*
Y-177008D03*
Y-170315D03*
G54D17*
X17008Y-65571D03*
Y-4350D03*
G54D35*
X148248Y610D03*
Y2579D03*
Y4547D03*
Y6516D03*
Y8484D03*
Y10453D03*
Y12421D03*
Y14390D03*
X166752Y12421D03*
Y10453D03*
Y8484D03*
Y6516D03*
Y4547D03*
Y2579D03*
Y610D03*
Y14390D03*
G54D44*
X346220Y-161575D03*
Y-157638D03*
Y-153701D03*
Y-149764D03*
Y-145827D03*
Y-141890D03*
Y-137953D03*
Y-134016D03*
Y-130079D03*
Y-126142D03*
Y-122205D03*
Y-118268D03*
Y-114331D03*
Y-110394D03*
Y-106457D03*
Y-102520D03*
Y-98583D03*
Y-94646D03*
Y-90709D03*
Y-86772D03*
Y-82835D03*
Y-78898D03*
Y-74961D03*
Y-71024D03*
Y-67087D03*
Y-63150D03*
Y-59213D03*
Y-55276D03*
Y-51339D03*
Y-47402D03*
Y-43465D03*
Y-39528D03*
Y-35591D03*
Y-31654D03*
Y-27717D03*
Y-23780D03*
Y-19843D03*
Y-4094D03*
Y-15906D03*
Y-157D03*
Y3780D03*
Y7717D03*
Y11654D03*
Y15591D03*
Y19528D03*
Y23465D03*
Y27402D03*
Y31339D03*
G54D18*
X34882Y-111240D03*
Y-107500D03*
Y-103760D03*
X45118Y-107500D03*
Y-111240D03*
Y-103760D03*
X85118Y-77500D03*
Y-73760D03*
Y-81240D03*
X74882D03*
Y-77500D03*
Y-73760D03*
G54D27*
X114291Y-90000D03*
X125709D03*
X144291Y-25000D03*
X155709D03*
X166791D03*
X173209Y37500D03*
X161791D03*
X178209Y-25000D03*
G54D45*
X344252Y35276D03*
G54D36*
X162500Y-230000D03*
X157500D03*
X162500Y-225000D03*
Y-220000D03*
Y-215000D03*
Y-210000D03*
X157500Y-225000D03*
Y-220000D03*
Y-215000D03*
G54D28*
X116063Y-57579D03*
Y-67421D03*
X123937Y-57579D03*
G54D19*
X32500Y-81969D03*
Y-78031D03*
X41969Y-120000D03*
X38031D03*
X46969Y-95000D03*
X43031D03*
X48031Y-72500D03*
X51969D03*
X53031Y-125000D03*
X56969D03*
X53031Y-115000D03*
X56969D03*
Y-120000D03*
X53031D03*
Y-110000D03*
X56969D03*
X67500Y-89469D03*
X53031Y-95000D03*
X56969D03*
X53031Y-100000D03*
X56969D03*
X53031Y-105000D03*
X56969D03*
X67500Y-85531D03*
Y-79469D03*
Y-75531D03*
X68031Y-55000D03*
X53031Y-62500D03*
X56969D03*
Y-45000D03*
X53031D03*
X65531Y-50000D03*
X69469D03*
Y-45000D03*
X65531D03*
X69469Y-40000D03*
X65531D03*
X53031Y-50000D03*
X56969D03*
Y-40000D03*
X53031D03*
X56969Y-20000D03*
X53031D03*
X56969Y-35000D03*
X53031D03*
X56969Y-30000D03*
X53031D03*
X65531Y-35000D03*
X69469D03*
X53031Y-25000D03*
X56969D03*
X53031Y-7500D03*
X56969D03*
Y-15000D03*
X53031D03*
X78031Y-67500D03*
X81969D03*
X71969Y-55000D03*
X77500Y-56969D03*
Y-53031D03*
X96969Y-132500D03*
X93031D03*
X103031Y-87500D03*
X92500Y-78031D03*
Y-81969D03*
X97500Y-78031D03*
Y-81969D03*
X102500Y-78031D03*
Y-81969D03*
X97500Y-64469D03*
Y-60531D03*
X92500D03*
Y-64469D03*
X87500D03*
Y-60531D03*
X111969Y-107500D03*
X108031D03*
X111969Y-102500D03*
X108031D03*
Y-97500D03*
X111969D03*
X106969Y-87500D03*
X120531Y-47500D03*
Y-42500D03*
Y-25000D03*
X122500Y-124469D03*
Y-120531D03*
Y-110531D03*
Y-114469D03*
X130000Y-64469D03*
Y-60531D03*
X124469Y-47500D03*
Y-42500D03*
Y-25000D03*
X138031Y10000D03*
Y0D03*
Y5000D03*
Y15000D03*
X145000Y-11969D03*
Y-8031D03*
X140000D03*
Y-11969D03*
X141969Y10000D03*
Y0D03*
Y5000D03*
Y15000D03*
X147500Y29469D03*
Y25531D03*
X152500D03*
Y29469D03*
X154469Y35000D03*
X150531D03*
X176969Y-162500D03*
X173031D03*
X221969Y-227500D03*
X218031D03*
X219469Y-205000D03*
X215531D03*
X237500Y-193031D03*
Y-196969D03*
X251969Y30000D03*
X248031D03*
X275000Y-119469D03*
Y-115531D03*
X280000Y-119469D03*
Y-115531D03*
X291969Y-97500D03*
X288031D03*
X305000Y-125531D03*
Y-129469D03*
X300000Y-125531D03*
Y-129469D03*
X295000Y-125531D03*
Y-129469D03*
X305000Y-118031D03*
Y-121969D03*
X300000Y-118031D03*
Y-121969D03*
X295000Y-118031D03*
Y-121969D03*
G54D37*
X157500Y-210000D03*
G54D29*
X115000Y5157D03*
Y24843D03*
G54D38*
X187303Y-177047D03*
Y-180197D03*
Y-161299D03*
Y-164449D03*
Y-167598D03*
Y-170748D03*
Y-173898D03*
Y-142402D03*
Y-145551D03*
Y-148701D03*
Y-151850D03*
Y-155000D03*
Y-158150D03*
Y-129803D03*
Y-132953D03*
Y-136102D03*
Y-139252D03*
X206201Y-177047D03*
Y-180197D03*
X203051Y-177047D03*
Y-180197D03*
X199902Y-177047D03*
Y-180197D03*
X196752Y-177047D03*
Y-180197D03*
X193602Y-177047D03*
Y-180197D03*
X190453Y-177047D03*
Y-180197D03*
X206201Y-161299D03*
Y-167598D03*
Y-170748D03*
Y-173898D03*
X203051Y-167598D03*
Y-170748D03*
Y-173898D03*
X199902Y-161299D03*
Y-164449D03*
Y-167598D03*
Y-170748D03*
Y-173898D03*
X196752Y-161299D03*
Y-164449D03*
Y-167598D03*
Y-170748D03*
Y-173898D03*
X193602Y-161299D03*
Y-164449D03*
Y-167598D03*
Y-170748D03*
Y-173898D03*
X190453Y-161299D03*
Y-164449D03*
Y-167598D03*
Y-170748D03*
Y-173898D03*
X206201Y-142402D03*
Y-148701D03*
Y-151850D03*
Y-155000D03*
Y-158150D03*
X203051Y-142402D03*
X199902D03*
Y-145551D03*
Y-148701D03*
Y-151850D03*
Y-155000D03*
Y-158150D03*
X196752Y-142402D03*
Y-145551D03*
Y-148701D03*
Y-151850D03*
Y-155000D03*
Y-158150D03*
X193602Y-142402D03*
Y-145551D03*
Y-148701D03*
Y-151850D03*
Y-155000D03*
Y-158150D03*
X190453Y-142402D03*
Y-145551D03*
Y-148701D03*
Y-151850D03*
Y-155000D03*
Y-158150D03*
X206201Y-129803D03*
Y-132953D03*
Y-136102D03*
Y-139252D03*
X203051Y-129803D03*
Y-132953D03*
Y-136102D03*
Y-139252D03*
X199902Y-129803D03*
Y-132953D03*
Y-136102D03*
Y-139252D03*
X196752Y-129803D03*
Y-132953D03*
Y-136102D03*
Y-139252D03*
X193602Y-129803D03*
Y-132953D03*
Y-136102D03*
Y-139252D03*
X190453Y-129803D03*
Y-132953D03*
Y-136102D03*
Y-139252D03*
X221949Y-177047D03*
Y-180197D03*
X218799Y-177047D03*
Y-180197D03*
X215650Y-177047D03*
Y-180197D03*
X212500Y-177047D03*
Y-180197D03*
X209350Y-177047D03*
Y-180197D03*
X221949Y-167598D03*
Y-170748D03*
Y-173898D03*
X218799Y-161299D03*
Y-167598D03*
Y-170748D03*
Y-173898D03*
X215650Y-161299D03*
Y-167598D03*
Y-170748D03*
Y-173898D03*
X212500Y-161299D03*
Y-167598D03*
Y-170748D03*
Y-173898D03*
X209350Y-161299D03*
Y-167598D03*
Y-170748D03*
Y-173898D03*
X221949Y-142402D03*
X218799D03*
Y-148701D03*
Y-151850D03*
Y-155000D03*
Y-158150D03*
X215650Y-142402D03*
Y-148701D03*
Y-151850D03*
Y-155000D03*
Y-158150D03*
X212500Y-142402D03*
Y-148701D03*
Y-151850D03*
Y-155000D03*
Y-158150D03*
X209350Y-142402D03*
Y-148701D03*
Y-151850D03*
Y-155000D03*
Y-158150D03*
X221949Y-129803D03*
Y-132953D03*
Y-136102D03*
Y-139252D03*
X218799Y-129803D03*
Y-132953D03*
Y-136102D03*
Y-139252D03*
X215650Y-129803D03*
Y-132953D03*
Y-136102D03*
Y-139252D03*
X212500Y-129803D03*
Y-132953D03*
Y-136102D03*
Y-139252D03*
X209350Y-129803D03*
Y-132953D03*
Y-136102D03*
Y-139252D03*
X237697Y-177047D03*
Y-180197D03*
X234547Y-177047D03*
Y-180197D03*
X231398Y-177047D03*
Y-180197D03*
X228248Y-177047D03*
Y-180197D03*
X225098Y-177047D03*
Y-180197D03*
X237697Y-161299D03*
Y-164449D03*
Y-167598D03*
Y-170748D03*
Y-173898D03*
X234547Y-161299D03*
Y-164449D03*
Y-167598D03*
Y-170748D03*
Y-173898D03*
X231398Y-161299D03*
Y-164449D03*
Y-167598D03*
Y-170748D03*
Y-173898D03*
X228248Y-161299D03*
Y-164449D03*
Y-167598D03*
Y-170748D03*
Y-173898D03*
X225098Y-161299D03*
Y-164449D03*
Y-167598D03*
Y-170748D03*
Y-173898D03*
X237697Y-142402D03*
Y-145551D03*
Y-148701D03*
Y-151850D03*
Y-155000D03*
Y-158150D03*
X234547Y-142402D03*
Y-145551D03*
Y-148701D03*
Y-151850D03*
Y-155000D03*
Y-158150D03*
X231398Y-142402D03*
Y-145551D03*
Y-148701D03*
Y-151850D03*
Y-155000D03*
Y-158150D03*
X228248Y-142402D03*
Y-145551D03*
Y-148701D03*
Y-151850D03*
Y-155000D03*
Y-158150D03*
X225098Y-142402D03*
Y-145551D03*
Y-148701D03*
Y-151850D03*
Y-155000D03*
Y-158150D03*
X237697Y-129803D03*
Y-132953D03*
Y-136102D03*
Y-139252D03*
X234547Y-129803D03*
Y-132953D03*
Y-136102D03*
Y-139252D03*
X231398Y-129803D03*
Y-132953D03*
Y-136102D03*
Y-139252D03*
X228248Y-129803D03*
Y-132953D03*
Y-136102D03*
Y-139252D03*
X225098Y-129803D03*
Y-132953D03*
Y-136102D03*
Y-139252D03*
G54D39*
X186831Y-7500D03*
X178169D03*
X186831Y8500D03*
X178169D03*
X186831Y23500D03*
X178169D03*
M02*
